<?xml version="1.0" encoding="utf-8" standalone="no"?>
<!DOCTYPE svg PUBLIC "-//W3C//DTD SVG 1.1//EN"
  "http://www.w3.org/Graphics/SVG/1.1/DTD/svg11.dtd">
<!-- Created with matplotlib (https://matplotlib.org/) -->
<svg height="214.57625pt" version="1.1" viewBox="0 0 497.78125 214.57625" width="497.78125pt" xmlns="http://www.w3.org/2000/svg" xmlns:xlink="http://www.w3.org/1999/xlink">
 <defs>
  <style type="text/css">
*{stroke-linecap:butt;stroke-linejoin:round;}
  </style>
 </defs>
 <g id="figure_1">
  <g id="patch_1">
   <path d="M 0 214.57625 
L 497.78125 214.57625 
L 497.78125 0 
L 0 0 
z
" style="fill:#ffffff;"/>
  </g>
  <g id="axes_1">
   <g id="patch_2">
    <path d="M 40.68125 177.02 
L 487.08125 177.02 
L 487.08125 10.7 
L 40.68125 10.7 
z
" style="fill:#ffffff;"/>
   </g>
   <g id="matplotlib.axis_1">
    <g id="xtick_1">
     <g id="line2d_1">
      <path clip-path="url(#p7a8f8c9f08)" d="M 56.81619 177.02 
L 56.81619 10.7 
" style="fill:none;stroke:#b0b0b0;stroke-linecap:square;stroke-width:0.8;"/>
     </g>
     <g id="line2d_2">
      <defs>
       <path d="M 0 0 
L 0 3.5 
" id="mfb655ca2f1" style="stroke:#000000;stroke-width:0.8;"/>
      </defs>
      <g>
       <use style="stroke:#000000;stroke-width:0.8;" x="56.81619" xlink:href="#mfb655ca2f1" y="177.02"/>
      </g>
     </g>
     <g id="text_1">
      <!-- 0 -->
      <defs>
       <path d="M 31.78125 66.40625 
Q 24.171875 66.40625 20.328125 58.90625 
Q 16.5 51.421875 16.5 36.375 
Q 16.5 21.390625 20.328125 13.890625 
Q 24.171875 6.390625 31.78125 6.390625 
Q 39.453125 6.390625 43.28125 13.890625 
Q 47.125 21.390625 47.125 36.375 
Q 47.125 51.421875 43.28125 58.90625 
Q 39.453125 66.40625 31.78125 66.40625 
z
M 31.78125 74.21875 
Q 44.046875 74.21875 50.515625 64.515625 
Q 56.984375 54.828125 56.984375 36.375 
Q 56.984375 17.96875 50.515625 8.265625 
Q 44.046875 -1.421875 31.78125 -1.421875 
Q 19.53125 -1.421875 13.0625 8.265625 
Q 6.59375 17.96875 6.59375 36.375 
Q 6.59375 54.828125 13.0625 64.515625 
Q 19.53125 74.21875 31.78125 74.21875 
z
" id="DejaVuSans-48"/>
      </defs>
      <g transform="translate(53.63494 191.618438)scale(0.1 -0.1)">
       <use xlink:href="#DejaVuSans-48"/>
      </g>
     </g>
    </g>
    <g id="xtick_2">
     <g id="line2d_3">
      <path clip-path="url(#p7a8f8c9f08)" d="M 110.599322 177.02 
L 110.599322 10.7 
" style="fill:none;stroke:#b0b0b0;stroke-linecap:square;stroke-width:0.8;"/>
     </g>
     <g id="line2d_4">
      <g>
       <use style="stroke:#000000;stroke-width:0.8;" x="110.599322" xlink:href="#mfb655ca2f1" y="177.02"/>
      </g>
     </g>
     <g id="text_2">
      <!-- 100 -->
      <defs>
       <path d="M 12.40625 8.296875 
L 28.515625 8.296875 
L 28.515625 63.921875 
L 10.984375 60.40625 
L 10.984375 69.390625 
L 28.421875 72.90625 
L 38.28125 72.90625 
L 38.28125 8.296875 
L 54.390625 8.296875 
L 54.390625 0 
L 12.40625 0 
z
" id="DejaVuSans-49"/>
      </defs>
      <g transform="translate(101.055572 191.618438)scale(0.1 -0.1)">
       <use xlink:href="#DejaVuSans-49"/>
       <use x="63.623047" xlink:href="#DejaVuSans-48"/>
       <use x="127.246094" xlink:href="#DejaVuSans-48"/>
      </g>
     </g>
    </g>
    <g id="xtick_3">
     <g id="line2d_5">
      <path clip-path="url(#p7a8f8c9f08)" d="M 164.382455 177.02 
L 164.382455 10.7 
" style="fill:none;stroke:#b0b0b0;stroke-linecap:square;stroke-width:0.8;"/>
     </g>
     <g id="line2d_6">
      <g>
       <use style="stroke:#000000;stroke-width:0.8;" x="164.382455" xlink:href="#mfb655ca2f1" y="177.02"/>
      </g>
     </g>
     <g id="text_3">
      <!-- 200 -->
      <defs>
       <path d="M 19.1875 8.296875 
L 53.609375 8.296875 
L 53.609375 0 
L 7.328125 0 
L 7.328125 8.296875 
Q 12.9375 14.109375 22.625 23.890625 
Q 32.328125 33.6875 34.8125 36.53125 
Q 39.546875 41.84375 41.421875 45.53125 
Q 43.3125 49.21875 43.3125 52.78125 
Q 43.3125 58.59375 39.234375 62.25 
Q 35.15625 65.921875 28.609375 65.921875 
Q 23.96875 65.921875 18.8125 64.3125 
Q 13.671875 62.703125 7.8125 59.421875 
L 7.8125 69.390625 
Q 13.765625 71.78125 18.9375 73 
Q 24.125 74.21875 28.421875 74.21875 
Q 39.75 74.21875 46.484375 68.546875 
Q 53.21875 62.890625 53.21875 53.421875 
Q 53.21875 48.921875 51.53125 44.890625 
Q 49.859375 40.875 45.40625 35.40625 
Q 44.1875 33.984375 37.640625 27.21875 
Q 31.109375 20.453125 19.1875 8.296875 
z
" id="DejaVuSans-50"/>
      </defs>
      <g transform="translate(154.838705 191.618438)scale(0.1 -0.1)">
       <use xlink:href="#DejaVuSans-50"/>
       <use x="63.623047" xlink:href="#DejaVuSans-48"/>
       <use x="127.246094" xlink:href="#DejaVuSans-48"/>
      </g>
     </g>
    </g>
    <g id="xtick_4">
     <g id="line2d_7">
      <path clip-path="url(#p7a8f8c9f08)" d="M 218.165587 177.02 
L 218.165587 10.7 
" style="fill:none;stroke:#b0b0b0;stroke-linecap:square;stroke-width:0.8;"/>
     </g>
     <g id="line2d_8">
      <g>
       <use style="stroke:#000000;stroke-width:0.8;" x="218.165587" xlink:href="#mfb655ca2f1" y="177.02"/>
      </g>
     </g>
     <g id="text_4">
      <!-- 300 -->
      <defs>
       <path d="M 40.578125 39.3125 
Q 47.65625 37.796875 51.625 33 
Q 55.609375 28.21875 55.609375 21.1875 
Q 55.609375 10.40625 48.1875 4.484375 
Q 40.765625 -1.421875 27.09375 -1.421875 
Q 22.515625 -1.421875 17.65625 -0.515625 
Q 12.796875 0.390625 7.625 2.203125 
L 7.625 11.71875 
Q 11.71875 9.328125 16.59375 8.109375 
Q 21.484375 6.890625 26.8125 6.890625 
Q 36.078125 6.890625 40.9375 10.546875 
Q 45.796875 14.203125 45.796875 21.1875 
Q 45.796875 27.640625 41.28125 31.265625 
Q 36.765625 34.90625 28.71875 34.90625 
L 20.21875 34.90625 
L 20.21875 43.015625 
L 29.109375 43.015625 
Q 36.375 43.015625 40.234375 45.921875 
Q 44.09375 48.828125 44.09375 54.296875 
Q 44.09375 59.90625 40.109375 62.90625 
Q 36.140625 65.921875 28.71875 65.921875 
Q 24.65625 65.921875 20.015625 65.03125 
Q 15.375 64.15625 9.8125 62.3125 
L 9.8125 71.09375 
Q 15.4375 72.65625 20.34375 73.4375 
Q 25.25 74.21875 29.59375 74.21875 
Q 40.828125 74.21875 47.359375 69.109375 
Q 53.90625 64.015625 53.90625 55.328125 
Q 53.90625 49.265625 50.4375 45.09375 
Q 46.96875 40.921875 40.578125 39.3125 
z
" id="DejaVuSans-51"/>
      </defs>
      <g transform="translate(208.621837 191.618438)scale(0.1 -0.1)">
       <use xlink:href="#DejaVuSans-51"/>
       <use x="63.623047" xlink:href="#DejaVuSans-48"/>
       <use x="127.246094" xlink:href="#DejaVuSans-48"/>
      </g>
     </g>
    </g>
    <g id="xtick_5">
     <g id="line2d_9">
      <path clip-path="url(#p7a8f8c9f08)" d="M 271.94872 177.02 
L 271.94872 10.7 
" style="fill:none;stroke:#b0b0b0;stroke-linecap:square;stroke-width:0.8;"/>
     </g>
     <g id="line2d_10">
      <g>
       <use style="stroke:#000000;stroke-width:0.8;" x="271.94872" xlink:href="#mfb655ca2f1" y="177.02"/>
      </g>
     </g>
     <g id="text_5">
      <!-- 400 -->
      <defs>
       <path d="M 37.796875 64.3125 
L 12.890625 25.390625 
L 37.796875 25.390625 
z
M 35.203125 72.90625 
L 47.609375 72.90625 
L 47.609375 25.390625 
L 58.015625 25.390625 
L 58.015625 17.1875 
L 47.609375 17.1875 
L 47.609375 0 
L 37.796875 0 
L 37.796875 17.1875 
L 4.890625 17.1875 
L 4.890625 26.703125 
z
" id="DejaVuSans-52"/>
      </defs>
      <g transform="translate(262.40497 191.618438)scale(0.1 -0.1)">
       <use xlink:href="#DejaVuSans-52"/>
       <use x="63.623047" xlink:href="#DejaVuSans-48"/>
       <use x="127.246094" xlink:href="#DejaVuSans-48"/>
      </g>
     </g>
    </g>
    <g id="xtick_6">
     <g id="line2d_11">
      <path clip-path="url(#p7a8f8c9f08)" d="M 325.731852 177.02 
L 325.731852 10.7 
" style="fill:none;stroke:#b0b0b0;stroke-linecap:square;stroke-width:0.8;"/>
     </g>
     <g id="line2d_12">
      <g>
       <use style="stroke:#000000;stroke-width:0.8;" x="325.731852" xlink:href="#mfb655ca2f1" y="177.02"/>
      </g>
     </g>
     <g id="text_6">
      <!-- 500 -->
      <defs>
       <path d="M 10.796875 72.90625 
L 49.515625 72.90625 
L 49.515625 64.59375 
L 19.828125 64.59375 
L 19.828125 46.734375 
Q 21.96875 47.46875 24.109375 47.828125 
Q 26.265625 48.1875 28.421875 48.1875 
Q 40.625 48.1875 47.75 41.5 
Q 54.890625 34.8125 54.890625 23.390625 
Q 54.890625 11.625 47.5625 5.09375 
Q 40.234375 -1.421875 26.90625 -1.421875 
Q 22.3125 -1.421875 17.546875 -0.640625 
Q 12.796875 0.140625 7.71875 1.703125 
L 7.71875 11.625 
Q 12.109375 9.234375 16.796875 8.0625 
Q 21.484375 6.890625 26.703125 6.890625 
Q 35.15625 6.890625 40.078125 11.328125 
Q 45.015625 15.765625 45.015625 23.390625 
Q 45.015625 31 40.078125 35.4375 
Q 35.15625 39.890625 26.703125 39.890625 
Q 22.75 39.890625 18.8125 39.015625 
Q 14.890625 38.140625 10.796875 36.28125 
z
" id="DejaVuSans-53"/>
      </defs>
      <g transform="translate(316.188102 191.618438)scale(0.1 -0.1)">
       <use xlink:href="#DejaVuSans-53"/>
       <use x="63.623047" xlink:href="#DejaVuSans-48"/>
       <use x="127.246094" xlink:href="#DejaVuSans-48"/>
      </g>
     </g>
    </g>
    <g id="xtick_7">
     <g id="line2d_13">
      <path clip-path="url(#p7a8f8c9f08)" d="M 379.514985 177.02 
L 379.514985 10.7 
" style="fill:none;stroke:#b0b0b0;stroke-linecap:square;stroke-width:0.8;"/>
     </g>
     <g id="line2d_14">
      <g>
       <use style="stroke:#000000;stroke-width:0.8;" x="379.514985" xlink:href="#mfb655ca2f1" y="177.02"/>
      </g>
     </g>
     <g id="text_7">
      <!-- 600 -->
      <defs>
       <path d="M 33.015625 40.375 
Q 26.375 40.375 22.484375 35.828125 
Q 18.609375 31.296875 18.609375 23.390625 
Q 18.609375 15.53125 22.484375 10.953125 
Q 26.375 6.390625 33.015625 6.390625 
Q 39.65625 6.390625 43.53125 10.953125 
Q 47.40625 15.53125 47.40625 23.390625 
Q 47.40625 31.296875 43.53125 35.828125 
Q 39.65625 40.375 33.015625 40.375 
z
M 52.59375 71.296875 
L 52.59375 62.3125 
Q 48.875 64.0625 45.09375 64.984375 
Q 41.3125 65.921875 37.59375 65.921875 
Q 27.828125 65.921875 22.671875 59.328125 
Q 17.53125 52.734375 16.796875 39.40625 
Q 19.671875 43.65625 24.015625 45.921875 
Q 28.375 48.1875 33.59375 48.1875 
Q 44.578125 48.1875 50.953125 41.515625 
Q 57.328125 34.859375 57.328125 23.390625 
Q 57.328125 12.15625 50.6875 5.359375 
Q 44.046875 -1.421875 33.015625 -1.421875 
Q 20.359375 -1.421875 13.671875 8.265625 
Q 6.984375 17.96875 6.984375 36.375 
Q 6.984375 53.65625 15.1875 63.9375 
Q 23.390625 74.21875 37.203125 74.21875 
Q 40.921875 74.21875 44.703125 73.484375 
Q 48.484375 72.75 52.59375 71.296875 
z
" id="DejaVuSans-54"/>
      </defs>
      <g transform="translate(369.971235 191.618438)scale(0.1 -0.1)">
       <use xlink:href="#DejaVuSans-54"/>
       <use x="63.623047" xlink:href="#DejaVuSans-48"/>
       <use x="127.246094" xlink:href="#DejaVuSans-48"/>
      </g>
     </g>
    </g>
    <g id="xtick_8">
     <g id="line2d_15">
      <path clip-path="url(#p7a8f8c9f08)" d="M 433.298117 177.02 
L 433.298117 10.7 
" style="fill:none;stroke:#b0b0b0;stroke-linecap:square;stroke-width:0.8;"/>
     </g>
     <g id="line2d_16">
      <g>
       <use style="stroke:#000000;stroke-width:0.8;" x="433.298117" xlink:href="#mfb655ca2f1" y="177.02"/>
      </g>
     </g>
     <g id="text_8">
      <!-- 700 -->
      <defs>
       <path d="M 8.203125 72.90625 
L 55.078125 72.90625 
L 55.078125 68.703125 
L 28.609375 0 
L 18.3125 0 
L 43.21875 64.59375 
L 8.203125 64.59375 
z
" id="DejaVuSans-55"/>
      </defs>
      <g transform="translate(423.754367 191.618438)scale(0.1 -0.1)">
       <use xlink:href="#DejaVuSans-55"/>
       <use x="63.623047" xlink:href="#DejaVuSans-48"/>
       <use x="127.246094" xlink:href="#DejaVuSans-48"/>
      </g>
     </g>
    </g>
    <g id="text_9">
     <!-- Time (s) -->
     <defs>
      <path d="M -0.296875 72.90625 
L 61.375 72.90625 
L 61.375 64.59375 
L 35.5 64.59375 
L 35.5 0 
L 25.59375 0 
L 25.59375 64.59375 
L -0.296875 64.59375 
z
" id="DejaVuSans-84"/>
      <path d="M 9.421875 54.6875 
L 18.40625 54.6875 
L 18.40625 0 
L 9.421875 0 
z
M 9.421875 75.984375 
L 18.40625 75.984375 
L 18.40625 64.59375 
L 9.421875 64.59375 
z
" id="DejaVuSans-105"/>
      <path d="M 52 44.1875 
Q 55.375 50.25 60.0625 53.125 
Q 64.75 56 71.09375 56 
Q 79.640625 56 84.28125 50.015625 
Q 88.921875 44.046875 88.921875 33.015625 
L 88.921875 0 
L 79.890625 0 
L 79.890625 32.71875 
Q 79.890625 40.578125 77.09375 44.375 
Q 74.3125 48.1875 68.609375 48.1875 
Q 61.625 48.1875 57.5625 43.546875 
Q 53.515625 38.921875 53.515625 30.90625 
L 53.515625 0 
L 44.484375 0 
L 44.484375 32.71875 
Q 44.484375 40.625 41.703125 44.40625 
Q 38.921875 48.1875 33.109375 48.1875 
Q 26.21875 48.1875 22.15625 43.53125 
Q 18.109375 38.875 18.109375 30.90625 
L 18.109375 0 
L 9.078125 0 
L 9.078125 54.6875 
L 18.109375 54.6875 
L 18.109375 46.1875 
Q 21.1875 51.21875 25.484375 53.609375 
Q 29.78125 56 35.6875 56 
Q 41.65625 56 45.828125 52.96875 
Q 50 49.953125 52 44.1875 
z
" id="DejaVuSans-109"/>
      <path d="M 56.203125 29.59375 
L 56.203125 25.203125 
L 14.890625 25.203125 
Q 15.484375 15.921875 20.484375 11.0625 
Q 25.484375 6.203125 34.421875 6.203125 
Q 39.59375 6.203125 44.453125 7.46875 
Q 49.3125 8.734375 54.109375 11.28125 
L 54.109375 2.78125 
Q 49.265625 0.734375 44.1875 -0.34375 
Q 39.109375 -1.421875 33.890625 -1.421875 
Q 20.796875 -1.421875 13.15625 6.1875 
Q 5.515625 13.8125 5.515625 26.8125 
Q 5.515625 40.234375 12.765625 48.109375 
Q 20.015625 56 32.328125 56 
Q 43.359375 56 49.78125 48.890625 
Q 56.203125 41.796875 56.203125 29.59375 
z
M 47.21875 32.234375 
Q 47.125 39.59375 43.09375 43.984375 
Q 39.0625 48.390625 32.421875 48.390625 
Q 24.90625 48.390625 20.390625 44.140625 
Q 15.875 39.890625 15.1875 32.171875 
z
" id="DejaVuSans-101"/>
      <path id="DejaVuSans-32"/>
      <path d="M 31 75.875 
Q 24.46875 64.65625 21.28125 53.65625 
Q 18.109375 42.671875 18.109375 31.390625 
Q 18.109375 20.125 21.3125 9.0625 
Q 24.515625 -2 31 -13.1875 
L 23.1875 -13.1875 
Q 15.875 -1.703125 12.234375 9.375 
Q 8.59375 20.453125 8.59375 31.390625 
Q 8.59375 42.28125 12.203125 53.3125 
Q 15.828125 64.359375 23.1875 75.875 
z
" id="DejaVuSans-40"/>
      <path d="M 44.28125 53.078125 
L 44.28125 44.578125 
Q 40.484375 46.53125 36.375 47.5 
Q 32.28125 48.484375 27.875 48.484375 
Q 21.1875 48.484375 17.84375 46.4375 
Q 14.5 44.390625 14.5 40.28125 
Q 14.5 37.15625 16.890625 35.375 
Q 19.28125 33.59375 26.515625 31.984375 
L 29.59375 31.296875 
Q 39.15625 29.25 43.1875 25.515625 
Q 47.21875 21.78125 47.21875 15.09375 
Q 47.21875 7.46875 41.1875 3.015625 
Q 35.15625 -1.421875 24.609375 -1.421875 
Q 20.21875 -1.421875 15.453125 -0.5625 
Q 10.6875 0.296875 5.421875 2 
L 5.421875 11.28125 
Q 10.40625 8.6875 15.234375 7.390625 
Q 20.0625 6.109375 24.8125 6.109375 
Q 31.15625 6.109375 34.5625 8.28125 
Q 37.984375 10.453125 37.984375 14.40625 
Q 37.984375 18.0625 35.515625 20.015625 
Q 33.0625 21.96875 24.703125 23.78125 
L 21.578125 24.515625 
Q 13.234375 26.265625 9.515625 29.90625 
Q 5.8125 33.546875 5.8125 39.890625 
Q 5.8125 47.609375 11.28125 51.796875 
Q 16.75 56 26.8125 56 
Q 31.78125 56 36.171875 55.265625 
Q 40.578125 54.546875 44.28125 53.078125 
z
" id="DejaVuSans-115"/>
      <path d="M 8.015625 75.875 
L 15.828125 75.875 
Q 23.140625 64.359375 26.78125 53.3125 
Q 30.421875 42.28125 30.421875 31.390625 
Q 30.421875 20.453125 26.78125 9.375 
Q 23.140625 -1.703125 15.828125 -13.1875 
L 8.015625 -13.1875 
Q 14.5 -2 17.703125 9.0625 
Q 20.90625 20.125 20.90625 31.390625 
Q 20.90625 42.671875 17.703125 53.65625 
Q 14.5 64.65625 8.015625 75.875 
z
" id="DejaVuSans-41"/>
     </defs>
     <g transform="translate(243.398437 205.296563)scale(0.1 -0.1)">
      <use xlink:href="#DejaVuSans-84"/>
      <use x="61.037109" xlink:href="#DejaVuSans-105"/>
      <use x="88.820312" xlink:href="#DejaVuSans-109"/>
      <use x="186.232422" xlink:href="#DejaVuSans-101"/>
      <use x="247.755859" xlink:href="#DejaVuSans-32"/>
      <use x="279.542969" xlink:href="#DejaVuSans-40"/>
      <use x="318.556641" xlink:href="#DejaVuSans-115"/>
      <use x="370.65625" xlink:href="#DejaVuSans-41"/>
     </g>
    </g>
   </g>
   <g id="matplotlib.axis_2">
    <g id="ytick_1">
     <g id="line2d_17">
      <path clip-path="url(#p7a8f8c9f08)" d="M 40.68125 177.02 
L 487.08125 177.02 
" style="fill:none;stroke:#b0b0b0;stroke-linecap:square;stroke-width:0.8;"/>
     </g>
     <g id="line2d_18">
      <defs>
       <path d="M 0 0 
L -3.5 0 
" id="m3930d2bec0" style="stroke:#000000;stroke-width:0.8;"/>
      </defs>
      <g>
       <use style="stroke:#000000;stroke-width:0.8;" x="40.68125" xlink:href="#m3930d2bec0" y="177.02"/>
      </g>
     </g>
     <g id="text_10">
      <!-- 0 -->
      <g transform="translate(27.31875 180.819219)scale(0.1 -0.1)">
       <use xlink:href="#DejaVuSans-48"/>
      </g>
     </g>
    </g>
    <g id="ytick_2">
     <g id="line2d_19">
      <path clip-path="url(#p7a8f8c9f08)" d="M 40.68125 146.78 
L 487.08125 146.78 
" style="fill:none;stroke:#b0b0b0;stroke-linecap:square;stroke-width:0.8;"/>
     </g>
     <g id="line2d_20">
      <g>
       <use style="stroke:#000000;stroke-width:0.8;" x="40.68125" xlink:href="#m3930d2bec0" y="146.78"/>
      </g>
     </g>
     <g id="text_11">
      <!-- 2 -->
      <g transform="translate(27.31875 150.579219)scale(0.1 -0.1)">
       <use xlink:href="#DejaVuSans-50"/>
      </g>
     </g>
    </g>
    <g id="ytick_3">
     <g id="line2d_21">
      <path clip-path="url(#p7a8f8c9f08)" d="M 40.68125 116.54 
L 487.08125 116.54 
" style="fill:none;stroke:#b0b0b0;stroke-linecap:square;stroke-width:0.8;"/>
     </g>
     <g id="line2d_22">
      <g>
       <use style="stroke:#000000;stroke-width:0.8;" x="40.68125" xlink:href="#m3930d2bec0" y="116.54"/>
      </g>
     </g>
     <g id="text_12">
      <!-- 4 -->
      <g transform="translate(27.31875 120.339219)scale(0.1 -0.1)">
       <use xlink:href="#DejaVuSans-52"/>
      </g>
     </g>
    </g>
    <g id="ytick_4">
     <g id="line2d_23">
      <path clip-path="url(#p7a8f8c9f08)" d="M 40.68125 86.3 
L 487.08125 86.3 
" style="fill:none;stroke:#b0b0b0;stroke-linecap:square;stroke-width:0.8;"/>
     </g>
     <g id="line2d_24">
      <g>
       <use style="stroke:#000000;stroke-width:0.8;" x="40.68125" xlink:href="#m3930d2bec0" y="86.3"/>
      </g>
     </g>
     <g id="text_13">
      <!-- 6 -->
      <g transform="translate(27.31875 90.099219)scale(0.1 -0.1)">
       <use xlink:href="#DejaVuSans-54"/>
      </g>
     </g>
    </g>
    <g id="ytick_5">
     <g id="line2d_25">
      <path clip-path="url(#p7a8f8c9f08)" d="M 40.68125 56.06 
L 487.08125 56.06 
" style="fill:none;stroke:#b0b0b0;stroke-linecap:square;stroke-width:0.8;"/>
     </g>
     <g id="line2d_26">
      <g>
       <use style="stroke:#000000;stroke-width:0.8;" x="40.68125" xlink:href="#m3930d2bec0" y="56.06"/>
      </g>
     </g>
     <g id="text_14">
      <!-- 8 -->
      <defs>
       <path d="M 31.78125 34.625 
Q 24.75 34.625 20.71875 30.859375 
Q 16.703125 27.09375 16.703125 20.515625 
Q 16.703125 13.921875 20.71875 10.15625 
Q 24.75 6.390625 31.78125 6.390625 
Q 38.8125 6.390625 42.859375 10.171875 
Q 46.921875 13.96875 46.921875 20.515625 
Q 46.921875 27.09375 42.890625 30.859375 
Q 38.875 34.625 31.78125 34.625 
z
M 21.921875 38.8125 
Q 15.578125 40.375 12.03125 44.71875 
Q 8.5 49.078125 8.5 55.328125 
Q 8.5 64.0625 14.71875 69.140625 
Q 20.953125 74.21875 31.78125 74.21875 
Q 42.671875 74.21875 48.875 69.140625 
Q 55.078125 64.0625 55.078125 55.328125 
Q 55.078125 49.078125 51.53125 44.71875 
Q 48 40.375 41.703125 38.8125 
Q 48.828125 37.15625 52.796875 32.3125 
Q 56.78125 27.484375 56.78125 20.515625 
Q 56.78125 9.90625 50.3125 4.234375 
Q 43.84375 -1.421875 31.78125 -1.421875 
Q 19.734375 -1.421875 13.25 4.234375 
Q 6.78125 9.90625 6.78125 20.515625 
Q 6.78125 27.484375 10.78125 32.3125 
Q 14.796875 37.15625 21.921875 38.8125 
z
M 18.3125 54.390625 
Q 18.3125 48.734375 21.84375 45.5625 
Q 25.390625 42.390625 31.78125 42.390625 
Q 38.140625 42.390625 41.71875 45.5625 
Q 45.3125 48.734375 45.3125 54.390625 
Q 45.3125 60.0625 41.71875 63.234375 
Q 38.140625 66.40625 31.78125 66.40625 
Q 25.390625 66.40625 21.84375 63.234375 
Q 18.3125 60.0625 18.3125 54.390625 
z
" id="DejaVuSans-56"/>
      </defs>
      <g transform="translate(27.31875 59.859219)scale(0.1 -0.1)">
       <use xlink:href="#DejaVuSans-56"/>
      </g>
     </g>
    </g>
    <g id="ytick_6">
     <g id="line2d_27">
      <path clip-path="url(#p7a8f8c9f08)" d="M 40.68125 25.82 
L 487.08125 25.82 
" style="fill:none;stroke:#b0b0b0;stroke-linecap:square;stroke-width:0.8;"/>
     </g>
     <g id="line2d_28">
      <g>
       <use style="stroke:#000000;stroke-width:0.8;" x="40.68125" xlink:href="#m3930d2bec0" y="25.82"/>
      </g>
     </g>
     <g id="text_15">
      <!-- 10 -->
      <g transform="translate(20.95625 29.619219)scale(0.1 -0.1)">
       <use xlink:href="#DejaVuSans-49"/>
       <use x="63.623047" xlink:href="#DejaVuSans-48"/>
      </g>
     </g>
    </g>
    <g id="text_16">
     <!-- Memory (GiB) -->
     <defs>
      <path d="M 16.3125 72.90625 
L 39.40625 72.90625 
L 48.78125 34.1875 
L 73.390625 72.90625 
L 97.40625 72.90625 
L 83.203125 0 
L 65.375 0 
L 75.78125 53.8125 
L 50.484375 14.015625 
L 40.375 14.015625 
L 30.328125 53.8125 
L 19.921875 0 
L 2.09375 0 
z
" id="DejaVuSans-BoldOblique-77"/>
      <path d="M 62.890625 25.296875 
L 62.3125 22.515625 
L 21.390625 22.515625 
Q 21.390625 22.21875 21.34375 21.65625 
Q 21.296875 21.09375 21.296875 20.796875 
Q 21.296875 15.484375 24.484375 12.84375 
Q 27.6875 10.203125 34.078125 10.203125 
Q 39.59375 10.203125 45.71875 11.859375 
Q 51.859375 13.53125 58.59375 16.796875 
L 55.90625 3.21875 
Q 49.515625 0.875 43.1875 -0.265625 
Q 36.859375 -1.421875 30.328125 -1.421875 
Q 17.53125 -1.421875 10.5625 4.484375 
Q 3.609375 10.40625 3.609375 21.1875 
Q 3.609375 27.4375 5.828125 33.3125 
Q 8.0625 39.203125 12.3125 44.09375 
Q 17.328125 49.953125 24.328125 52.96875 
Q 31.34375 56 39.890625 56 
Q 50.984375 56 57.5 50.09375 
Q 64.015625 44.1875 64.015625 34.1875 
Q 64.015625 32.234375 63.75 30.046875 
Q 63.484375 27.875 62.890625 25.296875 
z
M 46.390625 33.296875 
Q 46.53125 33.9375 46.609375 34.59375 
Q 46.6875 35.25 46.6875 35.890625 
Q 46.6875 39.796875 44.34375 42.09375 
Q 42 44.390625 37.984375 44.390625 
Q 32.859375 44.390625 29.265625 41.578125 
Q 25.6875 38.765625 23.78125 33.296875 
z
" id="DejaVuSans-BoldOblique-101"/>
      <path d="M 62.703125 45.609375 
Q 66.75 50.640625 71.890625 53.3125 
Q 77.046875 56 82.625 56 
Q 89.9375 56 94.15625 51.96875 
Q 98.390625 47.953125 98.390625 40.921875 
Q 98.390625 39.453125 98.171875 37.5625 
Q 97.953125 35.6875 97.515625 33.296875 
L 91.015625 0 
L 73.390625 0 
L 78.90625 28.515625 
L 79.046875 29.25 
Q 80.328125 35.296875 80.328125 37.015625 
Q 80.328125 39.703125 78.78125 41.265625 
Q 77.25 42.828125 74.609375 42.828125 
Q 69.578125 42.828125 66.078125 38.703125 
Q 62.59375 34.578125 61.078125 26.90625 
L 55.8125 0 
L 38.1875 0 
L 43.796875 28.515625 
Q 44.53125 32.171875 44.828125 34.046875 
Q 45.125 35.9375 45.125 37.015625 
Q 45.125 39.75 43.609375 41.28125 
Q 42.09375 42.828125 39.40625 42.828125 
Q 34.578125 42.828125 30.9375 38.546875 
Q 27.296875 34.28125 25.875 26.90625 
L 20.609375 0 
L 3.078125 0 
L 13.71875 54.6875 
L 31.296875 54.6875 
L 29.6875 46.6875 
Q 33.796875 51.3125 38.421875 53.65625 
Q 43.0625 56 48.09375 56 
Q 53.765625 56 57.8125 53.09375 
Q 61.859375 50.203125 62.703125 45.609375 
z
" id="DejaVuSans-BoldOblique-109"/>
      <path d="M 37.5 43.5 
Q 30.71875 43.5 26.3125 37.34375 
Q 21.921875 31.203125 21.921875 21.6875 
Q 21.921875 16.5 24.28125 13.78125 
Q 26.65625 11.078125 31.203125 11.078125 
Q 37.984375 11.078125 42.375 17.25 
Q 46.78125 23.4375 46.78125 33.015625 
Q 46.78125 38.140625 44.40625 40.8125 
Q 42.046875 43.5 37.5 43.5 
z
M 38.921875 56 
Q 51.125 56 58.109375 49.796875 
Q 65.09375 43.609375 65.09375 32.90625 
Q 65.09375 26.703125 62.890625 20.875 
Q 60.6875 15.046875 56.5 10.203125 
Q 51.515625 4.4375 44.71875 1.5 
Q 37.9375 -1.421875 29.59375 -1.421875 
Q 17.53125 -1.421875 10.5625 4.78125 
Q 3.609375 10.984375 3.609375 21.6875 
Q 3.609375 27.828125 5.859375 33.703125 
Q 8.109375 39.59375 12.3125 44.484375 
Q 17.1875 50.140625 23.953125 53.0625 
Q 30.71875 56 38.921875 56 
z
" id="DejaVuSans-BoldOblique-111"/>
      <path d="M 51.421875 39.796875 
Q 49.609375 40.828125 47.40625 41.359375 
Q 45.21875 41.890625 42.671875 41.890625 
Q 35.984375 41.890625 31.5625 37.59375 
Q 27.15625 33.296875 25.59375 25.203125 
L 20.609375 0 
L 3.078125 0 
L 13.71875 54.6875 
L 31.296875 54.6875 
L 29.390625 45.3125 
Q 32.859375 50.484375 38.0625 53.234375 
Q 43.265625 56 49.609375 56 
Q 50.53125 56 51.703125 55.90625 
Q 52.875 55.8125 54.5 55.609375 
z
" id="DejaVuSans-BoldOblique-114"/>
      <path d="M 6.59375 54.6875 
L 23.09375 54.6875 
L 30.609375 16.796875 
L 50 54.6875 
L 68.703125 54.6875 
L 34.078125 -5.171875 
Q 28.265625 -15.28125 23.328125 -18.421875 
Q 18.40625 -21.578125 10.59375 -21.578125 
L 0 -21.578125 
L 1.8125 -10.109375 
L 7.328125 -10.109375 
Q 11.625 -10.109375 13.984375 -8.671875 
Q 16.359375 -7.234375 18.21875 -3.609375 
L 19.828125 -0.6875 
z
" id="DejaVuSans-BoldOblique-121"/>
      <path id="DejaVuSans-BoldOblique-32"/>
      <path d="M 29.5 -13.1875 
L 15.28125 -13.1875 
Q 11.46875 -5.078125 9.59375 2.703125 
Q 7.71875 10.5 7.71875 18.21875 
Q 7.71875 32.625 13.921875 47 
Q 20.125 61.375 32.625 75.875 
L 46.78125 75.875 
Q 35.40625 60.75 29.8125 45.921875 
Q 24.21875 31.109375 24.21875 16.21875 
Q 24.21875 8.890625 25.53125 1.578125 
Q 26.859375 -5.71875 29.5 -13.1875 
z
" id="DejaVuSans-BoldOblique-40"/>
      <path d="M 68.109375 5.421875 
Q 60.984375 1.953125 53.3125 0.265625 
Q 45.65625 -1.421875 36.921875 -1.421875 
Q 21.390625 -1.421875 12.5 6.46875 
Q 3.609375 14.359375 3.609375 27.984375 
Q 3.609375 36.8125 6.390625 44.546875 
Q 9.1875 52.296875 14.703125 58.6875 
Q 21.4375 66.5 30.59375 70.359375 
Q 39.75 74.21875 51.515625 74.21875 
Q 58.0625 74.21875 64.703125 72.84375 
Q 71.34375 71.484375 77.78125 68.796875 
L 74.90625 53.71875 
Q 68.953125 57.171875 63.25 58.875 
Q 57.5625 60.59375 51.8125 60.59375 
Q 39.203125 60.59375 31.296875 52.1875 
Q 23.390625 43.796875 23.390625 30.609375 
Q 23.390625 21.875 28 17.03125 
Q 32.625 12.203125 41.015625 12.203125 
Q 43.75 12.203125 46.484375 12.5625 
Q 49.21875 12.9375 52 13.71875 
L 54.78125 27.875 
L 43.3125 27.875 
L 45.703125 40.484375 
L 74.90625 40.484375 
z
" id="DejaVuSans-BoldOblique-71"/>
      <path d="M 13.71875 54.6875 
L 31.296875 54.6875 
L 20.609375 0 
L 3.078125 0 
z
M 17.828125 75.984375 
L 35.40625 75.984375 
L 32.625 61.71875 
L 14.984375 61.71875 
z
" id="DejaVuSans-BoldOblique-105"/>
      <path d="M 39.984375 44.671875 
Q 45.015625 44.671875 47.84375 47.203125 
Q 50.6875 49.75 50.6875 54.203125 
Q 50.6875 57.078125 48.703125 58.59375 
Q 46.734375 60.109375 43.015625 60.109375 
L 32.515625 60.109375 
L 29.5 44.671875 
z
M 34.421875 12.796875 
Q 40.875 12.796875 44.328125 15.875 
Q 47.796875 18.953125 47.796875 24.703125 
Q 47.796875 28.375 45.40625 30.125 
Q 43.015625 31.890625 38.09375 31.890625 
L 27 31.890625 
L 23.296875 12.796875 
z
M 56.6875 39.015625 
Q 61.46875 37.640625 64.078125 34 
Q 66.703125 30.375 66.703125 25 
Q 66.703125 13.234375 57.9375 6.609375 
Q 49.171875 0 33.296875 0 
L 2.09375 0 
L 16.3125 72.90625 
L 44.484375 72.90625 
Q 57.46875 72.90625 63.6875 69.09375 
Q 69.921875 65.28125 69.921875 57.328125 
Q 69.921875 50.640625 66.25 45.578125 
Q 62.59375 40.53125 56.6875 39.015625 
z
" id="DejaVuSans-BoldOblique-66"/>
      <path d="M 14.59375 75.875 
L 28.90625 75.875 
Q 32.671875 67.875 34.515625 60.078125 
Q 36.375 52.296875 36.375 44.484375 
Q 36.375 29.9375 30.203125 15.546875 
Q 24.03125 1.171875 11.625 -13.1875 
L -2.6875 -13.1875 
Q 8.6875 1.953125 14.296875 16.796875 
Q 19.921875 31.640625 19.921875 46.578125 
Q 19.921875 53.90625 18.59375 61.15625 
Q 17.28125 68.40625 14.59375 75.875 
z
" id="DejaVuSans-BoldOblique-41"/>
     </defs>
     <g transform="translate(14.798437 132.537344)rotate(-90)scale(0.1 -0.1)">
      <use xlink:href="#DejaVuSans-BoldOblique-77"/>
      <use x="99.511719" xlink:href="#DejaVuSans-BoldOblique-101"/>
      <use x="167.333984" xlink:href="#DejaVuSans-BoldOblique-109"/>
      <use x="271.533203" xlink:href="#DejaVuSans-BoldOblique-111"/>
      <use x="340.234375" xlink:href="#DejaVuSans-BoldOblique-114"/>
      <use x="389.550781" xlink:href="#DejaVuSans-BoldOblique-121"/>
      <use x="454.736328" xlink:href="#DejaVuSans-BoldOblique-32"/>
      <use x="489.550781" xlink:href="#DejaVuSans-BoldOblique-40"/>
      <use x="535.253906" xlink:href="#DejaVuSans-BoldOblique-71"/>
      <use x="617.333984" xlink:href="#DejaVuSans-BoldOblique-105"/>
      <use x="651.611328" xlink:href="#DejaVuSans-BoldOblique-66"/>
      <use x="727.832031" xlink:href="#DejaVuSans-BoldOblique-41"/>
     </g>
    </g>
   </g>
   <g id="line2d_29">
    <path clip-path="url(#p7a8f8c9f08)" d="M 56.81619 25.82 
L 473.635467 25.82 
L 473.635467 25.82 
" style="fill:none;stroke:#1f77b4;stroke-dasharray:1.5,0;stroke-dashoffset:0;stroke-width:1.5;"/>
    <defs>
     <path d="M -3 3 
L 3 -3 
M -3 -3 
L 3 3 
" id="me5c11466fa" style="stroke:#1f77b4;"/>
    </defs>
    <g clip-path="url(#p7a8f8c9f08)">
     <use style="fill:#1f77b4;stroke:#1f77b4;" x="56.81619" xlink:href="#me5c11466fa" y="25.82"/>
     <use style="fill:#1f77b4;stroke:#1f77b4;" x="72.95113" xlink:href="#me5c11466fa" y="25.82"/>
     <use style="fill:#1f77b4;stroke:#1f77b4;" x="86.396913" xlink:href="#me5c11466fa" y="25.82"/>
     <use style="fill:#1f77b4;stroke:#1f77b4;" x="102.531852" xlink:href="#me5c11466fa" y="25.82"/>
     <use style="fill:#1f77b4;stroke:#1f77b4;" x="118.666792" xlink:href="#me5c11466fa" y="25.82"/>
     <use style="fill:#1f77b4;stroke:#1f77b4;" x="132.112575" xlink:href="#me5c11466fa" y="25.82"/>
     <use style="fill:#1f77b4;stroke:#1f77b4;" x="148.247515" xlink:href="#me5c11466fa" y="25.82"/>
     <use style="fill:#1f77b4;stroke:#1f77b4;" x="161.693298" xlink:href="#me5c11466fa" y="25.82"/>
     <use style="fill:#1f77b4;stroke:#1f77b4;" x="177.828238" xlink:href="#me5c11466fa" y="25.82"/>
     <use style="fill:#1f77b4;stroke:#1f77b4;" x="191.274021" xlink:href="#me5c11466fa" y="25.82"/>
     <use style="fill:#1f77b4;stroke:#1f77b4;" x="207.408961" xlink:href="#me5c11466fa" y="25.82"/>
     <use style="fill:#1f77b4;stroke:#1f77b4;" x="220.854744" xlink:href="#me5c11466fa" y="25.82"/>
     <use style="fill:#1f77b4;stroke:#1f77b4;" x="236.989684" xlink:href="#me5c11466fa" y="25.82"/>
     <use style="fill:#1f77b4;stroke:#1f77b4;" x="250.435467" xlink:href="#me5c11466fa" y="25.82"/>
     <use style="fill:#1f77b4;stroke:#1f77b4;" x="266.570407" xlink:href="#me5c11466fa" y="25.82"/>
     <use style="fill:#1f77b4;stroke:#1f77b4;" x="282.705346" xlink:href="#me5c11466fa" y="25.82"/>
     <use style="fill:#1f77b4;stroke:#1f77b4;" x="296.15113" xlink:href="#me5c11466fa" y="25.82"/>
     <use style="fill:#1f77b4;stroke:#1f77b4;" x="312.286069" xlink:href="#me5c11466fa" y="25.82"/>
     <use style="fill:#1f77b4;stroke:#1f77b4;" x="328.421009" xlink:href="#me5c11466fa" y="25.82"/>
     <use style="fill:#1f77b4;stroke:#1f77b4;" x="341.866792" xlink:href="#me5c11466fa" y="25.82"/>
     <use style="fill:#1f77b4;stroke:#1f77b4;" x="358.001732" xlink:href="#me5c11466fa" y="25.82"/>
     <use style="fill:#1f77b4;stroke:#1f77b4;" x="374.136672" xlink:href="#me5c11466fa" y="25.82"/>
     <use style="fill:#1f77b4;stroke:#1f77b4;" x="387.582455" xlink:href="#me5c11466fa" y="25.82"/>
     <use style="fill:#1f77b4;stroke:#1f77b4;" x="403.717395" xlink:href="#me5c11466fa" y="25.82"/>
     <use style="fill:#1f77b4;stroke:#1f77b4;" x="419.852334" xlink:href="#me5c11466fa" y="25.82"/>
     <use style="fill:#1f77b4;stroke:#1f77b4;" x="433.298117" xlink:href="#me5c11466fa" y="25.82"/>
     <use style="fill:#1f77b4;stroke:#1f77b4;" x="449.433057" xlink:href="#me5c11466fa" y="25.82"/>
     <use style="fill:#1f77b4;stroke:#1f77b4;" x="462.87884" xlink:href="#me5c11466fa" y="25.82"/>
    </g>
   </g>
   <g id="line2d_30">
    <path clip-path="url(#p7a8f8c9f08)" d="M 56.81619 177.02 
L 59.505346 177.02 
L 62.194503 161.9 
L 64.88366 161.9 
L 67.572816 146.78 
L 70.261973 146.78 
L 72.95113 161.9 
L 75.640286 146.78 
L 78.329443 146.78 
L 81.018599 161.9 
L 83.707756 146.78 
L 113.288479 146.78 
L 115.977636 161.9 
L 118.666792 146.78 
L 121.355949 146.78 
L 124.045105 161.9 
L 126.734262 146.78 
L 129.423419 146.78 
L 132.112575 161.9 
L 134.801732 146.78 
L 140.180045 146.78 
L 142.869202 161.9 
L 145.558358 146.78 
L 148.247515 146.78 
L 150.936672 161.9 
L 153.625828 146.78 
L 175.139081 146.78 
L 177.828238 161.9 
L 180.517395 146.78 
L 183.206551 146.78 
L 185.895708 161.9 
L 188.584864 146.78 
L 191.274021 146.78 
L 193.963178 161.9 
L 196.652334 146.78 
L 199.341491 146.78 
L 202.030648 161.9 
L 204.719804 146.78 
L 207.408961 146.78 
L 210.098117 161.9 
L 212.787274 146.78 
L 215.476431 146.78 
L 218.165587 161.9 
L 220.854744 146.78 
L 223.543901 146.78 
L 226.233057 161.9 
L 228.922214 146.78 
L 231.61137 146.78 
L 234.300527 161.9 
L 236.989684 146.78 
L 239.67884 146.78 
L 242.367997 161.9 
L 245.057154 146.78 
L 269.259563 146.78 
L 271.94872 161.9 
L 274.637877 146.78 
L 277.327033 146.78 
L 280.01619 161.9 
L 282.705346 146.78 
L 293.461973 146.78 
L 296.15113 161.9 
L 473.635467 161.9 
L 473.635467 161.9 
" style="fill:none;stroke:#ff7f0e;stroke-dasharray:1.5,0;stroke-dashoffset:0;stroke-width:1.5;"/>
    <defs>
     <path d="M 0 3 
C 0.795609 3 1.55874 2.683901 2.12132 2.12132 
C 2.683901 1.55874 3 0.795609 3 0 
C 3 -0.795609 2.683901 -1.55874 2.12132 -2.12132 
C 1.55874 -2.683901 0.795609 -3 0 -3 
C -0.795609 -3 -1.55874 -2.683901 -2.12132 -2.12132 
C -2.683901 -1.55874 -3 -0.795609 -3 0 
C -3 0.795609 -2.683901 1.55874 -2.12132 2.12132 
C -1.55874 2.683901 -0.795609 3 0 3 
z
" id="m8234636be6" style="stroke:#ff7f0e;"/>
    </defs>
    <g clip-path="url(#p7a8f8c9f08)">
     <use style="fill:#ff7f0e;stroke:#ff7f0e;" x="56.81619" xlink:href="#m8234636be6" y="177.02"/>
     <use style="fill:#ff7f0e;stroke:#ff7f0e;" x="70.261973" xlink:href="#m8234636be6" y="146.78"/>
     <use style="fill:#ff7f0e;stroke:#ff7f0e;" x="83.707756" xlink:href="#m8234636be6" y="146.78"/>
     <use style="fill:#ff7f0e;stroke:#ff7f0e;" x="97.153539" xlink:href="#m8234636be6" y="146.78"/>
     <use style="fill:#ff7f0e;stroke:#ff7f0e;" x="110.599322" xlink:href="#m8234636be6" y="146.78"/>
     <use style="fill:#ff7f0e;stroke:#ff7f0e;" x="124.045105" xlink:href="#m8234636be6" y="161.9"/>
     <use style="fill:#ff7f0e;stroke:#ff7f0e;" x="137.490889" xlink:href="#m8234636be6" y="146.78"/>
     <use style="fill:#ff7f0e;stroke:#ff7f0e;" x="150.936672" xlink:href="#m8234636be6" y="161.9"/>
     <use style="fill:#ff7f0e;stroke:#ff7f0e;" x="164.382455" xlink:href="#m8234636be6" y="146.78"/>
     <use style="fill:#ff7f0e;stroke:#ff7f0e;" x="177.828238" xlink:href="#m8234636be6" y="161.9"/>
     <use style="fill:#ff7f0e;stroke:#ff7f0e;" x="191.274021" xlink:href="#m8234636be6" y="146.78"/>
     <use style="fill:#ff7f0e;stroke:#ff7f0e;" x="204.719804" xlink:href="#m8234636be6" y="146.78"/>
     <use style="fill:#ff7f0e;stroke:#ff7f0e;" x="218.165587" xlink:href="#m8234636be6" y="161.9"/>
     <use style="fill:#ff7f0e;stroke:#ff7f0e;" x="231.61137" xlink:href="#m8234636be6" y="146.78"/>
     <use style="fill:#ff7f0e;stroke:#ff7f0e;" x="245.057154" xlink:href="#m8234636be6" y="146.78"/>
     <use style="fill:#ff7f0e;stroke:#ff7f0e;" x="258.502937" xlink:href="#m8234636be6" y="146.78"/>
     <use style="fill:#ff7f0e;stroke:#ff7f0e;" x="271.94872" xlink:href="#m8234636be6" y="161.9"/>
     <use style="fill:#ff7f0e;stroke:#ff7f0e;" x="285.394503" xlink:href="#m8234636be6" y="146.78"/>
     <use style="fill:#ff7f0e;stroke:#ff7f0e;" x="298.840286" xlink:href="#m8234636be6" y="161.9"/>
     <use style="fill:#ff7f0e;stroke:#ff7f0e;" x="312.286069" xlink:href="#m8234636be6" y="161.9"/>
     <use style="fill:#ff7f0e;stroke:#ff7f0e;" x="325.731852" xlink:href="#m8234636be6" y="161.9"/>
     <use style="fill:#ff7f0e;stroke:#ff7f0e;" x="339.177636" xlink:href="#m8234636be6" y="161.9"/>
     <use style="fill:#ff7f0e;stroke:#ff7f0e;" x="352.623419" xlink:href="#m8234636be6" y="161.9"/>
     <use style="fill:#ff7f0e;stroke:#ff7f0e;" x="366.069202" xlink:href="#m8234636be6" y="161.9"/>
     <use style="fill:#ff7f0e;stroke:#ff7f0e;" x="379.514985" xlink:href="#m8234636be6" y="161.9"/>
     <use style="fill:#ff7f0e;stroke:#ff7f0e;" x="392.960768" xlink:href="#m8234636be6" y="161.9"/>
     <use style="fill:#ff7f0e;stroke:#ff7f0e;" x="406.406551" xlink:href="#m8234636be6" y="161.9"/>
     <use style="fill:#ff7f0e;stroke:#ff7f0e;" x="419.852334" xlink:href="#m8234636be6" y="161.9"/>
     <use style="fill:#ff7f0e;stroke:#ff7f0e;" x="433.298117" xlink:href="#m8234636be6" y="161.9"/>
     <use style="fill:#ff7f0e;stroke:#ff7f0e;" x="446.743901" xlink:href="#m8234636be6" y="161.9"/>
     <use style="fill:#ff7f0e;stroke:#ff7f0e;" x="460.189684" xlink:href="#m8234636be6" y="161.9"/>
     <use style="fill:#ff7f0e;stroke:#ff7f0e;" x="473.635467" xlink:href="#m8234636be6" y="161.9"/>
    </g>
   </g>
   <g id="line2d_31">
    <path clip-path="url(#p7a8f8c9f08)" d="M 56.81619 161.9 
L 473.635467 161.9 
L 473.635467 161.9 
" style="fill:none;stroke:#2ca02c;stroke-dasharray:7.5,10.5;stroke-dashoffset:0;stroke-width:1.5;"/>
    <defs>
     <path d="M -0 3 
L 3 -3 
L -3 -3 
z
" id="m43659fa42c" style="stroke:#2ca02c;stroke-linejoin:miter;"/>
    </defs>
    <g clip-path="url(#p7a8f8c9f08)">
     <use style="fill:#2ca02c;stroke:#2ca02c;stroke-linejoin:miter;" x="56.81619" xlink:href="#m43659fa42c" y="161.9"/>
     <use style="fill:#2ca02c;stroke:#2ca02c;stroke-linejoin:miter;" x="72.95113" xlink:href="#m43659fa42c" y="161.9"/>
     <use style="fill:#2ca02c;stroke:#2ca02c;stroke-linejoin:miter;" x="86.396913" xlink:href="#m43659fa42c" y="161.9"/>
     <use style="fill:#2ca02c;stroke:#2ca02c;stroke-linejoin:miter;" x="102.531852" xlink:href="#m43659fa42c" y="161.9"/>
     <use style="fill:#2ca02c;stroke:#2ca02c;stroke-linejoin:miter;" x="118.666792" xlink:href="#m43659fa42c" y="161.9"/>
     <use style="fill:#2ca02c;stroke:#2ca02c;stroke-linejoin:miter;" x="132.112575" xlink:href="#m43659fa42c" y="161.9"/>
     <use style="fill:#2ca02c;stroke:#2ca02c;stroke-linejoin:miter;" x="148.247515" xlink:href="#m43659fa42c" y="161.9"/>
     <use style="fill:#2ca02c;stroke:#2ca02c;stroke-linejoin:miter;" x="161.693298" xlink:href="#m43659fa42c" y="161.9"/>
     <use style="fill:#2ca02c;stroke:#2ca02c;stroke-linejoin:miter;" x="177.828238" xlink:href="#m43659fa42c" y="161.9"/>
     <use style="fill:#2ca02c;stroke:#2ca02c;stroke-linejoin:miter;" x="191.274021" xlink:href="#m43659fa42c" y="161.9"/>
     <use style="fill:#2ca02c;stroke:#2ca02c;stroke-linejoin:miter;" x="207.408961" xlink:href="#m43659fa42c" y="161.9"/>
     <use style="fill:#2ca02c;stroke:#2ca02c;stroke-linejoin:miter;" x="220.854744" xlink:href="#m43659fa42c" y="161.9"/>
     <use style="fill:#2ca02c;stroke:#2ca02c;stroke-linejoin:miter;" x="236.989684" xlink:href="#m43659fa42c" y="161.9"/>
     <use style="fill:#2ca02c;stroke:#2ca02c;stroke-linejoin:miter;" x="250.435467" xlink:href="#m43659fa42c" y="161.9"/>
     <use style="fill:#2ca02c;stroke:#2ca02c;stroke-linejoin:miter;" x="266.570407" xlink:href="#m43659fa42c" y="161.9"/>
     <use style="fill:#2ca02c;stroke:#2ca02c;stroke-linejoin:miter;" x="282.705346" xlink:href="#m43659fa42c" y="161.9"/>
     <use style="fill:#2ca02c;stroke:#2ca02c;stroke-linejoin:miter;" x="296.15113" xlink:href="#m43659fa42c" y="161.9"/>
     <use style="fill:#2ca02c;stroke:#2ca02c;stroke-linejoin:miter;" x="312.286069" xlink:href="#m43659fa42c" y="161.9"/>
     <use style="fill:#2ca02c;stroke:#2ca02c;stroke-linejoin:miter;" x="328.421009" xlink:href="#m43659fa42c" y="161.9"/>
     <use style="fill:#2ca02c;stroke:#2ca02c;stroke-linejoin:miter;" x="341.866792" xlink:href="#m43659fa42c" y="161.9"/>
     <use style="fill:#2ca02c;stroke:#2ca02c;stroke-linejoin:miter;" x="358.001732" xlink:href="#m43659fa42c" y="161.9"/>
     <use style="fill:#2ca02c;stroke:#2ca02c;stroke-linejoin:miter;" x="374.136672" xlink:href="#m43659fa42c" y="161.9"/>
     <use style="fill:#2ca02c;stroke:#2ca02c;stroke-linejoin:miter;" x="387.582455" xlink:href="#m43659fa42c" y="161.9"/>
     <use style="fill:#2ca02c;stroke:#2ca02c;stroke-linejoin:miter;" x="403.717395" xlink:href="#m43659fa42c" y="161.9"/>
     <use style="fill:#2ca02c;stroke:#2ca02c;stroke-linejoin:miter;" x="419.852334" xlink:href="#m43659fa42c" y="161.9"/>
     <use style="fill:#2ca02c;stroke:#2ca02c;stroke-linejoin:miter;" x="433.298117" xlink:href="#m43659fa42c" y="161.9"/>
     <use style="fill:#2ca02c;stroke:#2ca02c;stroke-linejoin:miter;" x="449.433057" xlink:href="#m43659fa42c" y="161.9"/>
     <use style="fill:#2ca02c;stroke:#2ca02c;stroke-linejoin:miter;" x="462.87884" xlink:href="#m43659fa42c" y="161.9"/>
    </g>
   </g>
   <g id="line2d_32">
    <path clip-path="url(#p7a8f8c9f08)" d="M 56.81619 116.54 
L 473.635467 116.54 
L 473.635467 116.54 
" style="fill:none;stroke:#d62728;stroke-dasharray:7.5,10.5;stroke-dashoffset:0;stroke-width:1.5;"/>
    <defs>
     <path d="M 0 -3 
L -3 3 
L 3 3 
z
" id="m97f0e81edb" style="stroke:#d62728;stroke-linejoin:miter;"/>
    </defs>
    <g clip-path="url(#p7a8f8c9f08)">
     <use style="fill:#d62728;stroke:#d62728;stroke-linejoin:miter;" x="56.81619" xlink:href="#m97f0e81edb" y="116.54"/>
     <use style="fill:#d62728;stroke:#d62728;stroke-linejoin:miter;" x="72.95113" xlink:href="#m97f0e81edb" y="116.54"/>
     <use style="fill:#d62728;stroke:#d62728;stroke-linejoin:miter;" x="86.396913" xlink:href="#m97f0e81edb" y="116.54"/>
     <use style="fill:#d62728;stroke:#d62728;stroke-linejoin:miter;" x="102.531852" xlink:href="#m97f0e81edb" y="116.54"/>
     <use style="fill:#d62728;stroke:#d62728;stroke-linejoin:miter;" x="118.666792" xlink:href="#m97f0e81edb" y="116.54"/>
     <use style="fill:#d62728;stroke:#d62728;stroke-linejoin:miter;" x="132.112575" xlink:href="#m97f0e81edb" y="116.54"/>
     <use style="fill:#d62728;stroke:#d62728;stroke-linejoin:miter;" x="148.247515" xlink:href="#m97f0e81edb" y="116.54"/>
     <use style="fill:#d62728;stroke:#d62728;stroke-linejoin:miter;" x="161.693298" xlink:href="#m97f0e81edb" y="116.54"/>
     <use style="fill:#d62728;stroke:#d62728;stroke-linejoin:miter;" x="177.828238" xlink:href="#m97f0e81edb" y="116.54"/>
     <use style="fill:#d62728;stroke:#d62728;stroke-linejoin:miter;" x="191.274021" xlink:href="#m97f0e81edb" y="116.54"/>
     <use style="fill:#d62728;stroke:#d62728;stroke-linejoin:miter;" x="207.408961" xlink:href="#m97f0e81edb" y="116.54"/>
     <use style="fill:#d62728;stroke:#d62728;stroke-linejoin:miter;" x="220.854744" xlink:href="#m97f0e81edb" y="116.54"/>
     <use style="fill:#d62728;stroke:#d62728;stroke-linejoin:miter;" x="236.989684" xlink:href="#m97f0e81edb" y="116.54"/>
     <use style="fill:#d62728;stroke:#d62728;stroke-linejoin:miter;" x="250.435467" xlink:href="#m97f0e81edb" y="116.54"/>
     <use style="fill:#d62728;stroke:#d62728;stroke-linejoin:miter;" x="266.570407" xlink:href="#m97f0e81edb" y="116.54"/>
     <use style="fill:#d62728;stroke:#d62728;stroke-linejoin:miter;" x="282.705346" xlink:href="#m97f0e81edb" y="116.54"/>
     <use style="fill:#d62728;stroke:#d62728;stroke-linejoin:miter;" x="296.15113" xlink:href="#m97f0e81edb" y="116.54"/>
     <use style="fill:#d62728;stroke:#d62728;stroke-linejoin:miter;" x="312.286069" xlink:href="#m97f0e81edb" y="116.54"/>
     <use style="fill:#d62728;stroke:#d62728;stroke-linejoin:miter;" x="328.421009" xlink:href="#m97f0e81edb" y="116.54"/>
     <use style="fill:#d62728;stroke:#d62728;stroke-linejoin:miter;" x="341.866792" xlink:href="#m97f0e81edb" y="116.54"/>
     <use style="fill:#d62728;stroke:#d62728;stroke-linejoin:miter;" x="358.001732" xlink:href="#m97f0e81edb" y="116.54"/>
     <use style="fill:#d62728;stroke:#d62728;stroke-linejoin:miter;" x="374.136672" xlink:href="#m97f0e81edb" y="116.54"/>
     <use style="fill:#d62728;stroke:#d62728;stroke-linejoin:miter;" x="387.582455" xlink:href="#m97f0e81edb" y="116.54"/>
     <use style="fill:#d62728;stroke:#d62728;stroke-linejoin:miter;" x="403.717395" xlink:href="#m97f0e81edb" y="116.54"/>
     <use style="fill:#d62728;stroke:#d62728;stroke-linejoin:miter;" x="419.852334" xlink:href="#m97f0e81edb" y="116.54"/>
     <use style="fill:#d62728;stroke:#d62728;stroke-linejoin:miter;" x="433.298117" xlink:href="#m97f0e81edb" y="116.54"/>
     <use style="fill:#d62728;stroke:#d62728;stroke-linejoin:miter;" x="449.433057" xlink:href="#m97f0e81edb" y="116.54"/>
     <use style="fill:#d62728;stroke:#d62728;stroke-linejoin:miter;" x="462.87884" xlink:href="#m97f0e81edb" y="116.54"/>
    </g>
   </g>
   <g id="patch_3">
    <path d="M 40.68125 177.02 
L 40.68125 10.7 
" style="fill:none;stroke:#000000;stroke-linecap:square;stroke-linejoin:miter;stroke-width:0.8;"/>
   </g>
   <g id="patch_4">
    <path d="M 487.08125 177.02 
L 487.08125 10.7 
" style="fill:none;stroke:#000000;stroke-linecap:square;stroke-linejoin:miter;stroke-width:0.8;"/>
   </g>
   <g id="patch_5">
    <path d="M 40.68125 177.02 
L 487.08125 177.02 
" style="fill:none;stroke:#000000;stroke-linecap:square;stroke-linejoin:miter;stroke-width:0.8;"/>
   </g>
   <g id="patch_6">
    <path d="M 40.68125 10.7 
L 487.08125 10.7 
" style="fill:none;stroke:#000000;stroke-linecap:square;stroke-linejoin:miter;stroke-width:0.8;"/>
   </g>
   <g id="legend_1">
    <g id="patch_7">
     <path d="M 408.401797 66.271513 
L 481.25025 66.271513 
Q 482.91625 66.271513 482.91625 64.605513 
L 482.91625 16.531 
Q 482.91625 14.865 481.25025 14.865 
L 408.401797 14.865 
Q 406.735797 14.865 406.735797 16.531 
L 406.735797 64.605513 
Q 406.735797 66.271513 408.401797 66.271513 
z
" style="fill:#afeeee;opacity:0.8;stroke:#cccccc;stroke-linejoin:miter;"/>
    </g>
    <g id="line2d_33">
     <path d="M 410.067797 21.610998 
L 426.727797 21.610998 
" style="fill:none;stroke:#1f77b4;stroke-dasharray:1.5,0;stroke-dashoffset:0;stroke-width:1.5;"/>
    </g>
    <g id="line2d_34">
     <g>
      <use style="fill:#1f77b4;stroke:#1f77b4;" x="418.397797" xlink:href="#me5c11466fa" y="21.610998"/>
     </g>
    </g>
    <g id="text_17">
     <!-- Allocated -->
     <defs>
      <path d="M 34.1875 63.1875 
L 20.796875 26.90625 
L 47.609375 26.90625 
z
M 28.609375 72.90625 
L 39.796875 72.90625 
L 67.578125 0 
L 57.328125 0 
L 50.6875 18.703125 
L 17.828125 18.703125 
L 11.1875 0 
L 0.78125 0 
z
" id="DejaVuSans-65"/>
      <path d="M 9.421875 75.984375 
L 18.40625 75.984375 
L 18.40625 0 
L 9.421875 0 
z
" id="DejaVuSans-108"/>
      <path d="M 30.609375 48.390625 
Q 23.390625 48.390625 19.1875 42.75 
Q 14.984375 37.109375 14.984375 27.296875 
Q 14.984375 17.484375 19.15625 11.84375 
Q 23.34375 6.203125 30.609375 6.203125 
Q 37.796875 6.203125 41.984375 11.859375 
Q 46.1875 17.53125 46.1875 27.296875 
Q 46.1875 37.015625 41.984375 42.703125 
Q 37.796875 48.390625 30.609375 48.390625 
z
M 30.609375 56 
Q 42.328125 56 49.015625 48.375 
Q 55.71875 40.765625 55.71875 27.296875 
Q 55.71875 13.875 49.015625 6.21875 
Q 42.328125 -1.421875 30.609375 -1.421875 
Q 18.84375 -1.421875 12.171875 6.21875 
Q 5.515625 13.875 5.515625 27.296875 
Q 5.515625 40.765625 12.171875 48.375 
Q 18.84375 56 30.609375 56 
z
" id="DejaVuSans-111"/>
      <path d="M 48.78125 52.59375 
L 48.78125 44.1875 
Q 44.96875 46.296875 41.140625 47.34375 
Q 37.3125 48.390625 33.40625 48.390625 
Q 24.65625 48.390625 19.8125 42.84375 
Q 14.984375 37.3125 14.984375 27.296875 
Q 14.984375 17.28125 19.8125 11.734375 
Q 24.65625 6.203125 33.40625 6.203125 
Q 37.3125 6.203125 41.140625 7.25 
Q 44.96875 8.296875 48.78125 10.40625 
L 48.78125 2.09375 
Q 45.015625 0.34375 40.984375 -0.53125 
Q 36.96875 -1.421875 32.421875 -1.421875 
Q 20.0625 -1.421875 12.78125 6.34375 
Q 5.515625 14.109375 5.515625 27.296875 
Q 5.515625 40.671875 12.859375 48.328125 
Q 20.21875 56 33.015625 56 
Q 37.15625 56 41.109375 55.140625 
Q 45.0625 54.296875 48.78125 52.59375 
z
" id="DejaVuSans-99"/>
      <path d="M 34.28125 27.484375 
Q 23.390625 27.484375 19.1875 25 
Q 14.984375 22.515625 14.984375 16.5 
Q 14.984375 11.71875 18.140625 8.90625 
Q 21.296875 6.109375 26.703125 6.109375 
Q 34.1875 6.109375 38.703125 11.40625 
Q 43.21875 16.703125 43.21875 25.484375 
L 43.21875 27.484375 
z
M 52.203125 31.203125 
L 52.203125 0 
L 43.21875 0 
L 43.21875 8.296875 
Q 40.140625 3.328125 35.546875 0.953125 
Q 30.953125 -1.421875 24.3125 -1.421875 
Q 15.921875 -1.421875 10.953125 3.296875 
Q 6 8.015625 6 15.921875 
Q 6 25.140625 12.171875 29.828125 
Q 18.359375 34.515625 30.609375 34.515625 
L 43.21875 34.515625 
L 43.21875 35.40625 
Q 43.21875 41.609375 39.140625 45 
Q 35.0625 48.390625 27.6875 48.390625 
Q 23 48.390625 18.546875 47.265625 
Q 14.109375 46.140625 10.015625 43.890625 
L 10.015625 52.203125 
Q 14.9375 54.109375 19.578125 55.046875 
Q 24.21875 56 28.609375 56 
Q 40.484375 56 46.34375 49.84375 
Q 52.203125 43.703125 52.203125 31.203125 
z
" id="DejaVuSans-97"/>
      <path d="M 18.3125 70.21875 
L 18.3125 54.6875 
L 36.8125 54.6875 
L 36.8125 47.703125 
L 18.3125 47.703125 
L 18.3125 18.015625 
Q 18.3125 11.328125 20.140625 9.421875 
Q 21.96875 7.515625 27.59375 7.515625 
L 36.8125 7.515625 
L 36.8125 0 
L 27.59375 0 
Q 17.1875 0 13.234375 3.875 
Q 9.28125 7.765625 9.28125 18.015625 
L 9.28125 47.703125 
L 2.6875 47.703125 
L 2.6875 54.6875 
L 9.28125 54.6875 
L 9.28125 70.21875 
z
" id="DejaVuSans-116"/>
      <path d="M 45.40625 46.390625 
L 45.40625 75.984375 
L 54.390625 75.984375 
L 54.390625 0 
L 45.40625 0 
L 45.40625 8.203125 
Q 42.578125 3.328125 38.25 0.953125 
Q 33.9375 -1.421875 27.875 -1.421875 
Q 17.96875 -1.421875 11.734375 6.484375 
Q 5.515625 14.40625 5.515625 27.296875 
Q 5.515625 40.1875 11.734375 48.09375 
Q 17.96875 56 27.875 56 
Q 33.9375 56 38.25 53.625 
Q 42.578125 51.265625 45.40625 46.390625 
z
M 14.796875 27.296875 
Q 14.796875 17.390625 18.875 11.75 
Q 22.953125 6.109375 30.078125 6.109375 
Q 37.203125 6.109375 41.296875 11.75 
Q 45.40625 17.390625 45.40625 27.296875 
Q 45.40625 37.203125 41.296875 42.84375 
Q 37.203125 48.484375 30.078125 48.484375 
Q 22.953125 48.484375 18.875 42.84375 
Q 14.796875 37.203125 14.796875 27.296875 
z
" id="DejaVuSans-100"/>
     </defs>
     <g transform="translate(433.391797 24.526498)scale(0.0833 -0.0833)">
      <use xlink:href="#DejaVuSans-65"/>
      <use x="68.408203" xlink:href="#DejaVuSans-108"/>
      <use x="96.191406" xlink:href="#DejaVuSans-108"/>
      <use x="123.974609" xlink:href="#DejaVuSans-111"/>
      <use x="185.15625" xlink:href="#DejaVuSans-99"/>
      <use x="240.136719" xlink:href="#DejaVuSans-97"/>
      <use x="301.416016" xlink:href="#DejaVuSans-116"/>
      <use x="340.625" xlink:href="#DejaVuSans-101"/>
      <use x="402.148438" xlink:href="#DejaVuSans-100"/>
     </g>
    </g>
    <g id="line2d_35">
     <path d="M 410.067797 33.837877 
L 426.727797 33.837877 
" style="fill:none;stroke:#ff7f0e;stroke-dasharray:1.5,0;stroke-dashoffset:0;stroke-width:1.5;"/>
    </g>
    <g id="line2d_36">
     <g>
      <use style="fill:#ff7f0e;stroke:#ff7f0e;" x="418.397797" xlink:href="#m8234636be6" y="33.837877"/>
     </g>
    </g>
    <g id="text_18">
     <!-- Used -->
     <defs>
      <path d="M 8.6875 72.90625 
L 18.609375 72.90625 
L 18.609375 28.609375 
Q 18.609375 16.890625 22.84375 11.734375 
Q 27.09375 6.59375 36.625 6.59375 
Q 46.09375 6.59375 50.34375 11.734375 
Q 54.59375 16.890625 54.59375 28.609375 
L 54.59375 72.90625 
L 64.5 72.90625 
L 64.5 27.390625 
Q 64.5 13.140625 57.4375 5.859375 
Q 50.390625 -1.421875 36.625 -1.421875 
Q 22.796875 -1.421875 15.734375 5.859375 
Q 8.6875 13.140625 8.6875 27.390625 
z
" id="DejaVuSans-85"/>
     </defs>
     <g transform="translate(433.391797 36.753377)scale(0.0833 -0.0833)">
      <use xlink:href="#DejaVuSans-85"/>
      <use x="73.193359" xlink:href="#DejaVuSans-115"/>
      <use x="125.292969" xlink:href="#DejaVuSans-101"/>
      <use x="186.816406" xlink:href="#DejaVuSans-100"/>
     </g>
    </g>
    <g id="line2d_37">
     <path d="M 410.067797 46.064755 
L 426.727797 46.064755 
" style="fill:none;stroke:#2ca02c;stroke-dasharray:7.5,10.5;stroke-dashoffset:0;stroke-width:1.5;"/>
    </g>
    <g id="line2d_38">
     <g>
      <use style="fill:#2ca02c;stroke:#2ca02c;stroke-linejoin:miter;" x="418.397797" xlink:href="#m43659fa42c" y="46.064755"/>
     </g>
    </g>
    <g id="text_19">
     <!-- Lower limit -->
     <defs>
      <path d="M 9.8125 72.90625 
L 19.671875 72.90625 
L 19.671875 8.296875 
L 55.171875 8.296875 
L 55.171875 0 
L 9.8125 0 
z
" id="DejaVuSans-76"/>
      <path d="M 4.203125 54.6875 
L 13.1875 54.6875 
L 24.421875 12.015625 
L 35.59375 54.6875 
L 46.1875 54.6875 
L 57.421875 12.015625 
L 68.609375 54.6875 
L 77.59375 54.6875 
L 63.28125 0 
L 52.6875 0 
L 40.921875 44.828125 
L 29.109375 0 
L 18.5 0 
z
" id="DejaVuSans-119"/>
      <path d="M 41.109375 46.296875 
Q 39.59375 47.171875 37.8125 47.578125 
Q 36.03125 48 33.890625 48 
Q 26.265625 48 22.1875 43.046875 
Q 18.109375 38.09375 18.109375 28.8125 
L 18.109375 0 
L 9.078125 0 
L 9.078125 54.6875 
L 18.109375 54.6875 
L 18.109375 46.1875 
Q 20.953125 51.171875 25.484375 53.578125 
Q 30.03125 56 36.53125 56 
Q 37.453125 56 38.578125 55.875 
Q 39.703125 55.765625 41.0625 55.515625 
z
" id="DejaVuSans-114"/>
     </defs>
     <g transform="translate(433.391797 48.980255)scale(0.0833 -0.0833)">
      <use xlink:href="#DejaVuSans-76"/>
      <use x="55.697266" xlink:href="#DejaVuSans-111"/>
      <use x="116.878906" xlink:href="#DejaVuSans-119"/>
      <use x="198.666016" xlink:href="#DejaVuSans-101"/>
      <use x="260.189453" xlink:href="#DejaVuSans-114"/>
      <use x="301.302734" xlink:href="#DejaVuSans-32"/>
      <use x="333.089844" xlink:href="#DejaVuSans-108"/>
      <use x="360.873047" xlink:href="#DejaVuSans-105"/>
      <use x="388.65625" xlink:href="#DejaVuSans-109"/>
      <use x="486.068359" xlink:href="#DejaVuSans-105"/>
      <use x="513.851562" xlink:href="#DejaVuSans-116"/>
     </g>
    </g>
    <g id="line2d_39">
     <path d="M 410.067797 58.291633 
L 426.727797 58.291633 
" style="fill:none;stroke:#d62728;stroke-dasharray:7.5,10.5;stroke-dashoffset:0;stroke-width:1.5;"/>
    </g>
    <g id="line2d_40">
     <g>
      <use style="fill:#d62728;stroke:#d62728;stroke-linejoin:miter;" x="418.397797" xlink:href="#m97f0e81edb" y="58.291633"/>
     </g>
    </g>
    <g id="text_20">
     <!-- Upper limit -->
     <defs>
      <path d="M 18.109375 8.203125 
L 18.109375 -20.796875 
L 9.078125 -20.796875 
L 9.078125 54.6875 
L 18.109375 54.6875 
L 18.109375 46.390625 
Q 20.953125 51.265625 25.265625 53.625 
Q 29.59375 56 35.59375 56 
Q 45.5625 56 51.78125 48.09375 
Q 58.015625 40.1875 58.015625 27.296875 
Q 58.015625 14.40625 51.78125 6.484375 
Q 45.5625 -1.421875 35.59375 -1.421875 
Q 29.59375 -1.421875 25.265625 0.953125 
Q 20.953125 3.328125 18.109375 8.203125 
z
M 48.6875 27.296875 
Q 48.6875 37.203125 44.609375 42.84375 
Q 40.53125 48.484375 33.40625 48.484375 
Q 26.265625 48.484375 22.1875 42.84375 
Q 18.109375 37.203125 18.109375 27.296875 
Q 18.109375 17.390625 22.1875 11.75 
Q 26.265625 6.109375 33.40625 6.109375 
Q 40.53125 6.109375 44.609375 11.75 
Q 48.6875 17.390625 48.6875 27.296875 
z
" id="DejaVuSans-112"/>
     </defs>
     <g transform="translate(433.391797 61.207133)scale(0.0833 -0.0833)">
      <use xlink:href="#DejaVuSans-85"/>
      <use x="73.193359" xlink:href="#DejaVuSans-112"/>
      <use x="136.669922" xlink:href="#DejaVuSans-112"/>
      <use x="200.146484" xlink:href="#DejaVuSans-101"/>
      <use x="261.669922" xlink:href="#DejaVuSans-114"/>
      <use x="302.783203" xlink:href="#DejaVuSans-32"/>
      <use x="334.570312" xlink:href="#DejaVuSans-108"/>
      <use x="362.353516" xlink:href="#DejaVuSans-105"/>
      <use x="390.136719" xlink:href="#DejaVuSans-109"/>
      <use x="487.548828" xlink:href="#DejaVuSans-105"/>
      <use x="515.332031" xlink:href="#DejaVuSans-116"/>
     </g>
    </g>
   </g>
  </g>
 </g>
 <defs>
  <clipPath id="p7a8f8c9f08">
   <rect height="166.32" width="446.4" x="40.68125" y="10.7"/>
  </clipPath>
 </defs>
</svg>
