<?xml version="1.0" encoding="utf-8" standalone="no"?>
<!DOCTYPE svg PUBLIC "-//W3C//DTD SVG 1.1//EN"
  "http://www.w3.org/Graphics/SVG/1.1/DTD/svg11.dtd">
<!-- Created with matplotlib (https://matplotlib.org/) -->
<svg height="214.57625pt" version="1.1" viewBox="0 0 504.065625 214.57625" width="504.065625pt" xmlns="http://www.w3.org/2000/svg" xmlns:xlink="http://www.w3.org/1999/xlink">
 <defs>
  <style type="text/css">
*{stroke-linecap:butt;stroke-linejoin:round;}
  </style>
 </defs>
 <g id="figure_1">
  <g id="patch_1">
   <path d="M 0 214.57625 
L 504.065625 214.57625 
L 504.065625 0 
L 0 0 
z
" style="fill:#ffffff;"/>
  </g>
  <g id="axes_1">
   <g id="patch_2">
    <path d="M 46.965625 177.02 
L 493.365625 177.02 
L 493.365625 10.7 
L 46.965625 10.7 
z
" style="fill:#ffffff;"/>
   </g>
   <g id="matplotlib.axis_1">
    <g id="xtick_1">
     <g id="line2d_1">
      <path clip-path="url(#p383426e6a6)" d="M 63.100565 177.02 
L 63.100565 10.7 
" style="fill:none;stroke:#b0b0b0;stroke-linecap:square;stroke-width:0.8;"/>
     </g>
     <g id="line2d_2">
      <defs>
       <path d="M 0 0 
L 0 3.5 
" id="m2b17d09d2b" style="stroke:#000000;stroke-width:0.8;"/>
      </defs>
      <g>
       <use style="stroke:#000000;stroke-width:0.8;" x="63.100565" xlink:href="#m2b17d09d2b" y="177.02"/>
      </g>
     </g>
     <g id="text_1">
      <!-- 0 -->
      <defs>
       <path d="M 31.78125 66.40625 
Q 24.171875 66.40625 20.328125 58.90625 
Q 16.5 51.421875 16.5 36.375 
Q 16.5 21.390625 20.328125 13.890625 
Q 24.171875 6.390625 31.78125 6.390625 
Q 39.453125 6.390625 43.28125 13.890625 
Q 47.125 21.390625 47.125 36.375 
Q 47.125 51.421875 43.28125 58.90625 
Q 39.453125 66.40625 31.78125 66.40625 
z
M 31.78125 74.21875 
Q 44.046875 74.21875 50.515625 64.515625 
Q 56.984375 54.828125 56.984375 36.375 
Q 56.984375 17.96875 50.515625 8.265625 
Q 44.046875 -1.421875 31.78125 -1.421875 
Q 19.53125 -1.421875 13.0625 8.265625 
Q 6.59375 17.96875 6.59375 36.375 
Q 6.59375 54.828125 13.0625 64.515625 
Q 19.53125 74.21875 31.78125 74.21875 
z
" id="DejaVuSans-48"/>
      </defs>
      <g transform="translate(59.919315 191.618438)scale(0.1 -0.1)">
       <use xlink:href="#DejaVuSans-48"/>
      </g>
     </g>
    </g>
    <g id="xtick_2">
     <g id="line2d_3">
      <path clip-path="url(#p383426e6a6)" d="M 116.883697 177.02 
L 116.883697 10.7 
" style="fill:none;stroke:#b0b0b0;stroke-linecap:square;stroke-width:0.8;"/>
     </g>
     <g id="line2d_4">
      <g>
       <use style="stroke:#000000;stroke-width:0.8;" x="116.883697" xlink:href="#m2b17d09d2b" y="177.02"/>
      </g>
     </g>
     <g id="text_2">
      <!-- 100 -->
      <defs>
       <path d="M 12.40625 8.296875 
L 28.515625 8.296875 
L 28.515625 63.921875 
L 10.984375 60.40625 
L 10.984375 69.390625 
L 28.421875 72.90625 
L 38.28125 72.90625 
L 38.28125 8.296875 
L 54.390625 8.296875 
L 54.390625 0 
L 12.40625 0 
z
" id="DejaVuSans-49"/>
      </defs>
      <g transform="translate(107.339947 191.618438)scale(0.1 -0.1)">
       <use xlink:href="#DejaVuSans-49"/>
       <use x="63.623047" xlink:href="#DejaVuSans-48"/>
       <use x="127.246094" xlink:href="#DejaVuSans-48"/>
      </g>
     </g>
    </g>
    <g id="xtick_3">
     <g id="line2d_5">
      <path clip-path="url(#p383426e6a6)" d="M 170.66683 177.02 
L 170.66683 10.7 
" style="fill:none;stroke:#b0b0b0;stroke-linecap:square;stroke-width:0.8;"/>
     </g>
     <g id="line2d_6">
      <g>
       <use style="stroke:#000000;stroke-width:0.8;" x="170.66683" xlink:href="#m2b17d09d2b" y="177.02"/>
      </g>
     </g>
     <g id="text_3">
      <!-- 200 -->
      <defs>
       <path d="M 19.1875 8.296875 
L 53.609375 8.296875 
L 53.609375 0 
L 7.328125 0 
L 7.328125 8.296875 
Q 12.9375 14.109375 22.625 23.890625 
Q 32.328125 33.6875 34.8125 36.53125 
Q 39.546875 41.84375 41.421875 45.53125 
Q 43.3125 49.21875 43.3125 52.78125 
Q 43.3125 58.59375 39.234375 62.25 
Q 35.15625 65.921875 28.609375 65.921875 
Q 23.96875 65.921875 18.8125 64.3125 
Q 13.671875 62.703125 7.8125 59.421875 
L 7.8125 69.390625 
Q 13.765625 71.78125 18.9375 73 
Q 24.125 74.21875 28.421875 74.21875 
Q 39.75 74.21875 46.484375 68.546875 
Q 53.21875 62.890625 53.21875 53.421875 
Q 53.21875 48.921875 51.53125 44.890625 
Q 49.859375 40.875 45.40625 35.40625 
Q 44.1875 33.984375 37.640625 27.21875 
Q 31.109375 20.453125 19.1875 8.296875 
z
" id="DejaVuSans-50"/>
      </defs>
      <g transform="translate(161.12308 191.618438)scale(0.1 -0.1)">
       <use xlink:href="#DejaVuSans-50"/>
       <use x="63.623047" xlink:href="#DejaVuSans-48"/>
       <use x="127.246094" xlink:href="#DejaVuSans-48"/>
      </g>
     </g>
    </g>
    <g id="xtick_4">
     <g id="line2d_7">
      <path clip-path="url(#p383426e6a6)" d="M 224.449962 177.02 
L 224.449962 10.7 
" style="fill:none;stroke:#b0b0b0;stroke-linecap:square;stroke-width:0.8;"/>
     </g>
     <g id="line2d_8">
      <g>
       <use style="stroke:#000000;stroke-width:0.8;" x="224.449962" xlink:href="#m2b17d09d2b" y="177.02"/>
      </g>
     </g>
     <g id="text_4">
      <!-- 300 -->
      <defs>
       <path d="M 40.578125 39.3125 
Q 47.65625 37.796875 51.625 33 
Q 55.609375 28.21875 55.609375 21.1875 
Q 55.609375 10.40625 48.1875 4.484375 
Q 40.765625 -1.421875 27.09375 -1.421875 
Q 22.515625 -1.421875 17.65625 -0.515625 
Q 12.796875 0.390625 7.625 2.203125 
L 7.625 11.71875 
Q 11.71875 9.328125 16.59375 8.109375 
Q 21.484375 6.890625 26.8125 6.890625 
Q 36.078125 6.890625 40.9375 10.546875 
Q 45.796875 14.203125 45.796875 21.1875 
Q 45.796875 27.640625 41.28125 31.265625 
Q 36.765625 34.90625 28.71875 34.90625 
L 20.21875 34.90625 
L 20.21875 43.015625 
L 29.109375 43.015625 
Q 36.375 43.015625 40.234375 45.921875 
Q 44.09375 48.828125 44.09375 54.296875 
Q 44.09375 59.90625 40.109375 62.90625 
Q 36.140625 65.921875 28.71875 65.921875 
Q 24.65625 65.921875 20.015625 65.03125 
Q 15.375 64.15625 9.8125 62.3125 
L 9.8125 71.09375 
Q 15.4375 72.65625 20.34375 73.4375 
Q 25.25 74.21875 29.59375 74.21875 
Q 40.828125 74.21875 47.359375 69.109375 
Q 53.90625 64.015625 53.90625 55.328125 
Q 53.90625 49.265625 50.4375 45.09375 
Q 46.96875 40.921875 40.578125 39.3125 
z
" id="DejaVuSans-51"/>
      </defs>
      <g transform="translate(214.906212 191.618438)scale(0.1 -0.1)">
       <use xlink:href="#DejaVuSans-51"/>
       <use x="63.623047" xlink:href="#DejaVuSans-48"/>
       <use x="127.246094" xlink:href="#DejaVuSans-48"/>
      </g>
     </g>
    </g>
    <g id="xtick_5">
     <g id="line2d_9">
      <path clip-path="url(#p383426e6a6)" d="M 278.233095 177.02 
L 278.233095 10.7 
" style="fill:none;stroke:#b0b0b0;stroke-linecap:square;stroke-width:0.8;"/>
     </g>
     <g id="line2d_10">
      <g>
       <use style="stroke:#000000;stroke-width:0.8;" x="278.233095" xlink:href="#m2b17d09d2b" y="177.02"/>
      </g>
     </g>
     <g id="text_5">
      <!-- 400 -->
      <defs>
       <path d="M 37.796875 64.3125 
L 12.890625 25.390625 
L 37.796875 25.390625 
z
M 35.203125 72.90625 
L 47.609375 72.90625 
L 47.609375 25.390625 
L 58.015625 25.390625 
L 58.015625 17.1875 
L 47.609375 17.1875 
L 47.609375 0 
L 37.796875 0 
L 37.796875 17.1875 
L 4.890625 17.1875 
L 4.890625 26.703125 
z
" id="DejaVuSans-52"/>
      </defs>
      <g transform="translate(268.689345 191.618438)scale(0.1 -0.1)">
       <use xlink:href="#DejaVuSans-52"/>
       <use x="63.623047" xlink:href="#DejaVuSans-48"/>
       <use x="127.246094" xlink:href="#DejaVuSans-48"/>
      </g>
     </g>
    </g>
    <g id="xtick_6">
     <g id="line2d_11">
      <path clip-path="url(#p383426e6a6)" d="M 332.016227 177.02 
L 332.016227 10.7 
" style="fill:none;stroke:#b0b0b0;stroke-linecap:square;stroke-width:0.8;"/>
     </g>
     <g id="line2d_12">
      <g>
       <use style="stroke:#000000;stroke-width:0.8;" x="332.016227" xlink:href="#m2b17d09d2b" y="177.02"/>
      </g>
     </g>
     <g id="text_6">
      <!-- 500 -->
      <defs>
       <path d="M 10.796875 72.90625 
L 49.515625 72.90625 
L 49.515625 64.59375 
L 19.828125 64.59375 
L 19.828125 46.734375 
Q 21.96875 47.46875 24.109375 47.828125 
Q 26.265625 48.1875 28.421875 48.1875 
Q 40.625 48.1875 47.75 41.5 
Q 54.890625 34.8125 54.890625 23.390625 
Q 54.890625 11.625 47.5625 5.09375 
Q 40.234375 -1.421875 26.90625 -1.421875 
Q 22.3125 -1.421875 17.546875 -0.640625 
Q 12.796875 0.140625 7.71875 1.703125 
L 7.71875 11.625 
Q 12.109375 9.234375 16.796875 8.0625 
Q 21.484375 6.890625 26.703125 6.890625 
Q 35.15625 6.890625 40.078125 11.328125 
Q 45.015625 15.765625 45.015625 23.390625 
Q 45.015625 31 40.078125 35.4375 
Q 35.15625 39.890625 26.703125 39.890625 
Q 22.75 39.890625 18.8125 39.015625 
Q 14.890625 38.140625 10.796875 36.28125 
z
" id="DejaVuSans-53"/>
      </defs>
      <g transform="translate(322.472477 191.618438)scale(0.1 -0.1)">
       <use xlink:href="#DejaVuSans-53"/>
       <use x="63.623047" xlink:href="#DejaVuSans-48"/>
       <use x="127.246094" xlink:href="#DejaVuSans-48"/>
      </g>
     </g>
    </g>
    <g id="xtick_7">
     <g id="line2d_13">
      <path clip-path="url(#p383426e6a6)" d="M 385.79936 177.02 
L 385.79936 10.7 
" style="fill:none;stroke:#b0b0b0;stroke-linecap:square;stroke-width:0.8;"/>
     </g>
     <g id="line2d_14">
      <g>
       <use style="stroke:#000000;stroke-width:0.8;" x="385.79936" xlink:href="#m2b17d09d2b" y="177.02"/>
      </g>
     </g>
     <g id="text_7">
      <!-- 600 -->
      <defs>
       <path d="M 33.015625 40.375 
Q 26.375 40.375 22.484375 35.828125 
Q 18.609375 31.296875 18.609375 23.390625 
Q 18.609375 15.53125 22.484375 10.953125 
Q 26.375 6.390625 33.015625 6.390625 
Q 39.65625 6.390625 43.53125 10.953125 
Q 47.40625 15.53125 47.40625 23.390625 
Q 47.40625 31.296875 43.53125 35.828125 
Q 39.65625 40.375 33.015625 40.375 
z
M 52.59375 71.296875 
L 52.59375 62.3125 
Q 48.875 64.0625 45.09375 64.984375 
Q 41.3125 65.921875 37.59375 65.921875 
Q 27.828125 65.921875 22.671875 59.328125 
Q 17.53125 52.734375 16.796875 39.40625 
Q 19.671875 43.65625 24.015625 45.921875 
Q 28.375 48.1875 33.59375 48.1875 
Q 44.578125 48.1875 50.953125 41.515625 
Q 57.328125 34.859375 57.328125 23.390625 
Q 57.328125 12.15625 50.6875 5.359375 
Q 44.046875 -1.421875 33.015625 -1.421875 
Q 20.359375 -1.421875 13.671875 8.265625 
Q 6.984375 17.96875 6.984375 36.375 
Q 6.984375 53.65625 15.1875 63.9375 
Q 23.390625 74.21875 37.203125 74.21875 
Q 40.921875 74.21875 44.703125 73.484375 
Q 48.484375 72.75 52.59375 71.296875 
z
" id="DejaVuSans-54"/>
      </defs>
      <g transform="translate(376.25561 191.618438)scale(0.1 -0.1)">
       <use xlink:href="#DejaVuSans-54"/>
       <use x="63.623047" xlink:href="#DejaVuSans-48"/>
       <use x="127.246094" xlink:href="#DejaVuSans-48"/>
      </g>
     </g>
    </g>
    <g id="xtick_8">
     <g id="line2d_15">
      <path clip-path="url(#p383426e6a6)" d="M 439.582492 177.02 
L 439.582492 10.7 
" style="fill:none;stroke:#b0b0b0;stroke-linecap:square;stroke-width:0.8;"/>
     </g>
     <g id="line2d_16">
      <g>
       <use style="stroke:#000000;stroke-width:0.8;" x="439.582492" xlink:href="#m2b17d09d2b" y="177.02"/>
      </g>
     </g>
     <g id="text_8">
      <!-- 700 -->
      <defs>
       <path d="M 8.203125 72.90625 
L 55.078125 72.90625 
L 55.078125 68.703125 
L 28.609375 0 
L 18.3125 0 
L 43.21875 64.59375 
L 8.203125 64.59375 
z
" id="DejaVuSans-55"/>
      </defs>
      <g transform="translate(430.038742 191.618438)scale(0.1 -0.1)">
       <use xlink:href="#DejaVuSans-55"/>
       <use x="63.623047" xlink:href="#DejaVuSans-48"/>
       <use x="127.246094" xlink:href="#DejaVuSans-48"/>
      </g>
     </g>
    </g>
    <g id="text_9">
     <!-- Time (s) -->
     <defs>
      <path d="M -0.296875 72.90625 
L 61.375 72.90625 
L 61.375 64.59375 
L 35.5 64.59375 
L 35.5 0 
L 25.59375 0 
L 25.59375 64.59375 
L -0.296875 64.59375 
z
" id="DejaVuSans-84"/>
      <path d="M 9.421875 54.6875 
L 18.40625 54.6875 
L 18.40625 0 
L 9.421875 0 
z
M 9.421875 75.984375 
L 18.40625 75.984375 
L 18.40625 64.59375 
L 9.421875 64.59375 
z
" id="DejaVuSans-105"/>
      <path d="M 52 44.1875 
Q 55.375 50.25 60.0625 53.125 
Q 64.75 56 71.09375 56 
Q 79.640625 56 84.28125 50.015625 
Q 88.921875 44.046875 88.921875 33.015625 
L 88.921875 0 
L 79.890625 0 
L 79.890625 32.71875 
Q 79.890625 40.578125 77.09375 44.375 
Q 74.3125 48.1875 68.609375 48.1875 
Q 61.625 48.1875 57.5625 43.546875 
Q 53.515625 38.921875 53.515625 30.90625 
L 53.515625 0 
L 44.484375 0 
L 44.484375 32.71875 
Q 44.484375 40.625 41.703125 44.40625 
Q 38.921875 48.1875 33.109375 48.1875 
Q 26.21875 48.1875 22.15625 43.53125 
Q 18.109375 38.875 18.109375 30.90625 
L 18.109375 0 
L 9.078125 0 
L 9.078125 54.6875 
L 18.109375 54.6875 
L 18.109375 46.1875 
Q 21.1875 51.21875 25.484375 53.609375 
Q 29.78125 56 35.6875 56 
Q 41.65625 56 45.828125 52.96875 
Q 50 49.953125 52 44.1875 
z
" id="DejaVuSans-109"/>
      <path d="M 56.203125 29.59375 
L 56.203125 25.203125 
L 14.890625 25.203125 
Q 15.484375 15.921875 20.484375 11.0625 
Q 25.484375 6.203125 34.421875 6.203125 
Q 39.59375 6.203125 44.453125 7.46875 
Q 49.3125 8.734375 54.109375 11.28125 
L 54.109375 2.78125 
Q 49.265625 0.734375 44.1875 -0.34375 
Q 39.109375 -1.421875 33.890625 -1.421875 
Q 20.796875 -1.421875 13.15625 6.1875 
Q 5.515625 13.8125 5.515625 26.8125 
Q 5.515625 40.234375 12.765625 48.109375 
Q 20.015625 56 32.328125 56 
Q 43.359375 56 49.78125 48.890625 
Q 56.203125 41.796875 56.203125 29.59375 
z
M 47.21875 32.234375 
Q 47.125 39.59375 43.09375 43.984375 
Q 39.0625 48.390625 32.421875 48.390625 
Q 24.90625 48.390625 20.390625 44.140625 
Q 15.875 39.890625 15.1875 32.171875 
z
" id="DejaVuSans-101"/>
      <path id="DejaVuSans-32"/>
      <path d="M 31 75.875 
Q 24.46875 64.65625 21.28125 53.65625 
Q 18.109375 42.671875 18.109375 31.390625 
Q 18.109375 20.125 21.3125 9.0625 
Q 24.515625 -2 31 -13.1875 
L 23.1875 -13.1875 
Q 15.875 -1.703125 12.234375 9.375 
Q 8.59375 20.453125 8.59375 31.390625 
Q 8.59375 42.28125 12.203125 53.3125 
Q 15.828125 64.359375 23.1875 75.875 
z
" id="DejaVuSans-40"/>
      <path d="M 44.28125 53.078125 
L 44.28125 44.578125 
Q 40.484375 46.53125 36.375 47.5 
Q 32.28125 48.484375 27.875 48.484375 
Q 21.1875 48.484375 17.84375 46.4375 
Q 14.5 44.390625 14.5 40.28125 
Q 14.5 37.15625 16.890625 35.375 
Q 19.28125 33.59375 26.515625 31.984375 
L 29.59375 31.296875 
Q 39.15625 29.25 43.1875 25.515625 
Q 47.21875 21.78125 47.21875 15.09375 
Q 47.21875 7.46875 41.1875 3.015625 
Q 35.15625 -1.421875 24.609375 -1.421875 
Q 20.21875 -1.421875 15.453125 -0.5625 
Q 10.6875 0.296875 5.421875 2 
L 5.421875 11.28125 
Q 10.40625 8.6875 15.234375 7.390625 
Q 20.0625 6.109375 24.8125 6.109375 
Q 31.15625 6.109375 34.5625 8.28125 
Q 37.984375 10.453125 37.984375 14.40625 
Q 37.984375 18.0625 35.515625 20.015625 
Q 33.0625 21.96875 24.703125 23.78125 
L 21.578125 24.515625 
Q 13.234375 26.265625 9.515625 29.90625 
Q 5.8125 33.546875 5.8125 39.890625 
Q 5.8125 47.609375 11.28125 51.796875 
Q 16.75 56 26.8125 56 
Q 31.78125 56 36.171875 55.265625 
Q 40.578125 54.546875 44.28125 53.078125 
z
" id="DejaVuSans-115"/>
      <path d="M 8.015625 75.875 
L 15.828125 75.875 
Q 23.140625 64.359375 26.78125 53.3125 
Q 30.421875 42.28125 30.421875 31.390625 
Q 30.421875 20.453125 26.78125 9.375 
Q 23.140625 -1.703125 15.828125 -13.1875 
L 8.015625 -13.1875 
Q 14.5 -2 17.703125 9.0625 
Q 20.90625 20.125 20.90625 31.390625 
Q 20.90625 42.671875 17.703125 53.65625 
Q 14.5 64.65625 8.015625 75.875 
z
" id="DejaVuSans-41"/>
     </defs>
     <g transform="translate(249.682812 205.296563)scale(0.1 -0.1)">
      <use xlink:href="#DejaVuSans-84"/>
      <use x="61.037109" xlink:href="#DejaVuSans-105"/>
      <use x="88.820312" xlink:href="#DejaVuSans-109"/>
      <use x="186.232422" xlink:href="#DejaVuSans-101"/>
      <use x="247.755859" xlink:href="#DejaVuSans-32"/>
      <use x="279.542969" xlink:href="#DejaVuSans-40"/>
      <use x="318.556641" xlink:href="#DejaVuSans-115"/>
      <use x="370.65625" xlink:href="#DejaVuSans-41"/>
     </g>
    </g>
   </g>
   <g id="matplotlib.axis_2">
    <g id="ytick_1">
     <g id="line2d_17">
      <path clip-path="url(#p383426e6a6)" d="M 46.965625 177.02 
L 493.365625 177.02 
" style="fill:none;stroke:#b0b0b0;stroke-linecap:square;stroke-width:0.8;"/>
     </g>
     <g id="line2d_18">
      <defs>
       <path d="M 0 0 
L -3.5 0 
" id="m5e905dee2c" style="stroke:#000000;stroke-width:0.8;"/>
      </defs>
      <g>
       <use style="stroke:#000000;stroke-width:0.8;" x="46.965625" xlink:href="#m5e905dee2c" y="177.02"/>
      </g>
     </g>
     <g id="text_10">
      <!-- 0 -->
      <g transform="translate(33.603125 180.819219)scale(0.1 -0.1)">
       <use xlink:href="#DejaVuSans-48"/>
      </g>
     </g>
    </g>
    <g id="ytick_2">
     <g id="line2d_19">
      <path clip-path="url(#p383426e6a6)" d="M 46.965625 137.42 
L 493.365625 137.42 
" style="fill:none;stroke:#b0b0b0;stroke-linecap:square;stroke-width:0.8;"/>
     </g>
     <g id="line2d_20">
      <g>
       <use style="stroke:#000000;stroke-width:0.8;" x="46.965625" xlink:href="#m5e905dee2c" y="137.42"/>
      </g>
     </g>
     <g id="text_11">
      <!-- 50 -->
      <g transform="translate(27.240625 141.219219)scale(0.1 -0.1)">
       <use xlink:href="#DejaVuSans-53"/>
       <use x="63.623047" xlink:href="#DejaVuSans-48"/>
      </g>
     </g>
    </g>
    <g id="ytick_3">
     <g id="line2d_21">
      <path clip-path="url(#p383426e6a6)" d="M 46.965625 97.82 
L 493.365625 97.82 
" style="fill:none;stroke:#b0b0b0;stroke-linecap:square;stroke-width:0.8;"/>
     </g>
     <g id="line2d_22">
      <g>
       <use style="stroke:#000000;stroke-width:0.8;" x="46.965625" xlink:href="#m5e905dee2c" y="97.82"/>
      </g>
     </g>
     <g id="text_12">
      <!-- 100 -->
      <g transform="translate(20.878125 101.619219)scale(0.1 -0.1)">
       <use xlink:href="#DejaVuSans-49"/>
       <use x="63.623047" xlink:href="#DejaVuSans-48"/>
       <use x="127.246094" xlink:href="#DejaVuSans-48"/>
      </g>
     </g>
    </g>
    <g id="ytick_4">
     <g id="line2d_23">
      <path clip-path="url(#p383426e6a6)" d="M 46.965625 58.22 
L 493.365625 58.22 
" style="fill:none;stroke:#b0b0b0;stroke-linecap:square;stroke-width:0.8;"/>
     </g>
     <g id="line2d_24">
      <g>
       <use style="stroke:#000000;stroke-width:0.8;" x="46.965625" xlink:href="#m5e905dee2c" y="58.22"/>
      </g>
     </g>
     <g id="text_13">
      <!-- 150 -->
      <g transform="translate(20.878125 62.019219)scale(0.1 -0.1)">
       <use xlink:href="#DejaVuSans-49"/>
       <use x="63.623047" xlink:href="#DejaVuSans-53"/>
       <use x="127.246094" xlink:href="#DejaVuSans-48"/>
      </g>
     </g>
    </g>
    <g id="ytick_5">
     <g id="line2d_25">
      <path clip-path="url(#p383426e6a6)" d="M 46.965625 18.62 
L 493.365625 18.62 
" style="fill:none;stroke:#b0b0b0;stroke-linecap:square;stroke-width:0.8;"/>
     </g>
     <g id="line2d_26">
      <g>
       <use style="stroke:#000000;stroke-width:0.8;" x="46.965625" xlink:href="#m5e905dee2c" y="18.62"/>
      </g>
     </g>
     <g id="text_14">
      <!-- 200 -->
      <g transform="translate(20.878125 22.419219)scale(0.1 -0.1)">
       <use xlink:href="#DejaVuSans-50"/>
       <use x="63.623047" xlink:href="#DejaVuSans-48"/>
       <use x="127.246094" xlink:href="#DejaVuSans-48"/>
      </g>
     </g>
    </g>
    <g id="text_15">
     <!-- CPU (shares) -->
     <defs>
      <path d="M 60.59375 3.421875 
Q 53.859375 1.03125 47.65625 -0.1875 
Q 41.453125 -1.421875 35.890625 -1.421875 
Q 21.1875 -1.421875 12.390625 6.640625 
Q 3.609375 14.703125 3.609375 27.984375 
Q 3.609375 36.71875 6.390625 44.453125 
Q 9.1875 52.203125 14.59375 58.59375 
Q 21 66.109375 30 70.15625 
Q 39.015625 74.21875 49.421875 74.21875 
Q 55.078125 74.21875 60.78125 72.875 
Q 66.5 71.53125 72.40625 68.796875 
L 69.390625 53.71875 
Q 64.703125 57.28125 59.953125 58.9375 
Q 55.21875 60.59375 49.8125 60.59375 
Q 38.53125 60.59375 30.90625 51.90625 
Q 23.296875 43.21875 23.296875 30.171875 
Q 23.296875 21.78125 27.984375 16.984375 
Q 32.671875 12.203125 40.921875 12.203125 
Q 45.84375 12.203125 51.390625 13.984375 
Q 56.9375 15.765625 63.8125 19.578125 
z
" id="DejaVuSans-BoldOblique-67"/>
      <path d="M 16.3125 72.90625 
L 47.515625 72.90625 
Q 58.984375 72.90625 65.453125 67.65625 
Q 71.921875 62.40625 71.921875 53.078125 
Q 71.921875 47.359375 69.765625 42.203125 
Q 67.625 37.0625 63.625 33.203125 
Q 59.28125 29.046875 53.265625 27.171875 
Q 47.265625 25.296875 38.1875 25.296875 
L 25.78125 25.296875 
L 20.90625 0 
L 2.09375 0 
z
M 32.515625 59.28125 
L 28.515625 38.921875 
L 38.921875 38.921875 
Q 45.5625 38.921875 49.078125 42.046875 
Q 52.59375 45.171875 52.59375 51.125 
Q 52.59375 55.078125 50.078125 57.171875 
Q 47.5625 59.28125 42.828125 59.28125 
z
" id="DejaVuSans-BoldOblique-80"/>
      <path d="M 16.3125 72.90625 
L 35.109375 72.90625 
L 26.609375 29.25 
Q 26.125 26.90625 25.90625 25.09375 
Q 25.6875 23.296875 25.6875 21.921875 
Q 25.6875 17.140625 28.25 14.765625 
Q 30.8125 12.40625 35.890625 12.40625 
Q 42.71875 12.40625 46.375 16.234375 
Q 50.046875 20.0625 51.8125 29.203125 
L 60.296875 72.90625 
L 79.109375 72.90625 
L 70.609375 29.203125 
Q 67.4375 13.09375 58.5625 5.828125 
Q 49.703125 -1.421875 33.203125 -1.421875 
Q 20.265625 -1.421875 13.515625 4.125 
Q 6.78125 9.671875 6.78125 20.21875 
Q 6.78125 21.96875 7.03125 24.140625 
Q 7.28125 26.3125 7.8125 29.203125 
z
" id="DejaVuSans-BoldOblique-85"/>
      <path id="DejaVuSans-BoldOblique-32"/>
      <path d="M 29.5 -13.1875 
L 15.28125 -13.1875 
Q 11.46875 -5.078125 9.59375 2.703125 
Q 7.71875 10.5 7.71875 18.21875 
Q 7.71875 32.625 13.921875 47 
Q 20.125 61.375 32.625 75.875 
L 46.78125 75.875 
Q 35.40625 60.75 29.8125 45.921875 
Q 24.21875 31.109375 24.21875 16.21875 
Q 24.21875 8.890625 25.53125 1.578125 
Q 26.859375 -5.71875 29.5 -13.1875 
z
" id="DejaVuSans-BoldOblique-40"/>
      <path d="M 56 52.984375 
L 53.421875 39.40625 
Q 48.296875 41.84375 43.21875 43.109375 
Q 38.140625 44.390625 33.59375 44.390625 
Q 28.421875 44.390625 25.609375 43.046875 
Q 22.796875 41.703125 22.796875 39.203125 
Q 22.796875 37.75 24.359375 36.859375 
Q 25.921875 35.984375 30.515625 35.015625 
L 33.6875 34.421875 
Q 44.28125 32.171875 48.53125 28.625 
Q 52.78125 25.09375 52.78125 18.796875 
Q 52.78125 9.28125 45.3125 3.921875 
Q 37.84375 -1.421875 24.421875 -1.421875 
Q 18.796875 -1.421875 12.9375 -0.53125 
Q 7.078125 0.34375 0.984375 2.09375 
L 3.609375 15.828125 
Q 8.34375 13.03125 13.734375 11.609375 
Q 19.140625 10.203125 24.8125 10.203125 
Q 30.328125 10.203125 33.109375 11.515625 
Q 35.890625 12.84375 35.890625 15.375 
Q 35.890625 17.140625 34.328125 18.109375 
Q 32.765625 19.09375 27.875 20.125 
L 24.703125 20.703125 
Q 15.328125 22.65625 11.328125 26.46875 
Q 7.328125 30.28125 7.328125 37.015625 
Q 7.328125 46.140625 14.234375 51.0625 
Q 21.140625 56 33.984375 56 
Q 39.59375 56 45.03125 55.25 
Q 50.484375 54.5 56 52.984375 
z
" id="DejaVuSans-BoldOblique-115"/>
      <path d="M 64.5 33.296875 
L 58.015625 0 
L 40.484375 0 
L 46 28.515625 
Q 46.578125 31.296875 46.890625 33.21875 
Q 47.21875 35.15625 47.21875 36.28125 
Q 47.21875 39.40625 45.484375 41.109375 
Q 43.75 42.828125 40.578125 42.828125 
Q 35.15625 42.828125 31.265625 38.59375 
Q 27.390625 34.375 25.875 26.90625 
L 20.609375 0 
L 3.078125 0 
L 17.828125 75.984375 
L 35.40625 75.984375 
L 29.6875 46.6875 
Q 34.515625 51.421875 39.390625 53.703125 
Q 44.28125 56 49.609375 56 
Q 57.171875 56 61.265625 52.046875 
Q 65.375 48.09375 65.375 40.921875 
Q 65.375 39.359375 65.15625 37.453125 
Q 64.9375 35.546875 64.5 33.296875 
z
" id="DejaVuSans-BoldOblique-104"/>
      <path d="M 32.90625 24.609375 
Q 26.375 24.609375 23.015625 22.578125 
Q 19.671875 20.5625 19.671875 16.609375 
Q 19.671875 13.625 21.65625 11.90625 
Q 23.640625 10.203125 27.09375 10.203125 
Q 32.46875 10.203125 36.078125 13.453125 
Q 39.703125 16.703125 40.921875 22.609375 
L 41.3125 24.609375 
z
M 60.203125 31.203125 
L 54.109375 0 
L 36.625 0 
L 38.09375 8.109375 
Q 33.796875 3.21875 29 0.890625 
Q 24.21875 -1.421875 18.609375 -1.421875 
Q 10.84375 -1.421875 6.265625 2.609375 
Q 1.703125 6.640625 1.703125 13.484375 
Q 1.703125 23.921875 9.78125 29.46875 
Q 17.875 35.015625 33.109375 35.015625 
L 43.40625 35.015625 
L 43.609375 36.375 
Q 43.75 37.0625 43.765625 37.34375 
Q 43.796875 37.640625 43.796875 37.890625 
Q 43.796875 41.109375 40.75 42.75 
Q 37.703125 44.390625 31.6875 44.390625 
Q 26.265625 44.390625 21.1875 43.265625 
Q 16.109375 42.140625 11.375 39.890625 
L 14.015625 53.21875 
Q 19.484375 54.59375 25.21875 55.296875 
Q 30.953125 56 37.109375 56 
Q 49.265625 56 55.171875 51.828125 
Q 61.078125 47.65625 61.078125 39.109375 
Q 61.078125 37.453125 60.859375 35.46875 
Q 60.640625 33.5 60.203125 31.203125 
z
" id="DejaVuSans-BoldOblique-97"/>
      <path d="M 51.421875 39.796875 
Q 49.609375 40.828125 47.40625 41.359375 
Q 45.21875 41.890625 42.671875 41.890625 
Q 35.984375 41.890625 31.5625 37.59375 
Q 27.15625 33.296875 25.59375 25.203125 
L 20.609375 0 
L 3.078125 0 
L 13.71875 54.6875 
L 31.296875 54.6875 
L 29.390625 45.3125 
Q 32.859375 50.484375 38.0625 53.234375 
Q 43.265625 56 49.609375 56 
Q 50.53125 56 51.703125 55.90625 
Q 52.875 55.8125 54.5 55.609375 
z
" id="DejaVuSans-BoldOblique-114"/>
      <path d="M 62.890625 25.296875 
L 62.3125 22.515625 
L 21.390625 22.515625 
Q 21.390625 22.21875 21.34375 21.65625 
Q 21.296875 21.09375 21.296875 20.796875 
Q 21.296875 15.484375 24.484375 12.84375 
Q 27.6875 10.203125 34.078125 10.203125 
Q 39.59375 10.203125 45.71875 11.859375 
Q 51.859375 13.53125 58.59375 16.796875 
L 55.90625 3.21875 
Q 49.515625 0.875 43.1875 -0.265625 
Q 36.859375 -1.421875 30.328125 -1.421875 
Q 17.53125 -1.421875 10.5625 4.484375 
Q 3.609375 10.40625 3.609375 21.1875 
Q 3.609375 27.4375 5.828125 33.3125 
Q 8.0625 39.203125 12.3125 44.09375 
Q 17.328125 49.953125 24.328125 52.96875 
Q 31.34375 56 39.890625 56 
Q 50.984375 56 57.5 50.09375 
Q 64.015625 44.1875 64.015625 34.1875 
Q 64.015625 32.234375 63.75 30.046875 
Q 63.484375 27.875 62.890625 25.296875 
z
M 46.390625 33.296875 
Q 46.53125 33.9375 46.609375 34.59375 
Q 46.6875 35.25 46.6875 35.890625 
Q 46.6875 39.796875 44.34375 42.09375 
Q 42 44.390625 37.984375 44.390625 
Q 32.859375 44.390625 29.265625 41.578125 
Q 25.6875 38.765625 23.78125 33.296875 
z
" id="DejaVuSans-BoldOblique-101"/>
      <path d="M 14.59375 75.875 
L 28.90625 75.875 
Q 32.671875 67.875 34.515625 60.078125 
Q 36.375 52.296875 36.375 44.484375 
Q 36.375 29.9375 30.203125 15.546875 
Q 24.03125 1.171875 11.625 -13.1875 
L -2.6875 -13.1875 
Q 8.6875 1.953125 14.296875 16.796875 
Q 19.921875 31.640625 19.921875 46.578125 
Q 19.921875 53.90625 18.59375 61.15625 
Q 17.28125 68.40625 14.59375 75.875 
z
" id="DejaVuSans-BoldOblique-41"/>
     </defs>
     <g transform="translate(14.798437 130.307656)rotate(-90)scale(0.1 -0.1)">
      <use xlink:href="#DejaVuSans-BoldOblique-67"/>
      <use x="73.388672" xlink:href="#DejaVuSans-BoldOblique-80"/>
      <use x="146.679688" xlink:href="#DejaVuSans-BoldOblique-85"/>
      <use x="227.880859" xlink:href="#DejaVuSans-BoldOblique-32"/>
      <use x="262.695312" xlink:href="#DejaVuSans-BoldOblique-40"/>
      <use x="308.398438" xlink:href="#DejaVuSans-BoldOblique-115"/>
      <use x="367.919922" xlink:href="#DejaVuSans-BoldOblique-104"/>
      <use x="439.111328" xlink:href="#DejaVuSans-BoldOblique-97"/>
      <use x="506.591797" xlink:href="#DejaVuSans-BoldOblique-114"/>
      <use x="555.908203" xlink:href="#DejaVuSans-BoldOblique-101"/>
      <use x="623.730469" xlink:href="#DejaVuSans-BoldOblique-115"/>
      <use x="683.251953" xlink:href="#DejaVuSans-BoldOblique-41"/>
     </g>
    </g>
   </g>
   <g id="line2d_27">
    <path clip-path="url(#p383426e6a6)" d="M 63.100565 18.62 
L 479.919842 18.62 
L 479.919842 18.62 
" style="fill:none;stroke:#1f77b4;stroke-dasharray:1.5,0;stroke-dashoffset:0;stroke-width:1.5;"/>
    <defs>
     <path d="M -3 3 
L 3 -3 
M -3 -3 
L 3 3 
" id="m30d897365c" style="stroke:#1f77b4;"/>
    </defs>
    <g clip-path="url(#p383426e6a6)">
     <use style="fill:#1f77b4;stroke:#1f77b4;" x="63.100565" xlink:href="#m30d897365c" y="18.62"/>
     <use style="fill:#1f77b4;stroke:#1f77b4;" x="79.235505" xlink:href="#m30d897365c" y="18.62"/>
     <use style="fill:#1f77b4;stroke:#1f77b4;" x="92.681288" xlink:href="#m30d897365c" y="18.62"/>
     <use style="fill:#1f77b4;stroke:#1f77b4;" x="108.816227" xlink:href="#m30d897365c" y="18.62"/>
     <use style="fill:#1f77b4;stroke:#1f77b4;" x="124.951167" xlink:href="#m30d897365c" y="18.62"/>
     <use style="fill:#1f77b4;stroke:#1f77b4;" x="138.39695" xlink:href="#m30d897365c" y="18.62"/>
     <use style="fill:#1f77b4;stroke:#1f77b4;" x="154.53189" xlink:href="#m30d897365c" y="18.62"/>
     <use style="fill:#1f77b4;stroke:#1f77b4;" x="167.977673" xlink:href="#m30d897365c" y="18.62"/>
     <use style="fill:#1f77b4;stroke:#1f77b4;" x="184.112613" xlink:href="#m30d897365c" y="18.62"/>
     <use style="fill:#1f77b4;stroke:#1f77b4;" x="197.558396" xlink:href="#m30d897365c" y="18.62"/>
     <use style="fill:#1f77b4;stroke:#1f77b4;" x="213.693336" xlink:href="#m30d897365c" y="18.62"/>
     <use style="fill:#1f77b4;stroke:#1f77b4;" x="227.139119" xlink:href="#m30d897365c" y="18.62"/>
     <use style="fill:#1f77b4;stroke:#1f77b4;" x="243.274059" xlink:href="#m30d897365c" y="18.62"/>
     <use style="fill:#1f77b4;stroke:#1f77b4;" x="256.719842" xlink:href="#m30d897365c" y="18.62"/>
     <use style="fill:#1f77b4;stroke:#1f77b4;" x="272.854782" xlink:href="#m30d897365c" y="18.62"/>
     <use style="fill:#1f77b4;stroke:#1f77b4;" x="288.989721" xlink:href="#m30d897365c" y="18.62"/>
     <use style="fill:#1f77b4;stroke:#1f77b4;" x="302.435505" xlink:href="#m30d897365c" y="18.62"/>
     <use style="fill:#1f77b4;stroke:#1f77b4;" x="318.570444" xlink:href="#m30d897365c" y="18.62"/>
     <use style="fill:#1f77b4;stroke:#1f77b4;" x="334.705384" xlink:href="#m30d897365c" y="18.62"/>
     <use style="fill:#1f77b4;stroke:#1f77b4;" x="348.151167" xlink:href="#m30d897365c" y="18.62"/>
     <use style="fill:#1f77b4;stroke:#1f77b4;" x="364.286107" xlink:href="#m30d897365c" y="18.62"/>
     <use style="fill:#1f77b4;stroke:#1f77b4;" x="380.421047" xlink:href="#m30d897365c" y="18.62"/>
     <use style="fill:#1f77b4;stroke:#1f77b4;" x="393.86683" xlink:href="#m30d897365c" y="18.62"/>
     <use style="fill:#1f77b4;stroke:#1f77b4;" x="410.00177" xlink:href="#m30d897365c" y="18.62"/>
     <use style="fill:#1f77b4;stroke:#1f77b4;" x="426.136709" xlink:href="#m30d897365c" y="18.62"/>
     <use style="fill:#1f77b4;stroke:#1f77b4;" x="439.582492" xlink:href="#m30d897365c" y="18.62"/>
     <use style="fill:#1f77b4;stroke:#1f77b4;" x="455.717432" xlink:href="#m30d897365c" y="18.62"/>
     <use style="fill:#1f77b4;stroke:#1f77b4;" x="469.163215" xlink:href="#m30d897365c" y="18.62"/>
    </g>
   </g>
   <g id="line2d_28">
    <path clip-path="url(#p383426e6a6)" d="M 63.100565 175.5944 
L 65.789721 174.4856 
L 68.478878 170.2088 
L 71.168035 125.064801 
L 73.857191 91.6424 
L 76.546348 32.5592 
L 79.235505 25.906401 
L 81.924661 121.7384 
L 84.613818 159.9128 
L 87.302974 33.826404 
L 89.992131 45.548004 
L 92.681288 46.6568 
L 95.370444 127.440799 
L 98.059601 90.691998 
L 100.748758 41.746403 
L 103.437914 27.015205 
L 106.127071 98.453599 
L 108.816227 130.9256 
L 111.505384 29.549598 
L 114.194541 68.199201 
L 116.883697 38.1032 
L 119.572854 141.5384 
L 122.262011 96.552799 
L 124.951167 30.341604 
L 127.640324 35.727201 
L 130.32948 102.571998 
L 133.018637 76.436 
L 135.707794 20.837596 
L 138.39695 22.263195 
L 141.086107 170.8424 
L 143.775264 25.272799 
L 146.46442 85.464802 
L 149.153577 19.728798 
L 151.842733 110.967199 
L 154.53189 62.655201 
L 157.221047 76.436003 
L 159.910203 70.575201 
L 162.59936 49.032802 
L 165.288517 135.043999 
L 167.977673 106.690399 
L 170.66683 36.9944 
L 173.355986 37.944802 
L 176.045143 95.760799 
L 178.7343 132.5096 
L 181.423456 43.330403 
L 184.112613 51.884003 
L 186.80177 25.272796 
L 189.490926 168.9416 
L 192.180083 47.131997 
L 194.869239 20.679198 
L 197.558396 55.844 
L 200.247553 165.7736 
L 202.936709 74.060002 
L 205.625866 59.012002 
L 208.315023 37.786401 
L 211.004179 112.868001 
L 213.693336 64.239198 
L 216.382492 54.26 
L 219.071649 29.232805 
L 221.760806 88.949601 
L 224.449962 83.4056 
L 227.139119 56.635999 
L 229.828276 33.826399 
L 232.517432 79.920798 
L 235.206589 151.9928 
L 237.895745 21.788 
L 240.584902 78.495198 
L 243.274059 21.471199 
L 245.963215 139.6376 
L 248.652372 65.189601 
L 251.341529 55.052 
L 254.030685 20.679201 
L 256.719842 126.490401 
L 259.408998 170.2088 
L 262.098155 40.4792 
L 264.787312 87.207201 
L 267.476468 30.658399 
L 270.165625 89.266399 
L 272.854782 159.4376 
L 275.543938 24.956002 
L 278.233095 113.818399 
L 280.922252 70.258399 
L 283.611408 62.338402 
L 286.300565 169.892 
L 288.989721 51.091998 
L 291.678878 57.111198 
L 294.368035 50.6168 
L 297.057191 172.268 
L 299.746348 43.330398 
L 302.435505 43.805599 
L 305.124661 99.087201 
L 307.813818 173.3768 
L 310.502974 175.2776 
L 313.192131 175.1192 
L 315.881288 175.5944 
L 321.259601 175.5944 
L 323.948758 175.436 
L 326.637914 175.7528 
L 329.327071 175.2776 
L 332.016227 175.7528 
L 334.705384 175.2776 
L 337.394541 175.5944 
L 340.083697 175.2776 
L 342.772854 175.7528 
L 345.462011 175.1192 
L 348.151167 175.436 
L 350.840324 175.5944 
L 353.52948 175.436 
L 356.218637 175.436 
L 358.907794 175.5944 
L 361.59695 175.436 
L 364.286107 175.9112 
L 366.975264 175.2776 
L 369.66442 175.7528 
L 372.353577 175.436 
L 377.73189 175.436 
L 380.421047 175.5944 
L 383.110203 175.1192 
L 388.488517 175.7528 
L 391.177673 175.436 
L 393.86683 175.436 
L 399.245143 175.7528 
L 401.9343 174.9608 
L 404.623456 175.5944 
L 407.312613 175.436 
L 410.00177 175.436 
L 412.690926 175.9112 
L 415.380083 175.5944 
L 418.069239 175.436 
L 420.758396 175.7528 
L 423.447553 175.5944 
L 426.136709 175.7528 
L 431.515023 175.436 
L 434.204179 175.436 
L 436.893336 175.1192 
L 439.582492 176.228 
L 442.271649 175.436 
L 444.960806 175.5944 
L 447.649962 174.9608 
L 450.339119 175.7528 
L 453.028276 175.7528 
L 455.717432 175.5944 
L 458.406589 175.1192 
L 461.095745 175.5944 
L 463.784902 175.5944 
L 466.474059 175.7528 
L 469.163215 175.5944 
L 479.919842 175.5944 
L 479.919842 175.5944 
" style="fill:none;stroke:#ff7f0e;stroke-dasharray:1.5,0;stroke-dashoffset:0;stroke-width:1.5;"/>
    <defs>
     <path d="M 0 3 
C 0.795609 3 1.55874 2.683901 2.12132 2.12132 
C 2.683901 1.55874 3 0.795609 3 0 
C 3 -0.795609 2.683901 -1.55874 2.12132 -2.12132 
C 1.55874 -2.683901 0.795609 -3 0 -3 
C -0.795609 -3 -1.55874 -2.683901 -2.12132 -2.12132 
C -2.683901 -1.55874 -3 -0.795609 -3 0 
C -3 0.795609 -2.683901 1.55874 -2.12132 2.12132 
C -1.55874 2.683901 -0.795609 3 0 3 
z
" id="ma5a822553f" style="stroke:#ff7f0e;"/>
    </defs>
    <g clip-path="url(#p383426e6a6)">
     <use style="fill:#ff7f0e;stroke:#ff7f0e;" x="63.100565" xlink:href="#ma5a822553f" y="175.5944"/>
     <use style="fill:#ff7f0e;stroke:#ff7f0e;" x="76.546348" xlink:href="#ma5a822553f" y="32.5592"/>
     <use style="fill:#ff7f0e;stroke:#ff7f0e;" x="89.992131" xlink:href="#ma5a822553f" y="45.548004"/>
     <use style="fill:#ff7f0e;stroke:#ff7f0e;" x="103.437914" xlink:href="#ma5a822553f" y="27.015205"/>
     <use style="fill:#ff7f0e;stroke:#ff7f0e;" x="116.883697" xlink:href="#ma5a822553f" y="38.1032"/>
     <use style="fill:#ff7f0e;stroke:#ff7f0e;" x="130.32948" xlink:href="#ma5a822553f" y="102.571998"/>
     <use style="fill:#ff7f0e;stroke:#ff7f0e;" x="143.775264" xlink:href="#ma5a822553f" y="25.272799"/>
     <use style="fill:#ff7f0e;stroke:#ff7f0e;" x="157.221047" xlink:href="#ma5a822553f" y="76.436003"/>
     <use style="fill:#ff7f0e;stroke:#ff7f0e;" x="170.66683" xlink:href="#ma5a822553f" y="36.9944"/>
     <use style="fill:#ff7f0e;stroke:#ff7f0e;" x="184.112613" xlink:href="#ma5a822553f" y="51.884003"/>
     <use style="fill:#ff7f0e;stroke:#ff7f0e;" x="197.558396" xlink:href="#ma5a822553f" y="55.844"/>
     <use style="fill:#ff7f0e;stroke:#ff7f0e;" x="211.004179" xlink:href="#ma5a822553f" y="112.868001"/>
     <use style="fill:#ff7f0e;stroke:#ff7f0e;" x="224.449962" xlink:href="#ma5a822553f" y="83.4056"/>
     <use style="fill:#ff7f0e;stroke:#ff7f0e;" x="237.895745" xlink:href="#ma5a822553f" y="21.788"/>
     <use style="fill:#ff7f0e;stroke:#ff7f0e;" x="251.341529" xlink:href="#ma5a822553f" y="55.052"/>
     <use style="fill:#ff7f0e;stroke:#ff7f0e;" x="264.787312" xlink:href="#ma5a822553f" y="87.207201"/>
     <use style="fill:#ff7f0e;stroke:#ff7f0e;" x="278.233095" xlink:href="#ma5a822553f" y="113.818399"/>
     <use style="fill:#ff7f0e;stroke:#ff7f0e;" x="291.678878" xlink:href="#ma5a822553f" y="57.111198"/>
     <use style="fill:#ff7f0e;stroke:#ff7f0e;" x="305.124661" xlink:href="#ma5a822553f" y="99.087201"/>
     <use style="fill:#ff7f0e;stroke:#ff7f0e;" x="318.570444" xlink:href="#ma5a822553f" y="175.5944"/>
     <use style="fill:#ff7f0e;stroke:#ff7f0e;" x="332.016227" xlink:href="#ma5a822553f" y="175.7528"/>
     <use style="fill:#ff7f0e;stroke:#ff7f0e;" x="345.462011" xlink:href="#ma5a822553f" y="175.1192"/>
     <use style="fill:#ff7f0e;stroke:#ff7f0e;" x="358.907794" xlink:href="#ma5a822553f" y="175.5944"/>
     <use style="fill:#ff7f0e;stroke:#ff7f0e;" x="372.353577" xlink:href="#ma5a822553f" y="175.436"/>
     <use style="fill:#ff7f0e;stroke:#ff7f0e;" x="385.79936" xlink:href="#ma5a822553f" y="175.436"/>
     <use style="fill:#ff7f0e;stroke:#ff7f0e;" x="399.245143" xlink:href="#ma5a822553f" y="175.7528"/>
     <use style="fill:#ff7f0e;stroke:#ff7f0e;" x="412.690926" xlink:href="#ma5a822553f" y="175.9112"/>
     <use style="fill:#ff7f0e;stroke:#ff7f0e;" x="426.136709" xlink:href="#ma5a822553f" y="175.7528"/>
     <use style="fill:#ff7f0e;stroke:#ff7f0e;" x="439.582492" xlink:href="#ma5a822553f" y="176.228"/>
     <use style="fill:#ff7f0e;stroke:#ff7f0e;" x="453.028276" xlink:href="#ma5a822553f" y="175.7528"/>
     <use style="fill:#ff7f0e;stroke:#ff7f0e;" x="466.474059" xlink:href="#ma5a822553f" y="175.7528"/>
     <use style="fill:#ff7f0e;stroke:#ff7f0e;" x="479.919842" xlink:href="#ma5a822553f" y="175.5944"/>
    </g>
   </g>
   <g id="line2d_29">
    <path clip-path="url(#p383426e6a6)" d="M 63.100565 145.34 
L 479.919842 145.34 
L 479.919842 145.34 
" style="fill:none;stroke:#2ca02c;stroke-dasharray:7.5,10.5;stroke-dashoffset:0;stroke-width:1.5;"/>
    <defs>
     <path d="M -0 3 
L 3 -3 
L -3 -3 
z
" id="mdea6a670c9" style="stroke:#2ca02c;stroke-linejoin:miter;"/>
    </defs>
    <g clip-path="url(#p383426e6a6)">
     <use style="fill:#2ca02c;stroke:#2ca02c;stroke-linejoin:miter;" x="63.100565" xlink:href="#mdea6a670c9" y="145.34"/>
     <use style="fill:#2ca02c;stroke:#2ca02c;stroke-linejoin:miter;" x="79.235505" xlink:href="#mdea6a670c9" y="145.34"/>
     <use style="fill:#2ca02c;stroke:#2ca02c;stroke-linejoin:miter;" x="92.681288" xlink:href="#mdea6a670c9" y="145.34"/>
     <use style="fill:#2ca02c;stroke:#2ca02c;stroke-linejoin:miter;" x="108.816227" xlink:href="#mdea6a670c9" y="145.34"/>
     <use style="fill:#2ca02c;stroke:#2ca02c;stroke-linejoin:miter;" x="124.951167" xlink:href="#mdea6a670c9" y="145.34"/>
     <use style="fill:#2ca02c;stroke:#2ca02c;stroke-linejoin:miter;" x="138.39695" xlink:href="#mdea6a670c9" y="145.34"/>
     <use style="fill:#2ca02c;stroke:#2ca02c;stroke-linejoin:miter;" x="154.53189" xlink:href="#mdea6a670c9" y="145.34"/>
     <use style="fill:#2ca02c;stroke:#2ca02c;stroke-linejoin:miter;" x="167.977673" xlink:href="#mdea6a670c9" y="145.34"/>
     <use style="fill:#2ca02c;stroke:#2ca02c;stroke-linejoin:miter;" x="184.112613" xlink:href="#mdea6a670c9" y="145.34"/>
     <use style="fill:#2ca02c;stroke:#2ca02c;stroke-linejoin:miter;" x="197.558396" xlink:href="#mdea6a670c9" y="145.34"/>
     <use style="fill:#2ca02c;stroke:#2ca02c;stroke-linejoin:miter;" x="213.693336" xlink:href="#mdea6a670c9" y="145.34"/>
     <use style="fill:#2ca02c;stroke:#2ca02c;stroke-linejoin:miter;" x="227.139119" xlink:href="#mdea6a670c9" y="145.34"/>
     <use style="fill:#2ca02c;stroke:#2ca02c;stroke-linejoin:miter;" x="243.274059" xlink:href="#mdea6a670c9" y="145.34"/>
     <use style="fill:#2ca02c;stroke:#2ca02c;stroke-linejoin:miter;" x="256.719842" xlink:href="#mdea6a670c9" y="145.34"/>
     <use style="fill:#2ca02c;stroke:#2ca02c;stroke-linejoin:miter;" x="272.854782" xlink:href="#mdea6a670c9" y="145.34"/>
     <use style="fill:#2ca02c;stroke:#2ca02c;stroke-linejoin:miter;" x="288.989721" xlink:href="#mdea6a670c9" y="145.34"/>
     <use style="fill:#2ca02c;stroke:#2ca02c;stroke-linejoin:miter;" x="302.435505" xlink:href="#mdea6a670c9" y="145.34"/>
     <use style="fill:#2ca02c;stroke:#2ca02c;stroke-linejoin:miter;" x="318.570444" xlink:href="#mdea6a670c9" y="145.34"/>
     <use style="fill:#2ca02c;stroke:#2ca02c;stroke-linejoin:miter;" x="334.705384" xlink:href="#mdea6a670c9" y="145.34"/>
     <use style="fill:#2ca02c;stroke:#2ca02c;stroke-linejoin:miter;" x="348.151167" xlink:href="#mdea6a670c9" y="145.34"/>
     <use style="fill:#2ca02c;stroke:#2ca02c;stroke-linejoin:miter;" x="364.286107" xlink:href="#mdea6a670c9" y="145.34"/>
     <use style="fill:#2ca02c;stroke:#2ca02c;stroke-linejoin:miter;" x="380.421047" xlink:href="#mdea6a670c9" y="145.34"/>
     <use style="fill:#2ca02c;stroke:#2ca02c;stroke-linejoin:miter;" x="393.86683" xlink:href="#mdea6a670c9" y="145.34"/>
     <use style="fill:#2ca02c;stroke:#2ca02c;stroke-linejoin:miter;" x="410.00177" xlink:href="#mdea6a670c9" y="145.34"/>
     <use style="fill:#2ca02c;stroke:#2ca02c;stroke-linejoin:miter;" x="426.136709" xlink:href="#mdea6a670c9" y="145.34"/>
     <use style="fill:#2ca02c;stroke:#2ca02c;stroke-linejoin:miter;" x="439.582492" xlink:href="#mdea6a670c9" y="145.34"/>
     <use style="fill:#2ca02c;stroke:#2ca02c;stroke-linejoin:miter;" x="455.717432" xlink:href="#mdea6a670c9" y="145.34"/>
     <use style="fill:#2ca02c;stroke:#2ca02c;stroke-linejoin:miter;" x="469.163215" xlink:href="#mdea6a670c9" y="145.34"/>
    </g>
   </g>
   <g id="line2d_30">
    <path clip-path="url(#p383426e6a6)" d="M 63.100565 113.66 
L 479.919842 113.66 
L 479.919842 113.66 
" style="fill:none;stroke:#d62728;stroke-dasharray:7.5,10.5;stroke-dashoffset:0;stroke-width:1.5;"/>
    <defs>
     <path d="M 0 -3 
L -3 3 
L 3 3 
z
" id="m6683312bdd" style="stroke:#d62728;stroke-linejoin:miter;"/>
    </defs>
    <g clip-path="url(#p383426e6a6)">
     <use style="fill:#d62728;stroke:#d62728;stroke-linejoin:miter;" x="63.100565" xlink:href="#m6683312bdd" y="113.66"/>
     <use style="fill:#d62728;stroke:#d62728;stroke-linejoin:miter;" x="79.235505" xlink:href="#m6683312bdd" y="113.66"/>
     <use style="fill:#d62728;stroke:#d62728;stroke-linejoin:miter;" x="92.681288" xlink:href="#m6683312bdd" y="113.66"/>
     <use style="fill:#d62728;stroke:#d62728;stroke-linejoin:miter;" x="108.816227" xlink:href="#m6683312bdd" y="113.66"/>
     <use style="fill:#d62728;stroke:#d62728;stroke-linejoin:miter;" x="124.951167" xlink:href="#m6683312bdd" y="113.66"/>
     <use style="fill:#d62728;stroke:#d62728;stroke-linejoin:miter;" x="138.39695" xlink:href="#m6683312bdd" y="113.66"/>
     <use style="fill:#d62728;stroke:#d62728;stroke-linejoin:miter;" x="154.53189" xlink:href="#m6683312bdd" y="113.66"/>
     <use style="fill:#d62728;stroke:#d62728;stroke-linejoin:miter;" x="167.977673" xlink:href="#m6683312bdd" y="113.66"/>
     <use style="fill:#d62728;stroke:#d62728;stroke-linejoin:miter;" x="184.112613" xlink:href="#m6683312bdd" y="113.66"/>
     <use style="fill:#d62728;stroke:#d62728;stroke-linejoin:miter;" x="197.558396" xlink:href="#m6683312bdd" y="113.66"/>
     <use style="fill:#d62728;stroke:#d62728;stroke-linejoin:miter;" x="213.693336" xlink:href="#m6683312bdd" y="113.66"/>
     <use style="fill:#d62728;stroke:#d62728;stroke-linejoin:miter;" x="227.139119" xlink:href="#m6683312bdd" y="113.66"/>
     <use style="fill:#d62728;stroke:#d62728;stroke-linejoin:miter;" x="243.274059" xlink:href="#m6683312bdd" y="113.66"/>
     <use style="fill:#d62728;stroke:#d62728;stroke-linejoin:miter;" x="256.719842" xlink:href="#m6683312bdd" y="113.66"/>
     <use style="fill:#d62728;stroke:#d62728;stroke-linejoin:miter;" x="272.854782" xlink:href="#m6683312bdd" y="113.66"/>
     <use style="fill:#d62728;stroke:#d62728;stroke-linejoin:miter;" x="288.989721" xlink:href="#m6683312bdd" y="113.66"/>
     <use style="fill:#d62728;stroke:#d62728;stroke-linejoin:miter;" x="302.435505" xlink:href="#m6683312bdd" y="113.66"/>
     <use style="fill:#d62728;stroke:#d62728;stroke-linejoin:miter;" x="318.570444" xlink:href="#m6683312bdd" y="113.66"/>
     <use style="fill:#d62728;stroke:#d62728;stroke-linejoin:miter;" x="334.705384" xlink:href="#m6683312bdd" y="113.66"/>
     <use style="fill:#d62728;stroke:#d62728;stroke-linejoin:miter;" x="348.151167" xlink:href="#m6683312bdd" y="113.66"/>
     <use style="fill:#d62728;stroke:#d62728;stroke-linejoin:miter;" x="364.286107" xlink:href="#m6683312bdd" y="113.66"/>
     <use style="fill:#d62728;stroke:#d62728;stroke-linejoin:miter;" x="380.421047" xlink:href="#m6683312bdd" y="113.66"/>
     <use style="fill:#d62728;stroke:#d62728;stroke-linejoin:miter;" x="393.86683" xlink:href="#m6683312bdd" y="113.66"/>
     <use style="fill:#d62728;stroke:#d62728;stroke-linejoin:miter;" x="410.00177" xlink:href="#m6683312bdd" y="113.66"/>
     <use style="fill:#d62728;stroke:#d62728;stroke-linejoin:miter;" x="426.136709" xlink:href="#m6683312bdd" y="113.66"/>
     <use style="fill:#d62728;stroke:#d62728;stroke-linejoin:miter;" x="439.582492" xlink:href="#m6683312bdd" y="113.66"/>
     <use style="fill:#d62728;stroke:#d62728;stroke-linejoin:miter;" x="455.717432" xlink:href="#m6683312bdd" y="113.66"/>
     <use style="fill:#d62728;stroke:#d62728;stroke-linejoin:miter;" x="469.163215" xlink:href="#m6683312bdd" y="113.66"/>
    </g>
   </g>
   <g id="patch_3">
    <path d="M 46.965625 177.02 
L 46.965625 10.7 
" style="fill:none;stroke:#000000;stroke-linecap:square;stroke-linejoin:miter;stroke-width:0.8;"/>
   </g>
   <g id="patch_4">
    <path d="M 493.365625 177.02 
L 493.365625 10.7 
" style="fill:none;stroke:#000000;stroke-linecap:square;stroke-linejoin:miter;stroke-width:0.8;"/>
   </g>
   <g id="patch_5">
    <path d="M 46.965625 177.02 
L 493.365625 177.02 
" style="fill:none;stroke:#000000;stroke-linecap:square;stroke-linejoin:miter;stroke-width:0.8;"/>
   </g>
   <g id="patch_6">
    <path d="M 46.965625 10.7 
L 493.365625 10.7 
" style="fill:none;stroke:#000000;stroke-linecap:square;stroke-linejoin:miter;stroke-width:0.8;"/>
   </g>
   <g id="legend_1">
    <g id="patch_7">
     <path d="M 414.686172 66.271513 
L 487.534625 66.271513 
Q 489.200625 66.271513 489.200625 64.605513 
L 489.200625 16.531 
Q 489.200625 14.865 487.534625 14.865 
L 414.686172 14.865 
Q 413.020172 14.865 413.020172 16.531 
L 413.020172 64.605513 
Q 413.020172 66.271513 414.686172 66.271513 
z
" style="fill:#afeeee;opacity:0.8;stroke:#cccccc;stroke-linejoin:miter;"/>
    </g>
    <g id="line2d_31">
     <path d="M 416.352172 21.610998 
L 433.012172 21.610998 
" style="fill:none;stroke:#1f77b4;stroke-dasharray:1.5,0;stroke-dashoffset:0;stroke-width:1.5;"/>
    </g>
    <g id="line2d_32">
     <g>
      <use style="fill:#1f77b4;stroke:#1f77b4;" x="424.682172" xlink:href="#m30d897365c" y="21.610998"/>
     </g>
    </g>
    <g id="text_16">
     <!-- Allocated -->
     <defs>
      <path d="M 34.1875 63.1875 
L 20.796875 26.90625 
L 47.609375 26.90625 
z
M 28.609375 72.90625 
L 39.796875 72.90625 
L 67.578125 0 
L 57.328125 0 
L 50.6875 18.703125 
L 17.828125 18.703125 
L 11.1875 0 
L 0.78125 0 
z
" id="DejaVuSans-65"/>
      <path d="M 9.421875 75.984375 
L 18.40625 75.984375 
L 18.40625 0 
L 9.421875 0 
z
" id="DejaVuSans-108"/>
      <path d="M 30.609375 48.390625 
Q 23.390625 48.390625 19.1875 42.75 
Q 14.984375 37.109375 14.984375 27.296875 
Q 14.984375 17.484375 19.15625 11.84375 
Q 23.34375 6.203125 30.609375 6.203125 
Q 37.796875 6.203125 41.984375 11.859375 
Q 46.1875 17.53125 46.1875 27.296875 
Q 46.1875 37.015625 41.984375 42.703125 
Q 37.796875 48.390625 30.609375 48.390625 
z
M 30.609375 56 
Q 42.328125 56 49.015625 48.375 
Q 55.71875 40.765625 55.71875 27.296875 
Q 55.71875 13.875 49.015625 6.21875 
Q 42.328125 -1.421875 30.609375 -1.421875 
Q 18.84375 -1.421875 12.171875 6.21875 
Q 5.515625 13.875 5.515625 27.296875 
Q 5.515625 40.765625 12.171875 48.375 
Q 18.84375 56 30.609375 56 
z
" id="DejaVuSans-111"/>
      <path d="M 48.78125 52.59375 
L 48.78125 44.1875 
Q 44.96875 46.296875 41.140625 47.34375 
Q 37.3125 48.390625 33.40625 48.390625 
Q 24.65625 48.390625 19.8125 42.84375 
Q 14.984375 37.3125 14.984375 27.296875 
Q 14.984375 17.28125 19.8125 11.734375 
Q 24.65625 6.203125 33.40625 6.203125 
Q 37.3125 6.203125 41.140625 7.25 
Q 44.96875 8.296875 48.78125 10.40625 
L 48.78125 2.09375 
Q 45.015625 0.34375 40.984375 -0.53125 
Q 36.96875 -1.421875 32.421875 -1.421875 
Q 20.0625 -1.421875 12.78125 6.34375 
Q 5.515625 14.109375 5.515625 27.296875 
Q 5.515625 40.671875 12.859375 48.328125 
Q 20.21875 56 33.015625 56 
Q 37.15625 56 41.109375 55.140625 
Q 45.0625 54.296875 48.78125 52.59375 
z
" id="DejaVuSans-99"/>
      <path d="M 34.28125 27.484375 
Q 23.390625 27.484375 19.1875 25 
Q 14.984375 22.515625 14.984375 16.5 
Q 14.984375 11.71875 18.140625 8.90625 
Q 21.296875 6.109375 26.703125 6.109375 
Q 34.1875 6.109375 38.703125 11.40625 
Q 43.21875 16.703125 43.21875 25.484375 
L 43.21875 27.484375 
z
M 52.203125 31.203125 
L 52.203125 0 
L 43.21875 0 
L 43.21875 8.296875 
Q 40.140625 3.328125 35.546875 0.953125 
Q 30.953125 -1.421875 24.3125 -1.421875 
Q 15.921875 -1.421875 10.953125 3.296875 
Q 6 8.015625 6 15.921875 
Q 6 25.140625 12.171875 29.828125 
Q 18.359375 34.515625 30.609375 34.515625 
L 43.21875 34.515625 
L 43.21875 35.40625 
Q 43.21875 41.609375 39.140625 45 
Q 35.0625 48.390625 27.6875 48.390625 
Q 23 48.390625 18.546875 47.265625 
Q 14.109375 46.140625 10.015625 43.890625 
L 10.015625 52.203125 
Q 14.9375 54.109375 19.578125 55.046875 
Q 24.21875 56 28.609375 56 
Q 40.484375 56 46.34375 49.84375 
Q 52.203125 43.703125 52.203125 31.203125 
z
" id="DejaVuSans-97"/>
      <path d="M 18.3125 70.21875 
L 18.3125 54.6875 
L 36.8125 54.6875 
L 36.8125 47.703125 
L 18.3125 47.703125 
L 18.3125 18.015625 
Q 18.3125 11.328125 20.140625 9.421875 
Q 21.96875 7.515625 27.59375 7.515625 
L 36.8125 7.515625 
L 36.8125 0 
L 27.59375 0 
Q 17.1875 0 13.234375 3.875 
Q 9.28125 7.765625 9.28125 18.015625 
L 9.28125 47.703125 
L 2.6875 47.703125 
L 2.6875 54.6875 
L 9.28125 54.6875 
L 9.28125 70.21875 
z
" id="DejaVuSans-116"/>
      <path d="M 45.40625 46.390625 
L 45.40625 75.984375 
L 54.390625 75.984375 
L 54.390625 0 
L 45.40625 0 
L 45.40625 8.203125 
Q 42.578125 3.328125 38.25 0.953125 
Q 33.9375 -1.421875 27.875 -1.421875 
Q 17.96875 -1.421875 11.734375 6.484375 
Q 5.515625 14.40625 5.515625 27.296875 
Q 5.515625 40.1875 11.734375 48.09375 
Q 17.96875 56 27.875 56 
Q 33.9375 56 38.25 53.625 
Q 42.578125 51.265625 45.40625 46.390625 
z
M 14.796875 27.296875 
Q 14.796875 17.390625 18.875 11.75 
Q 22.953125 6.109375 30.078125 6.109375 
Q 37.203125 6.109375 41.296875 11.75 
Q 45.40625 17.390625 45.40625 27.296875 
Q 45.40625 37.203125 41.296875 42.84375 
Q 37.203125 48.484375 30.078125 48.484375 
Q 22.953125 48.484375 18.875 42.84375 
Q 14.796875 37.203125 14.796875 27.296875 
z
" id="DejaVuSans-100"/>
     </defs>
     <g transform="translate(439.676172 24.526498)scale(0.0833 -0.0833)">
      <use xlink:href="#DejaVuSans-65"/>
      <use x="68.408203" xlink:href="#DejaVuSans-108"/>
      <use x="96.191406" xlink:href="#DejaVuSans-108"/>
      <use x="123.974609" xlink:href="#DejaVuSans-111"/>
      <use x="185.15625" xlink:href="#DejaVuSans-99"/>
      <use x="240.136719" xlink:href="#DejaVuSans-97"/>
      <use x="301.416016" xlink:href="#DejaVuSans-116"/>
      <use x="340.625" xlink:href="#DejaVuSans-101"/>
      <use x="402.148438" xlink:href="#DejaVuSans-100"/>
     </g>
    </g>
    <g id="line2d_33">
     <path d="M 416.352172 33.837877 
L 433.012172 33.837877 
" style="fill:none;stroke:#ff7f0e;stroke-dasharray:1.5,0;stroke-dashoffset:0;stroke-width:1.5;"/>
    </g>
    <g id="line2d_34">
     <g>
      <use style="fill:#ff7f0e;stroke:#ff7f0e;" x="424.682172" xlink:href="#ma5a822553f" y="33.837877"/>
     </g>
    </g>
    <g id="text_17">
     <!-- Used -->
     <defs>
      <path d="M 8.6875 72.90625 
L 18.609375 72.90625 
L 18.609375 28.609375 
Q 18.609375 16.890625 22.84375 11.734375 
Q 27.09375 6.59375 36.625 6.59375 
Q 46.09375 6.59375 50.34375 11.734375 
Q 54.59375 16.890625 54.59375 28.609375 
L 54.59375 72.90625 
L 64.5 72.90625 
L 64.5 27.390625 
Q 64.5 13.140625 57.4375 5.859375 
Q 50.390625 -1.421875 36.625 -1.421875 
Q 22.796875 -1.421875 15.734375 5.859375 
Q 8.6875 13.140625 8.6875 27.390625 
z
" id="DejaVuSans-85"/>
     </defs>
     <g transform="translate(439.676172 36.753377)scale(0.0833 -0.0833)">
      <use xlink:href="#DejaVuSans-85"/>
      <use x="73.193359" xlink:href="#DejaVuSans-115"/>
      <use x="125.292969" xlink:href="#DejaVuSans-101"/>
      <use x="186.816406" xlink:href="#DejaVuSans-100"/>
     </g>
    </g>
    <g id="line2d_35">
     <path d="M 416.352172 46.064755 
L 433.012172 46.064755 
" style="fill:none;stroke:#2ca02c;stroke-dasharray:7.5,10.5;stroke-dashoffset:0;stroke-width:1.5;"/>
    </g>
    <g id="line2d_36">
     <g>
      <use style="fill:#2ca02c;stroke:#2ca02c;stroke-linejoin:miter;" x="424.682172" xlink:href="#mdea6a670c9" y="46.064755"/>
     </g>
    </g>
    <g id="text_18">
     <!-- Lower limit -->
     <defs>
      <path d="M 9.8125 72.90625 
L 19.671875 72.90625 
L 19.671875 8.296875 
L 55.171875 8.296875 
L 55.171875 0 
L 9.8125 0 
z
" id="DejaVuSans-76"/>
      <path d="M 4.203125 54.6875 
L 13.1875 54.6875 
L 24.421875 12.015625 
L 35.59375 54.6875 
L 46.1875 54.6875 
L 57.421875 12.015625 
L 68.609375 54.6875 
L 77.59375 54.6875 
L 63.28125 0 
L 52.6875 0 
L 40.921875 44.828125 
L 29.109375 0 
L 18.5 0 
z
" id="DejaVuSans-119"/>
      <path d="M 41.109375 46.296875 
Q 39.59375 47.171875 37.8125 47.578125 
Q 36.03125 48 33.890625 48 
Q 26.265625 48 22.1875 43.046875 
Q 18.109375 38.09375 18.109375 28.8125 
L 18.109375 0 
L 9.078125 0 
L 9.078125 54.6875 
L 18.109375 54.6875 
L 18.109375 46.1875 
Q 20.953125 51.171875 25.484375 53.578125 
Q 30.03125 56 36.53125 56 
Q 37.453125 56 38.578125 55.875 
Q 39.703125 55.765625 41.0625 55.515625 
z
" id="DejaVuSans-114"/>
     </defs>
     <g transform="translate(439.676172 48.980255)scale(0.0833 -0.0833)">
      <use xlink:href="#DejaVuSans-76"/>
      <use x="55.697266" xlink:href="#DejaVuSans-111"/>
      <use x="116.878906" xlink:href="#DejaVuSans-119"/>
      <use x="198.666016" xlink:href="#DejaVuSans-101"/>
      <use x="260.189453" xlink:href="#DejaVuSans-114"/>
      <use x="301.302734" xlink:href="#DejaVuSans-32"/>
      <use x="333.089844" xlink:href="#DejaVuSans-108"/>
      <use x="360.873047" xlink:href="#DejaVuSans-105"/>
      <use x="388.65625" xlink:href="#DejaVuSans-109"/>
      <use x="486.068359" xlink:href="#DejaVuSans-105"/>
      <use x="513.851562" xlink:href="#DejaVuSans-116"/>
     </g>
    </g>
    <g id="line2d_37">
     <path d="M 416.352172 58.291633 
L 433.012172 58.291633 
" style="fill:none;stroke:#d62728;stroke-dasharray:7.5,10.5;stroke-dashoffset:0;stroke-width:1.5;"/>
    </g>
    <g id="line2d_38">
     <g>
      <use style="fill:#d62728;stroke:#d62728;stroke-linejoin:miter;" x="424.682172" xlink:href="#m6683312bdd" y="58.291633"/>
     </g>
    </g>
    <g id="text_19">
     <!-- Upper limit -->
     <defs>
      <path d="M 18.109375 8.203125 
L 18.109375 -20.796875 
L 9.078125 -20.796875 
L 9.078125 54.6875 
L 18.109375 54.6875 
L 18.109375 46.390625 
Q 20.953125 51.265625 25.265625 53.625 
Q 29.59375 56 35.59375 56 
Q 45.5625 56 51.78125 48.09375 
Q 58.015625 40.1875 58.015625 27.296875 
Q 58.015625 14.40625 51.78125 6.484375 
Q 45.5625 -1.421875 35.59375 -1.421875 
Q 29.59375 -1.421875 25.265625 0.953125 
Q 20.953125 3.328125 18.109375 8.203125 
z
M 48.6875 27.296875 
Q 48.6875 37.203125 44.609375 42.84375 
Q 40.53125 48.484375 33.40625 48.484375 
Q 26.265625 48.484375 22.1875 42.84375 
Q 18.109375 37.203125 18.109375 27.296875 
Q 18.109375 17.390625 22.1875 11.75 
Q 26.265625 6.109375 33.40625 6.109375 
Q 40.53125 6.109375 44.609375 11.75 
Q 48.6875 17.390625 48.6875 27.296875 
z
" id="DejaVuSans-112"/>
     </defs>
     <g transform="translate(439.676172 61.207133)scale(0.0833 -0.0833)">
      <use xlink:href="#DejaVuSans-85"/>
      <use x="73.193359" xlink:href="#DejaVuSans-112"/>
      <use x="136.669922" xlink:href="#DejaVuSans-112"/>
      <use x="200.146484" xlink:href="#DejaVuSans-101"/>
      <use x="261.669922" xlink:href="#DejaVuSans-114"/>
      <use x="302.783203" xlink:href="#DejaVuSans-32"/>
      <use x="334.570312" xlink:href="#DejaVuSans-108"/>
      <use x="362.353516" xlink:href="#DejaVuSans-105"/>
      <use x="390.136719" xlink:href="#DejaVuSans-109"/>
      <use x="487.548828" xlink:href="#DejaVuSans-105"/>
      <use x="515.332031" xlink:href="#DejaVuSans-116"/>
     </g>
    </g>
   </g>
  </g>
 </g>
 <defs>
  <clipPath id="p383426e6a6">
   <rect height="166.32" width="446.4" x="46.965625" y="10.7"/>
  </clipPath>
 </defs>
</svg>
