<?xml version="1.0" encoding="utf-8" standalone="no"?>
<!DOCTYPE svg PUBLIC "-//W3C//DTD SVG 1.1//EN"
  "http://www.w3.org/Graphics/SVG/1.1/DTD/svg11.dtd">
<!-- Created with matplotlib (https://matplotlib.org/) -->
<svg height="214.57625pt" version="1.1" viewBox="0 0 504.065625 214.57625" width="504.065625pt" xmlns="http://www.w3.org/2000/svg" xmlns:xlink="http://www.w3.org/1999/xlink">
 <defs>
  <style type="text/css">
*{stroke-linecap:butt;stroke-linejoin:round;}
  </style>
 </defs>
 <g id="figure_1">
  <g id="patch_1">
   <path d="M 0 214.57625 
L 504.065625 214.57625 
L 504.065625 0 
L 0 0 
z
" style="fill:#ffffff;"/>
  </g>
  <g id="axes_1">
   <g id="patch_2">
    <path d="M 46.965625 177.02 
L 493.365625 177.02 
L 493.365625 10.7 
L 46.965625 10.7 
z
" style="fill:#ffffff;"/>
   </g>
   <g id="matplotlib.axis_1">
    <g id="xtick_1">
     <g id="line2d_1">
      <path clip-path="url(#p0568198d16)" d="M 59.967567 177.02 
L 59.967567 10.7 
" style="fill:none;stroke:#b0b0b0;stroke-linecap:square;stroke-width:0.8;"/>
     </g>
     <g id="line2d_2">
      <defs>
       <path d="M 0 0 
L 0 3.5 
" id="m7573a5d853" style="stroke:#000000;stroke-width:0.8;"/>
      </defs>
      <g>
       <use style="stroke:#000000;stroke-width:0.8;" x="59.967567" xlink:href="#m7573a5d853" y="177.02"/>
      </g>
     </g>
     <g id="text_1">
      <!-- 0 -->
      <defs>
       <path d="M 31.78125 66.40625 
Q 24.171875 66.40625 20.328125 58.90625 
Q 16.5 51.421875 16.5 36.375 
Q 16.5 21.390625 20.328125 13.890625 
Q 24.171875 6.390625 31.78125 6.390625 
Q 39.453125 6.390625 43.28125 13.890625 
Q 47.125 21.390625 47.125 36.375 
Q 47.125 51.421875 43.28125 58.90625 
Q 39.453125 66.40625 31.78125 66.40625 
z
M 31.78125 74.21875 
Q 44.046875 74.21875 50.515625 64.515625 
Q 56.984375 54.828125 56.984375 36.375 
Q 56.984375 17.96875 50.515625 8.265625 
Q 44.046875 -1.421875 31.78125 -1.421875 
Q 19.53125 -1.421875 13.0625 8.265625 
Q 6.59375 17.96875 6.59375 36.375 
Q 6.59375 54.828125 13.0625 64.515625 
Q 19.53125 74.21875 31.78125 74.21875 
z
" id="DejaVuSans-48"/>
      </defs>
      <g transform="translate(56.786317 191.618438)scale(0.1 -0.1)">
       <use xlink:href="#DejaVuSans-48"/>
      </g>
     </g>
    </g>
    <g id="xtick_2">
     <g id="line2d_3">
      <path clip-path="url(#p0568198d16)" d="M 103.307373 177.02 
L 103.307373 10.7 
" style="fill:none;stroke:#b0b0b0;stroke-linecap:square;stroke-width:0.8;"/>
     </g>
     <g id="line2d_4">
      <g>
       <use style="stroke:#000000;stroke-width:0.8;" x="103.307373" xlink:href="#m7573a5d853" y="177.02"/>
      </g>
     </g>
     <g id="text_2">
      <!-- 100 -->
      <defs>
       <path d="M 12.40625 8.296875 
L 28.515625 8.296875 
L 28.515625 63.921875 
L 10.984375 60.40625 
L 10.984375 69.390625 
L 28.421875 72.90625 
L 38.28125 72.90625 
L 38.28125 8.296875 
L 54.390625 8.296875 
L 54.390625 0 
L 12.40625 0 
z
" id="DejaVuSans-49"/>
      </defs>
      <g transform="translate(93.763623 191.618438)scale(0.1 -0.1)">
       <use xlink:href="#DejaVuSans-49"/>
       <use x="63.623047" xlink:href="#DejaVuSans-48"/>
       <use x="127.246094" xlink:href="#DejaVuSans-48"/>
      </g>
     </g>
    </g>
    <g id="xtick_3">
     <g id="line2d_5">
      <path clip-path="url(#p0568198d16)" d="M 146.647178 177.02 
L 146.647178 10.7 
" style="fill:none;stroke:#b0b0b0;stroke-linecap:square;stroke-width:0.8;"/>
     </g>
     <g id="line2d_6">
      <g>
       <use style="stroke:#000000;stroke-width:0.8;" x="146.647178" xlink:href="#m7573a5d853" y="177.02"/>
      </g>
     </g>
     <g id="text_3">
      <!-- 200 -->
      <defs>
       <path d="M 19.1875 8.296875 
L 53.609375 8.296875 
L 53.609375 0 
L 7.328125 0 
L 7.328125 8.296875 
Q 12.9375 14.109375 22.625 23.890625 
Q 32.328125 33.6875 34.8125 36.53125 
Q 39.546875 41.84375 41.421875 45.53125 
Q 43.3125 49.21875 43.3125 52.78125 
Q 43.3125 58.59375 39.234375 62.25 
Q 35.15625 65.921875 28.609375 65.921875 
Q 23.96875 65.921875 18.8125 64.3125 
Q 13.671875 62.703125 7.8125 59.421875 
L 7.8125 69.390625 
Q 13.765625 71.78125 18.9375 73 
Q 24.125 74.21875 28.421875 74.21875 
Q 39.75 74.21875 46.484375 68.546875 
Q 53.21875 62.890625 53.21875 53.421875 
Q 53.21875 48.921875 51.53125 44.890625 
Q 49.859375 40.875 45.40625 35.40625 
Q 44.1875 33.984375 37.640625 27.21875 
Q 31.109375 20.453125 19.1875 8.296875 
z
" id="DejaVuSans-50"/>
      </defs>
      <g transform="translate(137.103428 191.618438)scale(0.1 -0.1)">
       <use xlink:href="#DejaVuSans-50"/>
       <use x="63.623047" xlink:href="#DejaVuSans-48"/>
       <use x="127.246094" xlink:href="#DejaVuSans-48"/>
      </g>
     </g>
    </g>
    <g id="xtick_4">
     <g id="line2d_7">
      <path clip-path="url(#p0568198d16)" d="M 189.986984 177.02 
L 189.986984 10.7 
" style="fill:none;stroke:#b0b0b0;stroke-linecap:square;stroke-width:0.8;"/>
     </g>
     <g id="line2d_8">
      <g>
       <use style="stroke:#000000;stroke-width:0.8;" x="189.986984" xlink:href="#m7573a5d853" y="177.02"/>
      </g>
     </g>
     <g id="text_4">
      <!-- 300 -->
      <defs>
       <path d="M 40.578125 39.3125 
Q 47.65625 37.796875 51.625 33 
Q 55.609375 28.21875 55.609375 21.1875 
Q 55.609375 10.40625 48.1875 4.484375 
Q 40.765625 -1.421875 27.09375 -1.421875 
Q 22.515625 -1.421875 17.65625 -0.515625 
Q 12.796875 0.390625 7.625 2.203125 
L 7.625 11.71875 
Q 11.71875 9.328125 16.59375 8.109375 
Q 21.484375 6.890625 26.8125 6.890625 
Q 36.078125 6.890625 40.9375 10.546875 
Q 45.796875 14.203125 45.796875 21.1875 
Q 45.796875 27.640625 41.28125 31.265625 
Q 36.765625 34.90625 28.71875 34.90625 
L 20.21875 34.90625 
L 20.21875 43.015625 
L 29.109375 43.015625 
Q 36.375 43.015625 40.234375 45.921875 
Q 44.09375 48.828125 44.09375 54.296875 
Q 44.09375 59.90625 40.109375 62.90625 
Q 36.140625 65.921875 28.71875 65.921875 
Q 24.65625 65.921875 20.015625 65.03125 
Q 15.375 64.15625 9.8125 62.3125 
L 9.8125 71.09375 
Q 15.4375 72.65625 20.34375 73.4375 
Q 25.25 74.21875 29.59375 74.21875 
Q 40.828125 74.21875 47.359375 69.109375 
Q 53.90625 64.015625 53.90625 55.328125 
Q 53.90625 49.265625 50.4375 45.09375 
Q 46.96875 40.921875 40.578125 39.3125 
z
" id="DejaVuSans-51"/>
      </defs>
      <g transform="translate(180.443234 191.618438)scale(0.1 -0.1)">
       <use xlink:href="#DejaVuSans-51"/>
       <use x="63.623047" xlink:href="#DejaVuSans-48"/>
       <use x="127.246094" xlink:href="#DejaVuSans-48"/>
      </g>
     </g>
    </g>
    <g id="xtick_5">
     <g id="line2d_9">
      <path clip-path="url(#p0568198d16)" d="M 233.32679 177.02 
L 233.32679 10.7 
" style="fill:none;stroke:#b0b0b0;stroke-linecap:square;stroke-width:0.8;"/>
     </g>
     <g id="line2d_10">
      <g>
       <use style="stroke:#000000;stroke-width:0.8;" x="233.32679" xlink:href="#m7573a5d853" y="177.02"/>
      </g>
     </g>
     <g id="text_5">
      <!-- 400 -->
      <defs>
       <path d="M 37.796875 64.3125 
L 12.890625 25.390625 
L 37.796875 25.390625 
z
M 35.203125 72.90625 
L 47.609375 72.90625 
L 47.609375 25.390625 
L 58.015625 25.390625 
L 58.015625 17.1875 
L 47.609375 17.1875 
L 47.609375 0 
L 37.796875 0 
L 37.796875 17.1875 
L 4.890625 17.1875 
L 4.890625 26.703125 
z
" id="DejaVuSans-52"/>
      </defs>
      <g transform="translate(223.78304 191.618438)scale(0.1 -0.1)">
       <use xlink:href="#DejaVuSans-52"/>
       <use x="63.623047" xlink:href="#DejaVuSans-48"/>
       <use x="127.246094" xlink:href="#DejaVuSans-48"/>
      </g>
     </g>
    </g>
    <g id="xtick_6">
     <g id="line2d_11">
      <path clip-path="url(#p0568198d16)" d="M 276.666596 177.02 
L 276.666596 10.7 
" style="fill:none;stroke:#b0b0b0;stroke-linecap:square;stroke-width:0.8;"/>
     </g>
     <g id="line2d_12">
      <g>
       <use style="stroke:#000000;stroke-width:0.8;" x="276.666596" xlink:href="#m7573a5d853" y="177.02"/>
      </g>
     </g>
     <g id="text_6">
      <!-- 500 -->
      <defs>
       <path d="M 10.796875 72.90625 
L 49.515625 72.90625 
L 49.515625 64.59375 
L 19.828125 64.59375 
L 19.828125 46.734375 
Q 21.96875 47.46875 24.109375 47.828125 
Q 26.265625 48.1875 28.421875 48.1875 
Q 40.625 48.1875 47.75 41.5 
Q 54.890625 34.8125 54.890625 23.390625 
Q 54.890625 11.625 47.5625 5.09375 
Q 40.234375 -1.421875 26.90625 -1.421875 
Q 22.3125 -1.421875 17.546875 -0.640625 
Q 12.796875 0.140625 7.71875 1.703125 
L 7.71875 11.625 
Q 12.109375 9.234375 16.796875 8.0625 
Q 21.484375 6.890625 26.703125 6.890625 
Q 35.15625 6.890625 40.078125 11.328125 
Q 45.015625 15.765625 45.015625 23.390625 
Q 45.015625 31 40.078125 35.4375 
Q 35.15625 39.890625 26.703125 39.890625 
Q 22.75 39.890625 18.8125 39.015625 
Q 14.890625 38.140625 10.796875 36.28125 
z
" id="DejaVuSans-53"/>
      </defs>
      <g transform="translate(267.122846 191.618438)scale(0.1 -0.1)">
       <use xlink:href="#DejaVuSans-53"/>
       <use x="63.623047" xlink:href="#DejaVuSans-48"/>
       <use x="127.246094" xlink:href="#DejaVuSans-48"/>
      </g>
     </g>
    </g>
    <g id="xtick_7">
     <g id="line2d_13">
      <path clip-path="url(#p0568198d16)" d="M 320.006402 177.02 
L 320.006402 10.7 
" style="fill:none;stroke:#b0b0b0;stroke-linecap:square;stroke-width:0.8;"/>
     </g>
     <g id="line2d_14">
      <g>
       <use style="stroke:#000000;stroke-width:0.8;" x="320.006402" xlink:href="#m7573a5d853" y="177.02"/>
      </g>
     </g>
     <g id="text_7">
      <!-- 600 -->
      <defs>
       <path d="M 33.015625 40.375 
Q 26.375 40.375 22.484375 35.828125 
Q 18.609375 31.296875 18.609375 23.390625 
Q 18.609375 15.53125 22.484375 10.953125 
Q 26.375 6.390625 33.015625 6.390625 
Q 39.65625 6.390625 43.53125 10.953125 
Q 47.40625 15.53125 47.40625 23.390625 
Q 47.40625 31.296875 43.53125 35.828125 
Q 39.65625 40.375 33.015625 40.375 
z
M 52.59375 71.296875 
L 52.59375 62.3125 
Q 48.875 64.0625 45.09375 64.984375 
Q 41.3125 65.921875 37.59375 65.921875 
Q 27.828125 65.921875 22.671875 59.328125 
Q 17.53125 52.734375 16.796875 39.40625 
Q 19.671875 43.65625 24.015625 45.921875 
Q 28.375 48.1875 33.59375 48.1875 
Q 44.578125 48.1875 50.953125 41.515625 
Q 57.328125 34.859375 57.328125 23.390625 
Q 57.328125 12.15625 50.6875 5.359375 
Q 44.046875 -1.421875 33.015625 -1.421875 
Q 20.359375 -1.421875 13.671875 8.265625 
Q 6.984375 17.96875 6.984375 36.375 
Q 6.984375 53.65625 15.1875 63.9375 
Q 23.390625 74.21875 37.203125 74.21875 
Q 40.921875 74.21875 44.703125 73.484375 
Q 48.484375 72.75 52.59375 71.296875 
z
" id="DejaVuSans-54"/>
      </defs>
      <g transform="translate(310.462652 191.618438)scale(0.1 -0.1)">
       <use xlink:href="#DejaVuSans-54"/>
       <use x="63.623047" xlink:href="#DejaVuSans-48"/>
       <use x="127.246094" xlink:href="#DejaVuSans-48"/>
      </g>
     </g>
    </g>
    <g id="xtick_8">
     <g id="line2d_15">
      <path clip-path="url(#p0568198d16)" d="M 363.346208 177.02 
L 363.346208 10.7 
" style="fill:none;stroke:#b0b0b0;stroke-linecap:square;stroke-width:0.8;"/>
     </g>
     <g id="line2d_16">
      <g>
       <use style="stroke:#000000;stroke-width:0.8;" x="363.346208" xlink:href="#m7573a5d853" y="177.02"/>
      </g>
     </g>
     <g id="text_8">
      <!-- 700 -->
      <defs>
       <path d="M 8.203125 72.90625 
L 55.078125 72.90625 
L 55.078125 68.703125 
L 28.609375 0 
L 18.3125 0 
L 43.21875 64.59375 
L 8.203125 64.59375 
z
" id="DejaVuSans-55"/>
      </defs>
      <g transform="translate(353.802458 191.618438)scale(0.1 -0.1)">
       <use xlink:href="#DejaVuSans-55"/>
       <use x="63.623047" xlink:href="#DejaVuSans-48"/>
       <use x="127.246094" xlink:href="#DejaVuSans-48"/>
      </g>
     </g>
    </g>
    <g id="xtick_9">
     <g id="line2d_17">
      <path clip-path="url(#p0568198d16)" d="M 406.686013 177.02 
L 406.686013 10.7 
" style="fill:none;stroke:#b0b0b0;stroke-linecap:square;stroke-width:0.8;"/>
     </g>
     <g id="line2d_18">
      <g>
       <use style="stroke:#000000;stroke-width:0.8;" x="406.686013" xlink:href="#m7573a5d853" y="177.02"/>
      </g>
     </g>
     <g id="text_9">
      <!-- 800 -->
      <defs>
       <path d="M 31.78125 34.625 
Q 24.75 34.625 20.71875 30.859375 
Q 16.703125 27.09375 16.703125 20.515625 
Q 16.703125 13.921875 20.71875 10.15625 
Q 24.75 6.390625 31.78125 6.390625 
Q 38.8125 6.390625 42.859375 10.171875 
Q 46.921875 13.96875 46.921875 20.515625 
Q 46.921875 27.09375 42.890625 30.859375 
Q 38.875 34.625 31.78125 34.625 
z
M 21.921875 38.8125 
Q 15.578125 40.375 12.03125 44.71875 
Q 8.5 49.078125 8.5 55.328125 
Q 8.5 64.0625 14.71875 69.140625 
Q 20.953125 74.21875 31.78125 74.21875 
Q 42.671875 74.21875 48.875 69.140625 
Q 55.078125 64.0625 55.078125 55.328125 
Q 55.078125 49.078125 51.53125 44.71875 
Q 48 40.375 41.703125 38.8125 
Q 48.828125 37.15625 52.796875 32.3125 
Q 56.78125 27.484375 56.78125 20.515625 
Q 56.78125 9.90625 50.3125 4.234375 
Q 43.84375 -1.421875 31.78125 -1.421875 
Q 19.734375 -1.421875 13.25 4.234375 
Q 6.78125 9.90625 6.78125 20.515625 
Q 6.78125 27.484375 10.78125 32.3125 
Q 14.796875 37.15625 21.921875 38.8125 
z
M 18.3125 54.390625 
Q 18.3125 48.734375 21.84375 45.5625 
Q 25.390625 42.390625 31.78125 42.390625 
Q 38.140625 42.390625 41.71875 45.5625 
Q 45.3125 48.734375 45.3125 54.390625 
Q 45.3125 60.0625 41.71875 63.234375 
Q 38.140625 66.40625 31.78125 66.40625 
Q 25.390625 66.40625 21.84375 63.234375 
Q 18.3125 60.0625 18.3125 54.390625 
z
" id="DejaVuSans-56"/>
      </defs>
      <g transform="translate(397.142263 191.618438)scale(0.1 -0.1)">
       <use xlink:href="#DejaVuSans-56"/>
       <use x="63.623047" xlink:href="#DejaVuSans-48"/>
       <use x="127.246094" xlink:href="#DejaVuSans-48"/>
      </g>
     </g>
    </g>
    <g id="xtick_10">
     <g id="line2d_19">
      <path clip-path="url(#p0568198d16)" d="M 450.025819 177.02 
L 450.025819 10.7 
" style="fill:none;stroke:#b0b0b0;stroke-linecap:square;stroke-width:0.8;"/>
     </g>
     <g id="line2d_20">
      <g>
       <use style="stroke:#000000;stroke-width:0.8;" x="450.025819" xlink:href="#m7573a5d853" y="177.02"/>
      </g>
     </g>
     <g id="text_10">
      <!-- 900 -->
      <defs>
       <path d="M 10.984375 1.515625 
L 10.984375 10.5 
Q 14.703125 8.734375 18.5 7.8125 
Q 22.3125 6.890625 25.984375 6.890625 
Q 35.75 6.890625 40.890625 13.453125 
Q 46.046875 20.015625 46.78125 33.40625 
Q 43.953125 29.203125 39.59375 26.953125 
Q 35.25 24.703125 29.984375 24.703125 
Q 19.046875 24.703125 12.671875 31.3125 
Q 6.296875 37.9375 6.296875 49.421875 
Q 6.296875 60.640625 12.9375 67.421875 
Q 19.578125 74.21875 30.609375 74.21875 
Q 43.265625 74.21875 49.921875 64.515625 
Q 56.59375 54.828125 56.59375 36.375 
Q 56.59375 19.140625 48.40625 8.859375 
Q 40.234375 -1.421875 26.421875 -1.421875 
Q 22.703125 -1.421875 18.890625 -0.6875 
Q 15.09375 0.046875 10.984375 1.515625 
z
M 30.609375 32.421875 
Q 37.25 32.421875 41.125 36.953125 
Q 45.015625 41.5 45.015625 49.421875 
Q 45.015625 57.28125 41.125 61.84375 
Q 37.25 66.40625 30.609375 66.40625 
Q 23.96875 66.40625 20.09375 61.84375 
Q 16.21875 57.28125 16.21875 49.421875 
Q 16.21875 41.5 20.09375 36.953125 
Q 23.96875 32.421875 30.609375 32.421875 
z
" id="DejaVuSans-57"/>
      </defs>
      <g transform="translate(440.482069 191.618438)scale(0.1 -0.1)">
       <use xlink:href="#DejaVuSans-57"/>
       <use x="63.623047" xlink:href="#DejaVuSans-48"/>
       <use x="127.246094" xlink:href="#DejaVuSans-48"/>
      </g>
     </g>
    </g>
    <g id="text_11">
     <!-- Time (s) -->
     <defs>
      <path d="M -0.296875 72.90625 
L 61.375 72.90625 
L 61.375 64.59375 
L 35.5 64.59375 
L 35.5 0 
L 25.59375 0 
L 25.59375 64.59375 
L -0.296875 64.59375 
z
" id="DejaVuSans-84"/>
      <path d="M 9.421875 54.6875 
L 18.40625 54.6875 
L 18.40625 0 
L 9.421875 0 
z
M 9.421875 75.984375 
L 18.40625 75.984375 
L 18.40625 64.59375 
L 9.421875 64.59375 
z
" id="DejaVuSans-105"/>
      <path d="M 52 44.1875 
Q 55.375 50.25 60.0625 53.125 
Q 64.75 56 71.09375 56 
Q 79.640625 56 84.28125 50.015625 
Q 88.921875 44.046875 88.921875 33.015625 
L 88.921875 0 
L 79.890625 0 
L 79.890625 32.71875 
Q 79.890625 40.578125 77.09375 44.375 
Q 74.3125 48.1875 68.609375 48.1875 
Q 61.625 48.1875 57.5625 43.546875 
Q 53.515625 38.921875 53.515625 30.90625 
L 53.515625 0 
L 44.484375 0 
L 44.484375 32.71875 
Q 44.484375 40.625 41.703125 44.40625 
Q 38.921875 48.1875 33.109375 48.1875 
Q 26.21875 48.1875 22.15625 43.53125 
Q 18.109375 38.875 18.109375 30.90625 
L 18.109375 0 
L 9.078125 0 
L 9.078125 54.6875 
L 18.109375 54.6875 
L 18.109375 46.1875 
Q 21.1875 51.21875 25.484375 53.609375 
Q 29.78125 56 35.6875 56 
Q 41.65625 56 45.828125 52.96875 
Q 50 49.953125 52 44.1875 
z
" id="DejaVuSans-109"/>
      <path d="M 56.203125 29.59375 
L 56.203125 25.203125 
L 14.890625 25.203125 
Q 15.484375 15.921875 20.484375 11.0625 
Q 25.484375 6.203125 34.421875 6.203125 
Q 39.59375 6.203125 44.453125 7.46875 
Q 49.3125 8.734375 54.109375 11.28125 
L 54.109375 2.78125 
Q 49.265625 0.734375 44.1875 -0.34375 
Q 39.109375 -1.421875 33.890625 -1.421875 
Q 20.796875 -1.421875 13.15625 6.1875 
Q 5.515625 13.8125 5.515625 26.8125 
Q 5.515625 40.234375 12.765625 48.109375 
Q 20.015625 56 32.328125 56 
Q 43.359375 56 49.78125 48.890625 
Q 56.203125 41.796875 56.203125 29.59375 
z
M 47.21875 32.234375 
Q 47.125 39.59375 43.09375 43.984375 
Q 39.0625 48.390625 32.421875 48.390625 
Q 24.90625 48.390625 20.390625 44.140625 
Q 15.875 39.890625 15.1875 32.171875 
z
" id="DejaVuSans-101"/>
      <path id="DejaVuSans-32"/>
      <path d="M 31 75.875 
Q 24.46875 64.65625 21.28125 53.65625 
Q 18.109375 42.671875 18.109375 31.390625 
Q 18.109375 20.125 21.3125 9.0625 
Q 24.515625 -2 31 -13.1875 
L 23.1875 -13.1875 
Q 15.875 -1.703125 12.234375 9.375 
Q 8.59375 20.453125 8.59375 31.390625 
Q 8.59375 42.28125 12.203125 53.3125 
Q 15.828125 64.359375 23.1875 75.875 
z
" id="DejaVuSans-40"/>
      <path d="M 44.28125 53.078125 
L 44.28125 44.578125 
Q 40.484375 46.53125 36.375 47.5 
Q 32.28125 48.484375 27.875 48.484375 
Q 21.1875 48.484375 17.84375 46.4375 
Q 14.5 44.390625 14.5 40.28125 
Q 14.5 37.15625 16.890625 35.375 
Q 19.28125 33.59375 26.515625 31.984375 
L 29.59375 31.296875 
Q 39.15625 29.25 43.1875 25.515625 
Q 47.21875 21.78125 47.21875 15.09375 
Q 47.21875 7.46875 41.1875 3.015625 
Q 35.15625 -1.421875 24.609375 -1.421875 
Q 20.21875 -1.421875 15.453125 -0.5625 
Q 10.6875 0.296875 5.421875 2 
L 5.421875 11.28125 
Q 10.40625 8.6875 15.234375 7.390625 
Q 20.0625 6.109375 24.8125 6.109375 
Q 31.15625 6.109375 34.5625 8.28125 
Q 37.984375 10.453125 37.984375 14.40625 
Q 37.984375 18.0625 35.515625 20.015625 
Q 33.0625 21.96875 24.703125 23.78125 
L 21.578125 24.515625 
Q 13.234375 26.265625 9.515625 29.90625 
Q 5.8125 33.546875 5.8125 39.890625 
Q 5.8125 47.609375 11.28125 51.796875 
Q 16.75 56 26.8125 56 
Q 31.78125 56 36.171875 55.265625 
Q 40.578125 54.546875 44.28125 53.078125 
z
" id="DejaVuSans-115"/>
      <path d="M 8.015625 75.875 
L 15.828125 75.875 
Q 23.140625 64.359375 26.78125 53.3125 
Q 30.421875 42.28125 30.421875 31.390625 
Q 30.421875 20.453125 26.78125 9.375 
Q 23.140625 -1.703125 15.828125 -13.1875 
L 8.015625 -13.1875 
Q 14.5 -2 17.703125 9.0625 
Q 20.90625 20.125 20.90625 31.390625 
Q 20.90625 42.671875 17.703125 53.65625 
Q 14.5 64.65625 8.015625 75.875 
z
" id="DejaVuSans-41"/>
     </defs>
     <g transform="translate(249.682812 205.296563)scale(0.1 -0.1)">
      <use xlink:href="#DejaVuSans-84"/>
      <use x="61.037109" xlink:href="#DejaVuSans-105"/>
      <use x="88.820312" xlink:href="#DejaVuSans-109"/>
      <use x="186.232422" xlink:href="#DejaVuSans-101"/>
      <use x="247.755859" xlink:href="#DejaVuSans-32"/>
      <use x="279.542969" xlink:href="#DejaVuSans-40"/>
      <use x="318.556641" xlink:href="#DejaVuSans-115"/>
      <use x="370.65625" xlink:href="#DejaVuSans-41"/>
     </g>
    </g>
   </g>
   <g id="matplotlib.axis_2">
    <g id="ytick_1">
     <g id="line2d_21">
      <path clip-path="url(#p0568198d16)" d="M 46.965625 177.02 
L 493.365625 177.02 
" style="fill:none;stroke:#b0b0b0;stroke-linecap:square;stroke-width:0.8;"/>
     </g>
     <g id="line2d_22">
      <defs>
       <path d="M 0 0 
L -3.5 0 
" id="m73c1e84f96" style="stroke:#000000;stroke-width:0.8;"/>
      </defs>
      <g>
       <use style="stroke:#000000;stroke-width:0.8;" x="46.965625" xlink:href="#m73c1e84f96" y="177.02"/>
      </g>
     </g>
     <g id="text_12">
      <!-- 0 -->
      <g transform="translate(33.603125 180.819219)scale(0.1 -0.1)">
       <use xlink:href="#DejaVuSans-48"/>
      </g>
     </g>
    </g>
    <g id="ytick_2">
     <g id="line2d_23">
      <path clip-path="url(#p0568198d16)" d="M 46.965625 137.42 
L 493.365625 137.42 
" style="fill:none;stroke:#b0b0b0;stroke-linecap:square;stroke-width:0.8;"/>
     </g>
     <g id="line2d_24">
      <g>
       <use style="stroke:#000000;stroke-width:0.8;" x="46.965625" xlink:href="#m73c1e84f96" y="137.42"/>
      </g>
     </g>
     <g id="text_13">
      <!-- 50 -->
      <g transform="translate(27.240625 141.219219)scale(0.1 -0.1)">
       <use xlink:href="#DejaVuSans-53"/>
       <use x="63.623047" xlink:href="#DejaVuSans-48"/>
      </g>
     </g>
    </g>
    <g id="ytick_3">
     <g id="line2d_25">
      <path clip-path="url(#p0568198d16)" d="M 46.965625 97.82 
L 493.365625 97.82 
" style="fill:none;stroke:#b0b0b0;stroke-linecap:square;stroke-width:0.8;"/>
     </g>
     <g id="line2d_26">
      <g>
       <use style="stroke:#000000;stroke-width:0.8;" x="46.965625" xlink:href="#m73c1e84f96" y="97.82"/>
      </g>
     </g>
     <g id="text_14">
      <!-- 100 -->
      <g transform="translate(20.878125 101.619219)scale(0.1 -0.1)">
       <use xlink:href="#DejaVuSans-49"/>
       <use x="63.623047" xlink:href="#DejaVuSans-48"/>
       <use x="127.246094" xlink:href="#DejaVuSans-48"/>
      </g>
     </g>
    </g>
    <g id="ytick_4">
     <g id="line2d_27">
      <path clip-path="url(#p0568198d16)" d="M 46.965625 58.22 
L 493.365625 58.22 
" style="fill:none;stroke:#b0b0b0;stroke-linecap:square;stroke-width:0.8;"/>
     </g>
     <g id="line2d_28">
      <g>
       <use style="stroke:#000000;stroke-width:0.8;" x="46.965625" xlink:href="#m73c1e84f96" y="58.22"/>
      </g>
     </g>
     <g id="text_15">
      <!-- 150 -->
      <g transform="translate(20.878125 62.019219)scale(0.1 -0.1)">
       <use xlink:href="#DejaVuSans-49"/>
       <use x="63.623047" xlink:href="#DejaVuSans-53"/>
       <use x="127.246094" xlink:href="#DejaVuSans-48"/>
      </g>
     </g>
    </g>
    <g id="ytick_5">
     <g id="line2d_29">
      <path clip-path="url(#p0568198d16)" d="M 46.965625 18.62 
L 493.365625 18.62 
" style="fill:none;stroke:#b0b0b0;stroke-linecap:square;stroke-width:0.8;"/>
     </g>
     <g id="line2d_30">
      <g>
       <use style="stroke:#000000;stroke-width:0.8;" x="46.965625" xlink:href="#m73c1e84f96" y="18.62"/>
      </g>
     </g>
     <g id="text_16">
      <!-- 200 -->
      <g transform="translate(20.878125 22.419219)scale(0.1 -0.1)">
       <use xlink:href="#DejaVuSans-50"/>
       <use x="63.623047" xlink:href="#DejaVuSans-48"/>
       <use x="127.246094" xlink:href="#DejaVuSans-48"/>
      </g>
     </g>
    </g>
    <g id="text_17">
     <!-- CPU (shares) -->
     <defs>
      <path d="M 60.59375 3.421875 
Q 53.859375 1.03125 47.65625 -0.1875 
Q 41.453125 -1.421875 35.890625 -1.421875 
Q 21.1875 -1.421875 12.390625 6.640625 
Q 3.609375 14.703125 3.609375 27.984375 
Q 3.609375 36.71875 6.390625 44.453125 
Q 9.1875 52.203125 14.59375 58.59375 
Q 21 66.109375 30 70.15625 
Q 39.015625 74.21875 49.421875 74.21875 
Q 55.078125 74.21875 60.78125 72.875 
Q 66.5 71.53125 72.40625 68.796875 
L 69.390625 53.71875 
Q 64.703125 57.28125 59.953125 58.9375 
Q 55.21875 60.59375 49.8125 60.59375 
Q 38.53125 60.59375 30.90625 51.90625 
Q 23.296875 43.21875 23.296875 30.171875 
Q 23.296875 21.78125 27.984375 16.984375 
Q 32.671875 12.203125 40.921875 12.203125 
Q 45.84375 12.203125 51.390625 13.984375 
Q 56.9375 15.765625 63.8125 19.578125 
z
" id="DejaVuSans-BoldOblique-67"/>
      <path d="M 16.3125 72.90625 
L 47.515625 72.90625 
Q 58.984375 72.90625 65.453125 67.65625 
Q 71.921875 62.40625 71.921875 53.078125 
Q 71.921875 47.359375 69.765625 42.203125 
Q 67.625 37.0625 63.625 33.203125 
Q 59.28125 29.046875 53.265625 27.171875 
Q 47.265625 25.296875 38.1875 25.296875 
L 25.78125 25.296875 
L 20.90625 0 
L 2.09375 0 
z
M 32.515625 59.28125 
L 28.515625 38.921875 
L 38.921875 38.921875 
Q 45.5625 38.921875 49.078125 42.046875 
Q 52.59375 45.171875 52.59375 51.125 
Q 52.59375 55.078125 50.078125 57.171875 
Q 47.5625 59.28125 42.828125 59.28125 
z
" id="DejaVuSans-BoldOblique-80"/>
      <path d="M 16.3125 72.90625 
L 35.109375 72.90625 
L 26.609375 29.25 
Q 26.125 26.90625 25.90625 25.09375 
Q 25.6875 23.296875 25.6875 21.921875 
Q 25.6875 17.140625 28.25 14.765625 
Q 30.8125 12.40625 35.890625 12.40625 
Q 42.71875 12.40625 46.375 16.234375 
Q 50.046875 20.0625 51.8125 29.203125 
L 60.296875 72.90625 
L 79.109375 72.90625 
L 70.609375 29.203125 
Q 67.4375 13.09375 58.5625 5.828125 
Q 49.703125 -1.421875 33.203125 -1.421875 
Q 20.265625 -1.421875 13.515625 4.125 
Q 6.78125 9.671875 6.78125 20.21875 
Q 6.78125 21.96875 7.03125 24.140625 
Q 7.28125 26.3125 7.8125 29.203125 
z
" id="DejaVuSans-BoldOblique-85"/>
      <path id="DejaVuSans-BoldOblique-32"/>
      <path d="M 29.5 -13.1875 
L 15.28125 -13.1875 
Q 11.46875 -5.078125 9.59375 2.703125 
Q 7.71875 10.5 7.71875 18.21875 
Q 7.71875 32.625 13.921875 47 
Q 20.125 61.375 32.625 75.875 
L 46.78125 75.875 
Q 35.40625 60.75 29.8125 45.921875 
Q 24.21875 31.109375 24.21875 16.21875 
Q 24.21875 8.890625 25.53125 1.578125 
Q 26.859375 -5.71875 29.5 -13.1875 
z
" id="DejaVuSans-BoldOblique-40"/>
      <path d="M 56 52.984375 
L 53.421875 39.40625 
Q 48.296875 41.84375 43.21875 43.109375 
Q 38.140625 44.390625 33.59375 44.390625 
Q 28.421875 44.390625 25.609375 43.046875 
Q 22.796875 41.703125 22.796875 39.203125 
Q 22.796875 37.75 24.359375 36.859375 
Q 25.921875 35.984375 30.515625 35.015625 
L 33.6875 34.421875 
Q 44.28125 32.171875 48.53125 28.625 
Q 52.78125 25.09375 52.78125 18.796875 
Q 52.78125 9.28125 45.3125 3.921875 
Q 37.84375 -1.421875 24.421875 -1.421875 
Q 18.796875 -1.421875 12.9375 -0.53125 
Q 7.078125 0.34375 0.984375 2.09375 
L 3.609375 15.828125 
Q 8.34375 13.03125 13.734375 11.609375 
Q 19.140625 10.203125 24.8125 10.203125 
Q 30.328125 10.203125 33.109375 11.515625 
Q 35.890625 12.84375 35.890625 15.375 
Q 35.890625 17.140625 34.328125 18.109375 
Q 32.765625 19.09375 27.875 20.125 
L 24.703125 20.703125 
Q 15.328125 22.65625 11.328125 26.46875 
Q 7.328125 30.28125 7.328125 37.015625 
Q 7.328125 46.140625 14.234375 51.0625 
Q 21.140625 56 33.984375 56 
Q 39.59375 56 45.03125 55.25 
Q 50.484375 54.5 56 52.984375 
z
" id="DejaVuSans-BoldOblique-115"/>
      <path d="M 64.5 33.296875 
L 58.015625 0 
L 40.484375 0 
L 46 28.515625 
Q 46.578125 31.296875 46.890625 33.21875 
Q 47.21875 35.15625 47.21875 36.28125 
Q 47.21875 39.40625 45.484375 41.109375 
Q 43.75 42.828125 40.578125 42.828125 
Q 35.15625 42.828125 31.265625 38.59375 
Q 27.390625 34.375 25.875 26.90625 
L 20.609375 0 
L 3.078125 0 
L 17.828125 75.984375 
L 35.40625 75.984375 
L 29.6875 46.6875 
Q 34.515625 51.421875 39.390625 53.703125 
Q 44.28125 56 49.609375 56 
Q 57.171875 56 61.265625 52.046875 
Q 65.375 48.09375 65.375 40.921875 
Q 65.375 39.359375 65.15625 37.453125 
Q 64.9375 35.546875 64.5 33.296875 
z
" id="DejaVuSans-BoldOblique-104"/>
      <path d="M 32.90625 24.609375 
Q 26.375 24.609375 23.015625 22.578125 
Q 19.671875 20.5625 19.671875 16.609375 
Q 19.671875 13.625 21.65625 11.90625 
Q 23.640625 10.203125 27.09375 10.203125 
Q 32.46875 10.203125 36.078125 13.453125 
Q 39.703125 16.703125 40.921875 22.609375 
L 41.3125 24.609375 
z
M 60.203125 31.203125 
L 54.109375 0 
L 36.625 0 
L 38.09375 8.109375 
Q 33.796875 3.21875 29 0.890625 
Q 24.21875 -1.421875 18.609375 -1.421875 
Q 10.84375 -1.421875 6.265625 2.609375 
Q 1.703125 6.640625 1.703125 13.484375 
Q 1.703125 23.921875 9.78125 29.46875 
Q 17.875 35.015625 33.109375 35.015625 
L 43.40625 35.015625 
L 43.609375 36.375 
Q 43.75 37.0625 43.765625 37.34375 
Q 43.796875 37.640625 43.796875 37.890625 
Q 43.796875 41.109375 40.75 42.75 
Q 37.703125 44.390625 31.6875 44.390625 
Q 26.265625 44.390625 21.1875 43.265625 
Q 16.109375 42.140625 11.375 39.890625 
L 14.015625 53.21875 
Q 19.484375 54.59375 25.21875 55.296875 
Q 30.953125 56 37.109375 56 
Q 49.265625 56 55.171875 51.828125 
Q 61.078125 47.65625 61.078125 39.109375 
Q 61.078125 37.453125 60.859375 35.46875 
Q 60.640625 33.5 60.203125 31.203125 
z
" id="DejaVuSans-BoldOblique-97"/>
      <path d="M 51.421875 39.796875 
Q 49.609375 40.828125 47.40625 41.359375 
Q 45.21875 41.890625 42.671875 41.890625 
Q 35.984375 41.890625 31.5625 37.59375 
Q 27.15625 33.296875 25.59375 25.203125 
L 20.609375 0 
L 3.078125 0 
L 13.71875 54.6875 
L 31.296875 54.6875 
L 29.390625 45.3125 
Q 32.859375 50.484375 38.0625 53.234375 
Q 43.265625 56 49.609375 56 
Q 50.53125 56 51.703125 55.90625 
Q 52.875 55.8125 54.5 55.609375 
z
" id="DejaVuSans-BoldOblique-114"/>
      <path d="M 62.890625 25.296875 
L 62.3125 22.515625 
L 21.390625 22.515625 
Q 21.390625 22.21875 21.34375 21.65625 
Q 21.296875 21.09375 21.296875 20.796875 
Q 21.296875 15.484375 24.484375 12.84375 
Q 27.6875 10.203125 34.078125 10.203125 
Q 39.59375 10.203125 45.71875 11.859375 
Q 51.859375 13.53125 58.59375 16.796875 
L 55.90625 3.21875 
Q 49.515625 0.875 43.1875 -0.265625 
Q 36.859375 -1.421875 30.328125 -1.421875 
Q 17.53125 -1.421875 10.5625 4.484375 
Q 3.609375 10.40625 3.609375 21.1875 
Q 3.609375 27.4375 5.828125 33.3125 
Q 8.0625 39.203125 12.3125 44.09375 
Q 17.328125 49.953125 24.328125 52.96875 
Q 31.34375 56 39.890625 56 
Q 50.984375 56 57.5 50.09375 
Q 64.015625 44.1875 64.015625 34.1875 
Q 64.015625 32.234375 63.75 30.046875 
Q 63.484375 27.875 62.890625 25.296875 
z
M 46.390625 33.296875 
Q 46.53125 33.9375 46.609375 34.59375 
Q 46.6875 35.25 46.6875 35.890625 
Q 46.6875 39.796875 44.34375 42.09375 
Q 42 44.390625 37.984375 44.390625 
Q 32.859375 44.390625 29.265625 41.578125 
Q 25.6875 38.765625 23.78125 33.296875 
z
" id="DejaVuSans-BoldOblique-101"/>
      <path d="M 14.59375 75.875 
L 28.90625 75.875 
Q 32.671875 67.875 34.515625 60.078125 
Q 36.375 52.296875 36.375 44.484375 
Q 36.375 29.9375 30.203125 15.546875 
Q 24.03125 1.171875 11.625 -13.1875 
L -2.6875 -13.1875 
Q 8.6875 1.953125 14.296875 16.796875 
Q 19.921875 31.640625 19.921875 46.578125 
Q 19.921875 53.90625 18.59375 61.15625 
Q 17.28125 68.40625 14.59375 75.875 
z
" id="DejaVuSans-BoldOblique-41"/>
     </defs>
     <g transform="translate(14.798437 130.307656)rotate(-90)scale(0.1 -0.1)">
      <use xlink:href="#DejaVuSans-BoldOblique-67"/>
      <use x="73.388672" xlink:href="#DejaVuSans-BoldOblique-80"/>
      <use x="146.679688" xlink:href="#DejaVuSans-BoldOblique-85"/>
      <use x="227.880859" xlink:href="#DejaVuSans-BoldOblique-32"/>
      <use x="262.695312" xlink:href="#DejaVuSans-BoldOblique-40"/>
      <use x="308.398438" xlink:href="#DejaVuSans-BoldOblique-115"/>
      <use x="367.919922" xlink:href="#DejaVuSans-BoldOblique-104"/>
      <use x="439.111328" xlink:href="#DejaVuSans-BoldOblique-97"/>
      <use x="506.591797" xlink:href="#DejaVuSans-BoldOblique-114"/>
      <use x="555.908203" xlink:href="#DejaVuSans-BoldOblique-101"/>
      <use x="623.730469" xlink:href="#DejaVuSans-BoldOblique-115"/>
      <use x="683.251953" xlink:href="#DejaVuSans-BoldOblique-41"/>
     </g>
    </g>
   </g>
   <g id="line2d_31">
    <path clip-path="url(#p0568198d16)" d="M 59.967567 174.8024 
L 64.301547 174.8024 
L 66.468538 172.268 
L 67.611997 -1 
M 110.327426 -1 
L 111.975334 173.06 
L 114.142324 175.7528 
L 116.309314 32.717599 
L 117.329831 -1 
M 161.199903 -1 
L 161.81611 84.356001 
L 163.983101 168.9416 
L 166.150091 162.764 
L 168.317081 173.5352 
L 169.528511 -1 
M 215.076705 -1 
L 215.990868 171.0008 
L 218.157858 175.5944 
L 220.324848 174.3272 
L 221.667077 -1 
M 265.843822 -1 
L 267.998635 171.0008 
L 270.165625 165.7736 
L 272.332615 15.9272 
L 272.452044 -1 
M 316.151294 -1 
L 317.839411 173.852 
L 320.006402 175.5944 
L 322.173392 171.1592 
L 323.803304 -1 
M 364.717755 -1 
L 365.513198 170.5256 
L 367.680188 175.436 
L 369.847178 176.0696 
L 372.014169 171.9512 
L 374.181159 162.764 
L 375.198585 -1 
M 417.292711 -1 
L 417.520965 29.5496 
L 419.687955 174.3272 
L 421.854945 175.9112 
L 424.021936 174.8024 
L 426.188926 20.362397 
L 426.3372 -1 
M 468.496021 -1 
L 469.528732 173.3768 
L 471.695722 175.5944 
L 473.862712 175.5944 
L 476.029703 161.18 
L 476.975441 -1 
L 476.975441 -1 
" style="fill:none;stroke:#1f77b4;stroke-dasharray:1.5,0;stroke-dashoffset:0;stroke-width:1.5;"/>
    <defs>
     <path d="M 0 3 
C 0.795609 3 1.55874 2.683901 2.12132 2.12132 
C 2.683901 1.55874 3 0.795609 3 0 
C 3 -0.795609 2.683901 -1.55874 2.12132 -2.12132 
C 1.55874 -2.683901 0.795609 -3 0 -3 
C -0.795609 -3 -1.55874 -2.683901 -2.12132 -2.12132 
C -2.683901 -1.55874 -3 -0.795609 -3 0 
C -3 0.795609 -2.683901 1.55874 -2.12132 2.12132 
C -1.55874 2.683901 -0.795609 3 0 3 
z
" id="md2e1a7a57e" style="stroke:#1f77b4;"/>
    </defs>
    <g clip-path="url(#p0568198d16)">
     <use style="fill:#1f77b4;stroke:#1f77b4;" x="59.967567" xlink:href="#md2e1a7a57e" y="174.8024"/>
     <use style="fill:#1f77b4;stroke:#1f77b4;" x="64.084417" xlink:href="#md2e1a7a57e" y="-1"/>
     <use style="fill:#1f77b4;stroke:#1f77b4;" x="109.497557" xlink:href="#md2e1a7a57e" y="-1"/>
     <use style="fill:#1f77b4;stroke:#1f77b4;" x="114.142324" xlink:href="#md2e1a7a57e" y="175.7528"/>
     <use style="fill:#1f77b4;stroke:#1f77b4;" x="118.225515" xlink:href="#md2e1a7a57e" y="-1"/>
     <use style="fill:#1f77b4;stroke:#1f77b4;" x="163.830558" xlink:href="#md2e1a7a57e" y="-1"/>
     <use style="fill:#1f77b4;stroke:#1f77b4;" x="168.317081" xlink:href="#md2e1a7a57e" y="173.5352"/>
     <use style="fill:#1f77b4;stroke:#1f77b4;" x="172.336825" xlink:href="#md2e1a7a57e" y="-1"/>
     <use style="fill:#1f77b4;stroke:#1f77b4;" x="313.532933" xlink:href="#md2e1a7a57e" y="-1"/>
     <use style="fill:#1f77b4;stroke:#1f77b4;" x="320.006402" xlink:href="#md2e1a7a57e" y="175.5944"/>
     <use style="fill:#1f77b4;stroke:#1f77b4;" x="324.061284" xlink:href="#md2e1a7a57e" y="-1"/>
     <use style="fill:#1f77b4;stroke:#1f77b4;" x="370.319779" xlink:href="#md2e1a7a57e" y="-1"/>
     <use style="fill:#1f77b4;stroke:#1f77b4;" x="374.181159" xlink:href="#md2e1a7a57e" y="162.764"/>
     <use style="fill:#1f77b4;stroke:#1f77b4;" x="378.027952" xlink:href="#md2e1a7a57e" y="-1"/>
     <use style="fill:#1f77b4;stroke:#1f77b4;" x="416.330271" xlink:href="#md2e1a7a57e" y="-1"/>
     <use style="fill:#1f77b4;stroke:#1f77b4;" x="417.520965" xlink:href="#md2e1a7a57e" y="29.5496"/>
     <use style="fill:#1f77b4;stroke:#1f77b4;" x="418.550865" xlink:href="#md2e1a7a57e" y="-1"/>
     <use style="fill:#1f77b4;stroke:#1f77b4;" x="467.421308" xlink:href="#md2e1a7a57e" y="-1"/>
     <use style="fill:#1f77b4;stroke:#1f77b4;" x="471.695722" xlink:href="#md2e1a7a57e" y="175.5944"/>
     <use style="fill:#1f77b4;stroke:#1f77b4;" x="475.8697" xlink:href="#md2e1a7a57e" y="-1"/>
     <use style="fill:#1f77b4;stroke:#1f77b4;" x="521.186875" xlink:href="#md2e1a7a57e" y="-1"/>
     <use style="fill:#1f77b4;stroke:#1f77b4;" x="525.870479" xlink:href="#md2e1a7a57e" y="168.4664"/>
     <use style="fill:#1f77b4;stroke:#1f77b4;" x="529.820026" xlink:href="#md2e1a7a57e" y="-1"/>
     <use style="fill:#1f77b4;stroke:#1f77b4;" x="627.53068" xlink:href="#md2e1a7a57e" y="-1"/>
     <use style="fill:#1f77b4;stroke:#1f77b4;" x="634.219994" xlink:href="#md2e1a7a57e" y="169.2584"/>
    </g>
   </g>
   <g id="patch_3">
    <path d="M 46.965625 177.02 
L 46.965625 10.7 
" style="fill:none;stroke:#000000;stroke-linecap:square;stroke-linejoin:miter;stroke-width:0.8;"/>
   </g>
   <g id="patch_4">
    <path d="M 493.365625 177.02 
L 493.365625 10.7 
" style="fill:none;stroke:#000000;stroke-linecap:square;stroke-linejoin:miter;stroke-width:0.8;"/>
   </g>
   <g id="patch_5">
    <path d="M 46.965625 177.02 
L 493.365625 177.02 
" style="fill:none;stroke:#000000;stroke-linecap:square;stroke-linejoin:miter;stroke-width:0.8;"/>
   </g>
   <g id="patch_6">
    <path d="M 46.965625 10.7 
L 493.365625 10.7 
" style="fill:none;stroke:#000000;stroke-linecap:square;stroke-linejoin:miter;stroke-width:0.8;"/>
   </g>
   <g id="legend_1">
    <g id="patch_7">
     <path d="M 440.028895 29.590878 
L 487.534625 29.590878 
Q 489.200625 29.590878 489.200625 27.924878 
L 489.200625 16.531 
Q 489.200625 14.865 487.534625 14.865 
L 440.028895 14.865 
Q 438.362895 14.865 438.362895 16.531 
L 438.362895 27.924878 
Q 438.362895 29.590878 440.028895 29.590878 
z
" style="fill:#afeeee;opacity:0.8;stroke:#cccccc;stroke-linejoin:miter;"/>
    </g>
    <g id="line2d_32">
     <path d="M 441.694895 21.610998 
L 458.354895 21.610998 
" style="fill:none;stroke:#1f77b4;stroke-dasharray:1.5,0;stroke-dashoffset:0;stroke-width:1.5;"/>
    </g>
    <g id="line2d_33">
     <g>
      <use style="fill:#1f77b4;stroke:#1f77b4;" x="450.024895" xlink:href="#md2e1a7a57e" y="21.610998"/>
     </g>
    </g>
    <g id="text_18">
     <!-- Used -->
     <defs>
      <path d="M 8.6875 72.90625 
L 18.609375 72.90625 
L 18.609375 28.609375 
Q 18.609375 16.890625 22.84375 11.734375 
Q 27.09375 6.59375 36.625 6.59375 
Q 46.09375 6.59375 50.34375 11.734375 
Q 54.59375 16.890625 54.59375 28.609375 
L 54.59375 72.90625 
L 64.5 72.90625 
L 64.5 27.390625 
Q 64.5 13.140625 57.4375 5.859375 
Q 50.390625 -1.421875 36.625 -1.421875 
Q 22.796875 -1.421875 15.734375 5.859375 
Q 8.6875 13.140625 8.6875 27.390625 
z
" id="DejaVuSans-85"/>
      <path d="M 45.40625 46.390625 
L 45.40625 75.984375 
L 54.390625 75.984375 
L 54.390625 0 
L 45.40625 0 
L 45.40625 8.203125 
Q 42.578125 3.328125 38.25 0.953125 
Q 33.9375 -1.421875 27.875 -1.421875 
Q 17.96875 -1.421875 11.734375 6.484375 
Q 5.515625 14.40625 5.515625 27.296875 
Q 5.515625 40.1875 11.734375 48.09375 
Q 17.96875 56 27.875 56 
Q 33.9375 56 38.25 53.625 
Q 42.578125 51.265625 45.40625 46.390625 
z
M 14.796875 27.296875 
Q 14.796875 17.390625 18.875 11.75 
Q 22.953125 6.109375 30.078125 6.109375 
Q 37.203125 6.109375 41.296875 11.75 
Q 45.40625 17.390625 45.40625 27.296875 
Q 45.40625 37.203125 41.296875 42.84375 
Q 37.203125 48.484375 30.078125 48.484375 
Q 22.953125 48.484375 18.875 42.84375 
Q 14.796875 37.203125 14.796875 27.296875 
z
" id="DejaVuSans-100"/>
     </defs>
     <g transform="translate(465.018895 24.526498)scale(0.0833 -0.0833)">
      <use xlink:href="#DejaVuSans-85"/>
      <use x="73.193359" xlink:href="#DejaVuSans-115"/>
      <use x="125.292969" xlink:href="#DejaVuSans-101"/>
      <use x="186.816406" xlink:href="#DejaVuSans-100"/>
     </g>
    </g>
   </g>
  </g>
 </g>
 <defs>
  <clipPath id="p0568198d16">
   <rect height="166.32" width="446.4" x="46.965625" y="10.7"/>
  </clipPath>
 </defs>
</svg>
