<?xml version="1.0" encoding="UTF-8" standalone="no"?>
<!-- Created with Inkscape (http://www.inkscape.org/) -->

<svg
   xmlns:dc="http://purl.org/dc/elements/1.1/"
   xmlns:cc="http://creativecommons.org/ns#"
   xmlns:rdf="http://www.w3.org/1999/02/22-rdf-syntax-ns#"
   xmlns:svg="http://www.w3.org/2000/svg"
   xmlns="http://www.w3.org/2000/svg"
   xmlns:xlink="http://www.w3.org/1999/xlink"
   xmlns:sodipodi="http://sodipodi.sourceforge.net/DTD/sodipodi-0.dtd"
   xmlns:inkscape="http://www.inkscape.org/namespaces/inkscape"
   width="364.517mm"
   height="173.31239mm"
   viewBox="0 0 364.517 173.31239"
   version="1.1"
   id="svg8"
   inkscape:version="0.92.3 (2405546, 2018-03-11)"
   sodipodi:docname="logo.svg">
  <defs
     id="defs2">
    <marker
       inkscape:isstock="true"
       style="overflow:visible"
       id="marker34330"
       refX="0"
       refY="0"
       orient="auto"
       inkscape:stockid="EmptyTriangleOutL">
      <path
         transform="matrix(0.8,0,0,0.8,-4.8,0)"
         style="fill:#ffffff;fill-rule:evenodd;stroke:#000000;stroke-width:1.00000003pt;stroke-opacity:1"
         d="M 5.77,0 -2.88,5 V -5 Z"
         id="path34328"
         inkscape:connector-curvature="0" />
    </marker>
    <marker
       inkscape:stockid="Arrow1Lstart"
       orient="auto"
       refY="0"
       refX="0"
       id="Arrow1Lstart"
       style="overflow:visible"
       inkscape:isstock="true">
      <path
         id="path2506"
         d="M 0,0 5,-5 -12.5,0 5,5 Z"
         style="fill:#000000;fill-opacity:1;fill-rule:evenodd;stroke:#000000;stroke-width:1.00000003pt;stroke-opacity:1"
         transform="matrix(0.8,0,0,0.8,10,0)"
         inkscape:connector-curvature="0" />
    </marker>
    <marker
       inkscape:isstock="true"
       style="overflow:visible"
       id="marker15967"
       refX="0"
       refY="0"
       orient="auto"
       inkscape:stockid="Arrow1Lend">
      <path
         transform="matrix(-0.8,0,0,-0.8,-10,0)"
         style="fill:#000000;fill-opacity:1;fill-rule:evenodd;stroke:#000000;stroke-width:1.00000003pt;stroke-opacity:1"
         d="M 0,0 5,-5 -12.5,0 5,5 Z"
         id="path15965"
         inkscape:connector-curvature="0" />
    </marker>
    <linearGradient
       inkscape:collect="always"
       id="linearGradient12976">
      <stop
         style="stop-color:#a5e2ea;stop-opacity:1"
         offset="0"
         id="stop12972" />
      <stop
         style="stop-color:#ace4ec;stop-opacity:0;"
         offset="1"
         id="stop12974" />
    </linearGradient>
    <marker
       inkscape:stockid="EmptyTriangleOutL"
       orient="auto"
       refY="0"
       refX="0"
       id="EmptyTriangleOutL-1"
       style="overflow:visible"
       inkscape:isstock="true">
      <path
         inkscape:connector-curvature="0"
         id="path2666-3"
         d="M 5.77,0 -2.88,5 V -5 Z"
         style="fill:#ffffff;fill-rule:evenodd;stroke:#000000;stroke-width:1.00000003pt;stroke-opacity:1"
         transform="matrix(0.8,0,0,0.8,-4.8,0)" />
    </marker>
    <marker
       inkscape:stockid="EmptyTriangleOutL"
       orient="auto"
       refY="0"
       refX="0"
       id="EmptyTriangleOutL-8"
       style="overflow:visible"
       inkscape:isstock="true">
      <path
         inkscape:connector-curvature="0"
         id="path2666-5"
         d="M 5.77,0 -2.88,5 V -5 Z"
         style="fill:#ffffff;fill-rule:evenodd;stroke:#000000;stroke-width:1.00000003pt;stroke-opacity:1"
         transform="matrix(0.8,0,0,0.8,-4.8,0)" />
    </marker>
    <marker
       inkscape:stockid="EmptyTriangleOutL"
       orient="auto"
       refY="0"
       refX="0"
       id="EmptyTriangleOutL-8-2"
       style="overflow:visible"
       inkscape:isstock="true">
      <path
         inkscape:connector-curvature="0"
         id="path2666-5-2"
         d="M 5.77,0 -2.88,5 V -5 Z"
         style="fill:#ffffff;fill-rule:evenodd;stroke:#000000;stroke-width:1.00000003pt;stroke-opacity:1"
         transform="matrix(0.8,0,0,0.8,-4.8,0)" />
    </marker>
    <marker
       inkscape:stockid="EmptyTriangleOutL"
       orient="auto"
       refY="0"
       refX="0"
       id="EmptyTriangleOutL-8-2-6"
       style="overflow:visible"
       inkscape:isstock="true">
      <path
         inkscape:connector-curvature="0"
         id="path2666-5-2-3"
         d="M 5.77,0 -2.88,5 V -5 Z"
         style="fill:#ffffff;fill-rule:evenodd;stroke:#000000;stroke-width:1.00000003pt;stroke-opacity:1"
         transform="matrix(0.8,0,0,0.8,-4.8,0)" />
    </marker>
    <marker
       inkscape:stockid="EmptyTriangleOutL"
       orient="auto"
       refY="0"
       refX="0"
       id="EmptyTriangleOutL-8-2-1"
       style="overflow:visible"
       inkscape:isstock="true">
      <path
         inkscape:connector-curvature="0"
         id="path2666-5-2-0"
         d="M 5.77,0 -2.88,5 V -5 Z"
         style="fill:#ffffff;fill-rule:evenodd;stroke:#000000;stroke-width:1.00000003pt;stroke-opacity:1"
         transform="matrix(0.8,0,0,0.8,-4.8,0)" />
    </marker>
    <linearGradient
       inkscape:collect="always"
       xlink:href="#linearGradient12976"
       id="linearGradient12978"
       x1="134.17534"
       y1="218.48776"
       x2="54.583096"
       y2="142.25905"
       gradientUnits="userSpaceOnUse" />
    <marker
       inkscape:stockid="Arrow1Lend"
       orient="auto"
       refY="0"
       refX="0"
       id="marker2830-0"
       style="overflow:visible"
       inkscape:isstock="true">
      <path
         inkscape:connector-curvature="0"
         id="path2828-4"
         d="M 0,0 5,-5 -12.5,0 5,5 Z"
         style="fill:#000000;fill-opacity:1;fill-rule:evenodd;stroke:#000000;stroke-width:1.00000003pt;stroke-opacity:1"
         transform="matrix(-0.8,0,0,-0.8,-10,0)" />
    </marker>
    <marker
       inkscape:stockid="Arrow1Lend"
       orient="auto"
       refY="0"
       refX="0"
       id="marker2830-0-3"
       style="overflow:visible"
       inkscape:isstock="true">
      <path
         inkscape:connector-curvature="0"
         id="path2828-4-4"
         d="M 0,0 5,-5 -12.5,0 5,5 Z"
         style="fill:#000000;fill-opacity:1;fill-rule:evenodd;stroke:#000000;stroke-width:1.00000003pt;stroke-opacity:1"
         transform="matrix(-0.8,0,0,-0.8,-10,0)" />
    </marker>
    <marker
       inkscape:stockid="Arrow1Lend"
       orient="auto"
       refY="0"
       refX="0"
       id="marker2830-0-3-4"
       style="overflow:visible"
       inkscape:isstock="true">
      <path
         inkscape:connector-curvature="0"
         id="path2828-4-4-5"
         d="M 0,0 5,-5 -12.5,0 5,5 Z"
         style="fill:#000000;fill-opacity:1;fill-rule:evenodd;stroke:#000000;stroke-width:1.00000003pt;stroke-opacity:1"
         transform="matrix(-0.8,0,0,-0.8,-10,0)" />
    </marker>
    <marker
       inkscape:stockid="Arrow1Lend"
       orient="auto"
       refY="0"
       refX="0"
       id="marker2830-0-3-8"
       style="overflow:visible"
       inkscape:isstock="true">
      <path
         inkscape:connector-curvature="0"
         id="path2828-4-4-1"
         d="M 0,0 5,-5 -12.5,0 5,5 Z"
         style="fill:#000000;fill-opacity:1;fill-rule:evenodd;stroke:#000000;stroke-width:1.00000003pt;stroke-opacity:1"
         transform="matrix(-0.8,0,0,-0.8,-10,0)" />
    </marker>
    <marker
       inkscape:stockid="Arrow1Lend"
       orient="auto"
       refY="0"
       refX="0"
       id="marker2830-0-3-8-3"
       style="overflow:visible"
       inkscape:isstock="true">
      <path
         inkscape:connector-curvature="0"
         id="path2828-4-4-1-1"
         d="M 0,0 5,-5 -12.5,0 5,5 Z"
         style="fill:#000000;fill-opacity:1;fill-rule:evenodd;stroke:#000000;stroke-width:1.00000003pt;stroke-opacity:1"
         transform="matrix(-0.8,0,0,-0.8,-10,0)" />
    </marker>
    <marker
       inkscape:stockid="Arrow1Lstart"
       orient="auto"
       refY="0"
       refX="0"
       id="Arrow1Lstart-8"
       style="overflow:visible"
       inkscape:isstock="true">
      <path
         inkscape:connector-curvature="0"
         id="path2506-1"
         d="M 0,0 5,-5 -12.5,0 5,5 Z"
         style="fill:#000000;fill-opacity:1;fill-rule:evenodd;stroke:#000000;stroke-width:1.00000003pt;stroke-opacity:1"
         transform="matrix(0.8,0,0,0.8,10,0)" />
    </marker>
    <marker
       inkscape:stockid="Arrow1Lstart"
       orient="auto"
       refY="0"
       refX="0"
       id="Arrow1Lstart-8-3"
       style="overflow:visible"
       inkscape:isstock="true">
      <path
         inkscape:connector-curvature="0"
         id="path2506-1-9"
         d="M 0,0 5,-5 -12.5,0 5,5 Z"
         style="fill:#000000;fill-opacity:1;fill-rule:evenodd;stroke:#000000;stroke-width:1.00000003pt;stroke-opacity:1"
         transform="matrix(0.8,0,0,0.8,10,0)" />
    </marker>
    <marker
       inkscape:stockid="EmptyTriangleOutL"
       orient="auto"
       refY="0"
       refX="0"
       id="EmptyTriangleOutL-8-2-1-4"
       style="overflow:visible"
       inkscape:isstock="true">
      <path
         inkscape:connector-curvature="0"
         id="path2666-5-2-0-1"
         d="M 5.77,0 -2.88,5 V -5 Z"
         style="fill:#ffffff;fill-rule:evenodd;stroke:#000000;stroke-width:1.00000003pt;stroke-opacity:1"
         transform="matrix(0.8,0,0,0.8,-4.8,0)" />
    </marker>
    <marker
       inkscape:stockid="EmptyTriangleOutL"
       orient="auto"
       refY="0"
       refX="0"
       id="EmptyTriangleOutL-8-2-6-1"
       style="overflow:visible"
       inkscape:isstock="true">
      <path
         inkscape:connector-curvature="0"
         id="path2666-5-2-3-8"
         d="M 5.77,0 -2.88,5 V -5 Z"
         style="fill:#ffffff;fill-rule:evenodd;stroke:#000000;stroke-width:1.00000003pt;stroke-opacity:1"
         transform="matrix(0.8,0,0,0.8,-4.8,0)" />
    </marker>
    <marker
       inkscape:stockid="EmptyTriangleOutL"
       orient="auto"
       refY="0"
       refX="0"
       id="EmptyTriangleOutL-8-2-64"
       style="overflow:visible"
       inkscape:isstock="true">
      <path
         inkscape:connector-curvature="0"
         id="path2666-5-2-34"
         d="M 5.77,0 -2.88,5 V -5 Z"
         style="fill:#ffffff;fill-rule:evenodd;stroke:#000000;stroke-width:1.00000003pt;stroke-opacity:1"
         transform="matrix(0.8,0,0,0.8,-4.8,0)" />
    </marker>
    <marker
       inkscape:stockid="EmptyTriangleOutL"
       orient="auto"
       refY="0"
       refX="0"
       id="EmptyTriangleOutL-1-7"
       style="overflow:visible"
       inkscape:isstock="true">
      <path
         inkscape:connector-curvature="0"
         id="path2666-3-0"
         d="M 5.77,0 -2.88,5 V -5 Z"
         style="fill:#ffffff;fill-rule:evenodd;stroke:#000000;stroke-width:1.00000003pt;stroke-opacity:1"
         transform="matrix(0.8,0,0,0.8,-4.8,0)" />
    </marker>
    <marker
       inkscape:stockid="EmptyTriangleOutL"
       orient="auto"
       refY="0"
       refX="0"
       id="EmptyTriangleOutL-7"
       style="overflow:visible"
       inkscape:isstock="true">
      <path
         inkscape:connector-curvature="0"
         id="path2666-4"
         d="M 5.77,0 -2.88,5 V -5 Z"
         style="fill:#ffffff;fill-rule:evenodd;stroke:#000000;stroke-width:1.00000003pt;stroke-opacity:1"
         transform="matrix(0.8,0,0,0.8,-4.8,0)" />
    </marker>
    <marker
       inkscape:stockid="EmptyTriangleOutL"
       orient="auto"
       refY="0"
       refX="0"
       id="EmptyTriangleOutL-8-5"
       style="overflow:visible"
       inkscape:isstock="true">
      <path
         inkscape:connector-curvature="0"
         id="path2666-5-3"
         d="M 5.77,0 -2.88,5 V -5 Z"
         style="fill:#ffffff;fill-rule:evenodd;stroke:#000000;stroke-width:1.00000003pt;stroke-opacity:1"
         transform="matrix(0.8,0,0,0.8,-4.8,0)" />
    </marker>
    <marker
       inkscape:isstock="true"
       style="overflow:visible"
       id="marker15967-2"
       refX="0"
       refY="0"
       orient="auto"
       inkscape:stockid="Arrow1Lend">
      <path
         inkscape:connector-curvature="0"
         transform="matrix(-0.8,0,0,-0.8,-10,0)"
         style="fill:#000000;fill-opacity:1;fill-rule:evenodd;stroke:#000000;stroke-width:1.00000003pt;stroke-opacity:1"
         d="M 0,0 5,-5 -12.5,0 5,5 Z"
         id="path15965-5" />
    </marker>
    <marker
       inkscape:isstock="true"
       style="overflow:visible"
       id="marker15967-2-2"
       refX="0"
       refY="0"
       orient="auto"
       inkscape:stockid="Arrow1Lend">
      <path
         inkscape:connector-curvature="0"
         transform="matrix(-0.8,0,0,-0.8,-10,0)"
         style="fill:#000000;fill-opacity:1;fill-rule:evenodd;stroke:#000000;stroke-width:1.00000003pt;stroke-opacity:1"
         d="M 0,0 5,-5 -12.5,0 5,5 Z"
         id="path15965-5-7" />
    </marker>
    <marker
       inkscape:isstock="true"
       style="overflow:visible"
       id="marker15967-2-7"
       refX="0"
       refY="0"
       orient="auto"
       inkscape:stockid="Arrow1Lend">
      <path
         inkscape:connector-curvature="0"
         transform="matrix(-0.8,0,0,-0.8,-10,0)"
         style="fill:#000000;fill-opacity:1;fill-rule:evenodd;stroke:#000000;stroke-width:1.00000003pt;stroke-opacity:1"
         d="M 0,0 5,-5 -12.5,0 5,5 Z"
         id="path15965-5-5" />
    </marker>
    <marker
       inkscape:isstock="true"
       style="overflow:visible"
       id="marker15967-2-7-2"
       refX="0"
       refY="0"
       orient="auto"
       inkscape:stockid="Arrow1Lend">
      <path
         inkscape:connector-curvature="0"
         transform="matrix(-0.8,0,0,-0.8,-10,0)"
         style="fill:#000000;fill-opacity:1;fill-rule:evenodd;stroke:#000000;stroke-width:1.00000003pt;stroke-opacity:1"
         d="M 0,0 5,-5 -12.5,0 5,5 Z"
         id="path15965-5-5-8" />
    </marker>
    <marker
       inkscape:isstock="true"
       style="overflow:visible"
       id="marker15967-2-7-2-6"
       refX="0"
       refY="0"
       orient="auto"
       inkscape:stockid="Arrow1Lend">
      <path
         inkscape:connector-curvature="0"
         transform="matrix(-0.8,0,0,-0.8,-10,0)"
         style="fill:#000000;fill-opacity:1;fill-rule:evenodd;stroke:#000000;stroke-width:1.00000003pt;stroke-opacity:1"
         d="M 0,0 5,-5 -12.5,0 5,5 Z"
         id="path15965-5-5-8-0" />
    </marker>
    <marker
       inkscape:isstock="true"
       style="overflow:visible"
       id="marker34330-1"
       refX="0"
       refY="0"
       orient="auto"
       inkscape:stockid="EmptyTriangleOutL">
      <path
         inkscape:connector-curvature="0"
         transform="matrix(0.8,0,0,0.8,-4.8,0)"
         style="fill:#ffffff;fill-rule:evenodd;stroke:#000000;stroke-width:1.00000003pt;stroke-opacity:1"
         d="M 5.77,0 -2.88,5 V -5 Z"
         id="path34328-4" />
    </marker>
    <marker
       inkscape:isstock="true"
       style="overflow:visible"
       id="marker15967-2-7-2-1"
       refX="0"
       refY="0"
       orient="auto"
       inkscape:stockid="Arrow1Lend">
      <path
         inkscape:connector-curvature="0"
         transform="matrix(-0.8,0,0,-0.8,-10,0)"
         style="fill:#000000;fill-opacity:1;fill-rule:evenodd;stroke:#000000;stroke-width:1.00000003pt;stroke-opacity:1"
         d="M 0,0 5,-5 -12.5,0 5,5 Z"
         id="path15965-5-5-8-07" />
    </marker>
    <marker
       inkscape:isstock="true"
       style="overflow:visible"
       id="marker15967-2-7-2-1-8"
       refX="0"
       refY="0"
       orient="auto"
       inkscape:stockid="Arrow1Lend">
      <path
         inkscape:connector-curvature="0"
         transform="matrix(-0.8,0,0,-0.8,-10,0)"
         style="fill:#000000;fill-opacity:1;fill-rule:evenodd;stroke:#000000;stroke-width:1.00000003pt;stroke-opacity:1"
         d="M 0,0 5,-5 -12.5,0 5,5 Z"
         id="path15965-5-5-8-07-7" />
    </marker>
    <marker
       inkscape:isstock="true"
       style="overflow:visible"
       id="marker15967-2-7-2-1-8-4"
       refX="0"
       refY="0"
       orient="auto"
       inkscape:stockid="Arrow1Lend">
      <path
         inkscape:connector-curvature="0"
         transform="matrix(-0.8,0,0,-0.8,-10,0)"
         style="fill:#000000;fill-opacity:1;fill-rule:evenodd;stroke:#000000;stroke-width:1.00000003pt;stroke-opacity:1"
         d="M 0,0 5,-5 -12.5,0 5,5 Z"
         id="path15965-5-5-8-07-7-8" />
    </marker>
    <marker
       inkscape:stockid="EmptyTriangleOutL"
       orient="auto"
       refY="0"
       refX="0"
       id="EmptyTriangleOutL-8-2-4"
       style="overflow:visible"
       inkscape:isstock="true">
      <path
         inkscape:connector-curvature="0"
         id="path2666-5-2-2"
         d="M 5.77,0 -2.88,5 V -5 Z"
         style="fill:#ffffff;fill-rule:evenodd;stroke:#000000;stroke-width:1.00000003pt;stroke-opacity:1"
         transform="matrix(0.8,0,0,0.8,-4.8,0)" />
    </marker>
    <marker
       inkscape:stockid="EmptyTriangleOutL"
       orient="auto"
       refY="0"
       refX="0"
       id="EmptyTriangleOutL-8-2-4-6"
       style="overflow:visible"
       inkscape:isstock="true">
      <path
         inkscape:connector-curvature="0"
         id="path2666-5-2-2-1"
         d="M 5.77,0 -2.88,5 V -5 Z"
         style="fill:#ffffff;fill-rule:evenodd;stroke:#000000;stroke-width:1.00000003pt;stroke-opacity:1"
         transform="matrix(0.8,0,0,0.8,-4.8,0)" />
    </marker>
    <marker
       inkscape:stockid="EmptyTriangleOutL"
       orient="auto"
       refY="0"
       refX="0"
       id="EmptyTriangleOutL-1-4"
       style="overflow:visible"
       inkscape:isstock="true">
      <path
         inkscape:connector-curvature="0"
         id="path2666-3-2"
         d="M 5.77,0 -2.88,5 V -5 Z"
         style="fill:#ffffff;fill-rule:evenodd;stroke:#000000;stroke-width:1.00000003pt;stroke-opacity:1"
         transform="matrix(0.8,0,0,0.8,-4.8,0)" />
    </marker>
    <marker
       inkscape:isstock="true"
       style="overflow:visible"
       id="marker15967-2-3"
       refX="0"
       refY="0"
       orient="auto"
       inkscape:stockid="Arrow1Lend">
      <path
         inkscape:connector-curvature="0"
         transform="matrix(-0.8,0,0,-0.8,-10,0)"
         style="fill:#000000;fill-opacity:1;fill-rule:evenodd;stroke:#000000;stroke-width:1.00000003pt;stroke-opacity:1"
         d="M 0,0 5,-5 -12.5,0 5,5 Z"
         id="path15965-5-6" />
    </marker>
    <marker
       inkscape:isstock="true"
       style="overflow:visible"
       id="marker34330-1-5"
       refX="0"
       refY="0"
       orient="auto"
       inkscape:stockid="EmptyTriangleOutL">
      <path
         inkscape:connector-curvature="0"
         transform="matrix(0.8,0,0,0.8,-4.8,0)"
         style="fill:#ffffff;fill-rule:evenodd;stroke:#000000;stroke-width:1.00000003pt;stroke-opacity:1"
         d="M 5.77,0 -2.88,5 V -5 Z"
         id="path34328-4-3" />
    </marker>
    <marker
       inkscape:isstock="true"
       style="overflow:visible"
       id="marker15967-2-7-2-62"
       refX="0"
       refY="0"
       orient="auto"
       inkscape:stockid="Arrow1Lend">
      <path
         inkscape:connector-curvature="0"
         transform="matrix(-0.8,0,0,-0.8,-10,0)"
         style="fill:#000000;fill-opacity:1;fill-rule:evenodd;stroke:#000000;stroke-width:1.00000003pt;stroke-opacity:1"
         d="M 0,0 5,-5 -12.5,0 5,5 Z"
         id="path15965-5-5-8-9" />
    </marker>
  </defs>
  <sodipodi:namedview
     id="base"
     pagecolor="#ffffff"
     bordercolor="#666666"
     borderopacity="1.0"
     inkscape:pageopacity="0.0"
     inkscape:pageshadow="2"
     inkscape:zoom="2.8284271"
     inkscape:cx="658.87706"
     inkscape:cy="316.10262"
     inkscape:document-units="mm"
     inkscape:current-layer="g3171-0-3-7"
     showgrid="false"
     inkscape:window-width="1920"
     inkscape:window-height="1031"
     inkscape:window-x="0"
     inkscape:window-y="0"
     inkscape:window-maximized="1"
     showguides="false"
     inkscape:measure-start="337.025,96.3433"
     inkscape:measure-end="346.107,96.2991" />
  <metadata
     id="metadata5">
    <rdf:RDF>
      <cc:Work
         rdf:about="">
        <dc:format>image/svg+xml</dc:format>
        <dc:type
           rdf:resource="http://purl.org/dc/dcmitype/StillImage" />
        <dc:title />
      </cc:Work>
    </rdf:RDF>
  </metadata>
  <g
     inkscape:label="Layer 1"
     inkscape:groupmode="layer"
     id="layer1"
     transform="translate(47.153499,48.9275)">
    <g
       id="g2152"
       transform="matrix(0.26458333,0,0,0.26458333,23.466669,9.2313047)">
      <g
         id="g2091">
        <flowRoot
           xml:space="preserve"
           id="flowRoot2276"
           style="font-style:normal;font-variant:normal;font-weight:normal;font-stretch:normal;font-size:8px;line-height:1.25;font-family:sans-serif;-inkscape-font-specification:'sans-serif, Normal';font-variant-ligatures:normal;font-variant-caps:normal;font-variant-numeric:normal;font-feature-settings:normal;text-align:center;letter-spacing:0px;word-spacing:0px;writing-mode:lr-tb;text-anchor:middle;fill:#000000;fill-opacity:1;stroke:none"
           transform="translate(-88.692923,-34.889971)"><flowRegion
             id="flowRegion2278"><rect
               id="rect2280"
               width="10.585999"
               height="10.995578"
               x="217.78572"
               y="49.90506" /></flowRegion><flowPara
             id="flowPara2282" /></flowRoot>        <g
           id="g3517"
           transform="translate(-316.04829,-8.7595895)">
          <g
             id="g3171-0-3-7"
             transform="matrix(3.7795276,0,0,3.7795276,185.4072,-254.6896)">
            <rect
               style="opacity:1;fill:none;fill-opacity:0.61568627;stroke:#000000;stroke-width:0.40000001;stroke-miterlimit:4;stroke-dasharray:none;stroke-dashoffset:0;stroke-opacity:1"
               id="rect1490-6"
               width="47.655922"
               height="25.066149"
               x="115.56277"
               y="85.761826"
               ry="0.2315089" />
            <path
               style="fill:#b9f9fe;fill-opacity:1;stroke:none;stroke-width:0.06654067;stroke-miterlimit:4;stroke-dasharray:none;stroke-opacity:0.99115044"
               d="m 163.03851,110.66318 -6.15415,7.94471 -0.3859,-24.734269 6.48023,-7.68087 z"
               id="rect5373-7-4-8"
               inkscape:connector-curvature="0"
               sodipodi:nodetypes="ccccc" />
            <path
               style="fill:none;stroke:#000000;stroke-width:0.40000001;stroke-linecap:butt;stroke-linejoin:miter;stroke-miterlimit:4;stroke-dasharray:none;stroke-opacity:1"
               d="m 156.52956,119.28237 c 0.30211,-0.12314 6.65428,-8.38606 6.66605,-8.54064"
               id="path5808"
               inkscape:connector-curvature="0"
               sodipodi:nodetypes="cc" />
            <rect
               style="opacity:1;fill:none;fill-opacity:0.61568627;stroke:#000000;stroke-width:0.55000001;stroke-miterlimit:4;stroke-dasharray:none;stroke-dashoffset:0;stroke-opacity:1"
               id="rect1490"
               width="47.655922"
               height="25.066147"
               x="108.99003"
               y="94.174698"
               ry="0.2315089" />
            <text
               xml:space="preserve"
               style="font-style:normal;font-weight:normal;font-size:10.58333302px;line-height:1.25;font-family:sans-serif;letter-spacing:0px;word-spacing:0px;fill:#000000;fill-opacity:1;stroke:none;stroke-width:0.26458332"
               x="114.48497"
               y="100.71223"
               id="text1184"><tspan
                 sodipodi:role="line"
                 x="114.48497"
                 y="100.71223"
                 style="font-style:italic;font-variant:normal;font-weight:normal;font-stretch:normal;font-size:6.3499999px;font-family:Laksaman;-inkscape-font-specification:'Laksaman, Italic';font-variant-ligatures:normal;font-variant-caps:normal;font-variant-numeric:normal;font-feature-settings:normal;text-align:start;writing-mode:lr-tb;text-anchor:start;opacity:0.97000002;stroke-width:0.26458332"
                 id="tspan1186">BDWatchdog</tspan><tspan
                 sodipodi:role="line"
                 x="114.48497"
                 y="113.94139"
                 style="stroke-width:0.26458332"
                 id="tspan1190" /></text>
            <path
               style="fill:none;stroke:#000000;stroke-width:0.40000001;stroke-linecap:butt;stroke-linejoin:miter;stroke-miterlimit:4;stroke-dasharray:none;stroke-opacity:1"
               d="m 156.39791,94.240851 c 0.30211,-0.12314 6.65428,-8.38606 6.66605,-8.54064"
               id="path5808-5"
               inkscape:connector-curvature="0"
               sodipodi:nodetypes="cc" />
            <path
               style="fill:#b9f9fe;fill-opacity:1;stroke:none;stroke-width:0.06654067;stroke-miterlimit:4;stroke-dasharray:none;stroke-opacity:0.99115044"
               d="m 115.63808,85.951511 -6.04155,7.922 46.83992,0.058 6.22805,-7.9868 z"
               id="rect5373-7-4-8-6"
               inkscape:connector-curvature="0"
               sodipodi:nodetypes="ccccc" />
            <path
               style="color:#000000;font-style:normal;font-variant:normal;font-weight:normal;font-stretch:normal;font-size:medium;line-height:normal;font-family:sans-serif;font-variant-ligatures:normal;font-variant-position:normal;font-variant-caps:normal;font-variant-numeric:normal;font-variant-alternates:normal;font-feature-settings:normal;text-indent:0;text-align:start;text-decoration:none;text-decoration-line:none;text-decoration-style:solid;text-decoration-color:#000000;letter-spacing:normal;word-spacing:normal;text-transform:none;writing-mode:lr-tb;direction:ltr;text-orientation:mixed;dominant-baseline:auto;baseline-shift:baseline;text-anchor:start;white-space:normal;shape-padding:0;clip-rule:nonzero;display:inline;overflow:visible;visibility:visible;opacity:1;isolation:auto;mix-blend-mode:normal;color-interpolation:sRGB;color-interpolation-filters:linearRGB;solid-color:#000000;solid-opacity:1;vector-effect:none;fill:#000000;fill-opacity:1;fill-rule:nonzero;stroke:none;stroke-width:0.55983055;stroke-linecap:butt;stroke-linejoin:miter;stroke-miterlimit:4;stroke-dasharray:none;stroke-dashoffset:0;stroke-opacity:1;color-rendering:auto;image-rendering:auto;shape-rendering:auto;text-rendering:auto;enable-background:accumulate"
               d="m 120.53421,86.304671 c -0.13609,0.16408 -0.57931,0.65872 -0.83833,0.9704 -0.518,0.62306 -1.23216,1.49409 -1.95378,2.36206 -0.72162,0.86786 -1.45308,1.73467 -1.99427,2.3856 -0.29026,0.34285 -0.57376,0.69363 -0.8604,1.04065 l -0.36235,0.44403 0.71641,-0.007 0.005,-0.005 0.005,-0.004 0.87055,-1.04071 c 0.54119,-0.65097 1.26254,-1.52953 1.98416,-2.39742 0.7216,-0.86797 1.43577,-1.7272 1.95377,-2.35027 0.25901,-0.31149 0.64808,-0.81313 0.78418,-0.9766 l 0.34327,-0.4323 -0.65357,0.0104 -1e-5,-2e-5 z"
               id="path5808-6-5-9"
               inkscape:connector-curvature="0"
               sodipodi:nodetypes="ccccccccccccccccc" />
            <path
               style="color:#000000;font-style:normal;font-variant:normal;font-weight:normal;font-stretch:normal;font-size:medium;line-height:normal;font-family:sans-serif;font-variant-ligatures:normal;font-variant-position:normal;font-variant-caps:normal;font-variant-numeric:normal;font-variant-alternates:normal;font-feature-settings:normal;text-indent:0;text-align:start;text-decoration:none;text-decoration-line:none;text-decoration-style:solid;text-decoration-color:#000000;letter-spacing:normal;word-spacing:normal;text-transform:none;writing-mode:lr-tb;direction:ltr;text-orientation:mixed;dominant-baseline:auto;baseline-shift:baseline;text-anchor:start;white-space:normal;shape-padding:0;clip-rule:nonzero;display:inline;overflow:visible;visibility:visible;opacity:1;isolation:auto;mix-blend-mode:normal;color-interpolation:sRGB;color-interpolation-filters:linearRGB;solid-color:#000000;solid-opacity:1;vector-effect:none;fill:#000000;fill-opacity:1;fill-rule:nonzero;stroke:none;stroke-width:0.55983055;stroke-linecap:butt;stroke-linejoin:miter;stroke-miterlimit:4;stroke-dasharray:none;stroke-dashoffset:0;stroke-opacity:1;color-rendering:auto;image-rendering:auto;shape-rendering:auto;text-rendering:auto;enable-background:accumulate"
               d="m 125.81549,86.313771 c -0.13609,0.16408 -0.57931,0.65872 -0.83833,0.9704 -0.518,0.62306 -1.23217,1.49409 -1.95378,2.36206 -0.72162,0.86786 -1.45309,1.73467 -1.99428,2.3856 -0.29026,0.34285 -0.57377,0.69363 -0.8604,1.04065 l -0.36235,0.44403 0.7164,-0.007 0.005,-0.005 0.005,-0.005 0.87056,-1.04071 c 0.54119,-0.65096 1.26255,-1.52953 1.98416,-2.39742 0.72161,-0.86797 1.43577,-1.7272 1.95378,-2.35027 0.25901,-0.31148 0.64808,-0.81313 0.78418,-0.9766 l 0.34326,-0.4323 -0.65356,0.0104 -1e-5,-1e-5 z"
               id="path5808-6-5-9-9"
               inkscape:connector-curvature="0"
               sodipodi:nodetypes="ccccccccccccccccc" />
            <path
               style="color:#000000;font-style:normal;font-variant:normal;font-weight:normal;font-stretch:normal;font-size:medium;line-height:normal;font-family:sans-serif;font-variant-ligatures:normal;font-variant-position:normal;font-variant-caps:normal;font-variant-numeric:normal;font-variant-alternates:normal;font-feature-settings:normal;text-indent:0;text-align:start;text-decoration:none;text-decoration-line:none;text-decoration-style:solid;text-decoration-color:#000000;letter-spacing:normal;word-spacing:normal;text-transform:none;writing-mode:lr-tb;direction:ltr;text-orientation:mixed;dominant-baseline:auto;baseline-shift:baseline;text-anchor:start;white-space:normal;shape-padding:0;clip-rule:nonzero;display:inline;overflow:visible;visibility:visible;opacity:1;isolation:auto;mix-blend-mode:normal;color-interpolation:sRGB;color-interpolation-filters:linearRGB;solid-color:#000000;solid-opacity:1;vector-effect:none;fill:#000000;fill-opacity:1;fill-rule:nonzero;stroke:none;stroke-width:0.55983055;stroke-linecap:butt;stroke-linejoin:miter;stroke-miterlimit:4;stroke-dasharray:none;stroke-dashoffset:0;stroke-opacity:1;color-rendering:auto;image-rendering:auto;shape-rendering:auto;text-rendering:auto;enable-background:accumulate"
               d="m 131.12796,86.295571 c -0.13609,0.16408 -0.57931,0.65872 -0.83833,0.9704 -0.518,0.62306 -1.23217,1.49409 -1.95378,2.36206 -0.72162,0.86786 -1.45309,1.73467 -1.99428,2.38559 -0.29026,0.34286 -0.57376,0.69364 -0.86039,1.04066 l -0.36235,0.44403 0.7164,-0.007 0.005,-0.005 0.005,-0.005 0.87055,-1.04071 c 0.54119,-0.65096 1.26255,-1.52953 1.98416,-2.39742 0.72161,-0.86797 1.43577,-1.7272 1.95378,-2.35027 0.25901,-0.31148 0.64808,-0.81313 0.78418,-0.9766 l 0.34326,-0.4323 -0.65356,0.0104 -1e-5,-1e-5 z"
               id="path5808-6-5-9-4"
               inkscape:connector-curvature="0"
               sodipodi:nodetypes="ccccccccccccccccc" />
            <path
               style="color:#000000;font-style:normal;font-variant:normal;font-weight:normal;font-stretch:normal;font-size:medium;line-height:normal;font-family:sans-serif;font-variant-ligatures:normal;font-variant-position:normal;font-variant-caps:normal;font-variant-numeric:normal;font-variant-alternates:normal;font-feature-settings:normal;text-indent:0;text-align:start;text-decoration:none;text-decoration-line:none;text-decoration-style:solid;text-decoration-color:#000000;letter-spacing:normal;word-spacing:normal;text-transform:none;writing-mode:lr-tb;direction:ltr;text-orientation:mixed;dominant-baseline:auto;baseline-shift:baseline;text-anchor:start;white-space:normal;shape-padding:0;clip-rule:nonzero;display:inline;overflow:visible;visibility:visible;opacity:1;isolation:auto;mix-blend-mode:normal;color-interpolation:sRGB;color-interpolation-filters:linearRGB;solid-color:#000000;solid-opacity:1;vector-effect:none;fill:#000000;fill-opacity:1;fill-rule:nonzero;stroke:none;stroke-width:0.55983055;stroke-linecap:butt;stroke-linejoin:miter;stroke-miterlimit:4;stroke-dasharray:none;stroke-dashoffset:0;stroke-opacity:1;color-rendering:auto;image-rendering:auto;shape-rendering:auto;text-rendering:auto;enable-background:accumulate"
               d="m 136.40923,86.304671 c -0.13609,0.16408 -0.57931,0.65872 -0.83832,0.9704 -0.51801,0.62306 -1.23218,1.49409 -1.95379,2.36206 -0.72162,0.86786 -1.45309,1.73467 -1.99428,2.3856 -0.29026,0.34285 -0.57376,0.69363 -0.86039,1.04065 l -0.36235,0.44403 0.7164,-0.007 0.005,-0.005 0.005,-0.004 0.87055,-1.04071 c 0.5412,-0.65096 1.26255,-1.52953 1.98416,-2.39742 0.72161,-0.86797 1.43577,-1.7272 1.95379,-2.35027 0.25901,-0.31148 0.64808,-0.81313 0.78418,-0.9766 l 0.34326,-0.4323 -0.65356,0.0104 -1e-5,-2e-5 z"
               id="path5808-6-5-9-9-5"
               inkscape:connector-curvature="0"
               sodipodi:nodetypes="ccccccccccccccccc" />
            <path
               style="color:#000000;font-style:normal;font-variant:normal;font-weight:normal;font-stretch:normal;font-size:medium;line-height:normal;font-family:sans-serif;font-variant-ligatures:normal;font-variant-position:normal;font-variant-caps:normal;font-variant-numeric:normal;font-variant-alternates:normal;font-feature-settings:normal;text-indent:0;text-align:start;text-decoration:none;text-decoration-line:none;text-decoration-style:solid;text-decoration-color:#000000;letter-spacing:normal;word-spacing:normal;text-transform:none;writing-mode:lr-tb;direction:ltr;text-orientation:mixed;dominant-baseline:auto;baseline-shift:baseline;text-anchor:start;white-space:normal;shape-padding:0;clip-rule:nonzero;display:inline;overflow:visible;visibility:visible;opacity:1;isolation:auto;mix-blend-mode:normal;color-interpolation:sRGB;color-interpolation-filters:linearRGB;solid-color:#000000;solid-opacity:1;vector-effect:none;fill:#000000;fill-opacity:1;fill-rule:nonzero;stroke:none;stroke-width:0.55983055;stroke-linecap:butt;stroke-linejoin:miter;stroke-miterlimit:4;stroke-dasharray:none;stroke-dashoffset:0;stroke-opacity:1;color-rendering:auto;image-rendering:auto;shape-rendering:auto;text-rendering:auto;enable-background:accumulate"
               d="m 141.7013,86.304671 c -0.13609,0.16408 -0.57931,0.65872 -0.83833,0.9704 -0.518,0.62306 -1.23216,1.49409 -1.95378,2.36206 -0.72162,0.86786 -1.45308,1.73467 -1.99427,2.3856 -0.29026,0.34285 -0.57376,0.69363 -0.8604,1.04065 l -0.36235,0.44403 0.71641,-0.007 0.005,-0.005 0.005,-0.004 0.87055,-1.04071 c 0.5412,-0.65096 1.26255,-1.52953 1.98416,-2.39742 0.72161,-0.86797 1.43577,-1.7272 1.95377,-2.35027 0.25901,-0.31148 0.64808,-0.81313 0.78418,-0.9766 l 0.34328,-0.4323 -0.65358,0.0104 -1e-5,-2e-5 z"
               id="path5808-6-5-9-93"
               inkscape:connector-curvature="0"
               sodipodi:nodetypes="ccccccccccccccccc" />
            <path
               style="color:#000000;font-style:normal;font-variant:normal;font-weight:normal;font-stretch:normal;font-size:medium;line-height:normal;font-family:sans-serif;font-variant-ligatures:normal;font-variant-position:normal;font-variant-caps:normal;font-variant-numeric:normal;font-variant-alternates:normal;font-feature-settings:normal;text-indent:0;text-align:start;text-decoration:none;text-decoration-line:none;text-decoration-style:solid;text-decoration-color:#000000;letter-spacing:normal;word-spacing:normal;text-transform:none;writing-mode:lr-tb;direction:ltr;text-orientation:mixed;dominant-baseline:auto;baseline-shift:baseline;text-anchor:start;white-space:normal;shape-padding:0;clip-rule:nonzero;display:inline;overflow:visible;visibility:visible;opacity:1;isolation:auto;mix-blend-mode:normal;color-interpolation:sRGB;color-interpolation-filters:linearRGB;solid-color:#000000;solid-opacity:1;vector-effect:none;fill:#000000;fill-opacity:1;fill-rule:nonzero;stroke:none;stroke-width:0.55983055;stroke-linecap:butt;stroke-linejoin:miter;stroke-miterlimit:4;stroke-dasharray:none;stroke-dashoffset:0;stroke-opacity:1;color-rendering:auto;image-rendering:auto;shape-rendering:auto;text-rendering:auto;enable-background:accumulate"
               d="m 146.98257,86.313771 c -0.13609,0.16408 -0.57931,0.65872 -0.83833,0.9704 -0.518,0.62306 -1.23217,1.49409 -1.95378,2.36206 -0.72162,0.86786 -1.45308,1.73467 -1.99428,2.3856 -0.29025,0.34285 -0.57375,0.69363 -0.86039,1.04065 l -0.36235,0.44403 0.7164,-0.007 0.005,-0.005 0.005,-0.005 0.87056,-1.04071 c 0.54119,-0.65096 1.26254,-1.52953 1.98415,-2.39742 0.72161,-0.86797 1.43577,-1.7272 1.95378,-2.35027 0.25901,-0.31148 0.64808,-0.81313 0.78418,-0.9766 l 0.34326,-0.4323 -0.65355,0.0104 -2e-5,-1e-5 z"
               id="path5808-6-5-9-9-57"
               inkscape:connector-curvature="0"
               sodipodi:nodetypes="ccccccccccccccccc" />
            <path
               style="color:#000000;font-style:normal;font-variant:normal;font-weight:normal;font-stretch:normal;font-size:medium;line-height:normal;font-family:sans-serif;font-variant-ligatures:normal;font-variant-position:normal;font-variant-caps:normal;font-variant-numeric:normal;font-variant-alternates:normal;font-feature-settings:normal;text-indent:0;text-align:start;text-decoration:none;text-decoration-line:none;text-decoration-style:solid;text-decoration-color:#000000;letter-spacing:normal;word-spacing:normal;text-transform:none;writing-mode:lr-tb;direction:ltr;text-orientation:mixed;dominant-baseline:auto;baseline-shift:baseline;text-anchor:start;white-space:normal;shape-padding:0;clip-rule:nonzero;display:inline;overflow:visible;visibility:visible;opacity:1;isolation:auto;mix-blend-mode:normal;color-interpolation:sRGB;color-interpolation-filters:linearRGB;solid-color:#000000;solid-opacity:1;vector-effect:none;fill:#000000;fill-opacity:1;fill-rule:nonzero;stroke:none;stroke-width:0.55983055;stroke-linecap:butt;stroke-linejoin:miter;stroke-miterlimit:4;stroke-dasharray:none;stroke-dashoffset:0;stroke-opacity:1;color-rendering:auto;image-rendering:auto;shape-rendering:auto;text-rendering:auto;enable-background:accumulate"
               d="m 152.29464,86.295571 c -0.13609,0.16408 -0.57931,0.65872 -0.83833,0.9704 -0.518,0.62306 -1.23216,1.49409 -1.95378,2.36206 -0.72162,0.86786 -1.45308,1.73467 -1.99427,2.38559 -0.29026,0.34286 -0.57376,0.69364 -0.8604,1.04066 l -0.36235,0.44403 0.71641,-0.007 0.005,-0.005 0.005,-0.005 0.87055,-1.04071 c 0.54119,-0.65096 1.26254,-1.52953 1.98416,-2.39742 0.7216,-0.86797 1.43577,-1.7272 1.95377,-2.35027 0.25901,-0.31148 0.64808,-0.81313 0.78418,-0.9766 l 0.34327,-0.4323 -0.65357,0.0104 -10e-6,-1e-5 z"
               id="path5808-6-5-9-0"
               inkscape:connector-curvature="0"
               sodipodi:nodetypes="ccccccccccccccccc" />
            <path
               style="color:#000000;font-style:normal;font-variant:normal;font-weight:normal;font-stretch:normal;font-size:medium;line-height:normal;font-family:sans-serif;font-variant-ligatures:normal;font-variant-position:normal;font-variant-caps:normal;font-variant-numeric:normal;font-variant-alternates:normal;font-feature-settings:normal;text-indent:0;text-align:start;text-decoration:none;text-decoration-line:none;text-decoration-style:solid;text-decoration-color:#000000;letter-spacing:normal;word-spacing:normal;text-transform:none;writing-mode:lr-tb;direction:ltr;text-orientation:mixed;dominant-baseline:auto;baseline-shift:baseline;text-anchor:start;white-space:normal;shape-padding:0;clip-rule:nonzero;display:inline;overflow:visible;visibility:visible;opacity:1;isolation:auto;mix-blend-mode:normal;color-interpolation:sRGB;color-interpolation-filters:linearRGB;solid-color:#000000;solid-opacity:1;vector-effect:none;fill:#000000;fill-opacity:1;fill-rule:nonzero;stroke:none;stroke-width:0.55983055;stroke-linecap:butt;stroke-linejoin:miter;stroke-miterlimit:4;stroke-dasharray:none;stroke-dashoffset:0;stroke-opacity:1;color-rendering:auto;image-rendering:auto;shape-rendering:auto;text-rendering:auto;enable-background:accumulate"
               d="m 157.57591,86.304671 c -0.13609,0.16408 -0.57931,0.65872 -0.83833,0.9704 -0.518,0.62306 -1.23217,1.49409 -1.95378,2.36206 -0.72162,0.86786 -1.45308,1.73467 -1.99428,2.3856 -0.29025,0.34285 -0.57375,0.69363 -0.86039,1.04065 l -0.36235,0.44403 0.7164,-0.007 0.005,-0.005 0.005,-0.004 0.87056,-1.04071 c 0.54119,-0.65096 1.26254,-1.52953 1.98416,-2.39742 0.7216,-0.86797 1.43576,-1.7272 1.95377,-2.35027 0.25901,-0.31148 0.64808,-0.81313 0.78418,-0.9766 l 0.34327,-0.4323 -0.65356,0.0104 -1e-5,-2e-5 z"
               id="path5808-6-5-9-9-8"
               inkscape:connector-curvature="0"
               sodipodi:nodetypes="ccccccccccccccccc" />
            <path
               style="fill:none;stroke:#000000;stroke-width:0.40000001;stroke-linecap:butt;stroke-linejoin:miter;stroke-miterlimit:4;stroke-dasharray:none;stroke-opacity:1"
               d="m 108.99004,94.174711 c 0.30211,-0.12314 6.66451,-8.32906 6.68212,-8.41348"
               id="path5808-26"
               inkscape:connector-curvature="0"
               sodipodi:nodetypes="cc" />
            <path
               style="fill:#71f3fc;fill-opacity:1;stroke:none;stroke-width:0.06862865;stroke-miterlimit:4;stroke-dasharray:none;stroke-opacity:0.99115044"
               d="m 156.379,119.00404 -47.11048,-0.0445 0.01,-24.514579 47.09434,-0.008 z"
               id="rect5373-7-4-2-0"
               inkscape:connector-curvature="0"
               sodipodi:nodetypes="ccccc" />
            <path
               style="fill:none;stroke:#000000;stroke-width:0.37384522;stroke-linecap:butt;stroke-linejoin:miter;stroke-miterlimit:4;stroke-dasharray:none;stroke-dashoffset:0;stroke-opacity:1"
               d="m 113.78408,105.63533 7.77681,10.64883 9.68832,-6.61194 11.15984,6.90736 6.74589,-12.40838"
               id="path1539"
               inkscape:connector-curvature="0"
               sodipodi:nodetypes="ccccc" />
            <ellipse
               style="opacity:1;fill:#000000;fill-opacity:1;stroke:#000000;stroke-width:0.37384522;stroke-miterlimit:4;stroke-dasharray:none;stroke-dashoffset:0;stroke-opacity:1"
               id="path1771"
               ry="0.82679278"
               rx="0.80444694"
               cy="105.61947"
               cx="113.82927" />
            <ellipse
               style="opacity:1;fill:#000000;fill-opacity:1;stroke:#000000;stroke-width:0.37384522;stroke-miterlimit:4;stroke-dasharray:none;stroke-dashoffset:0;stroke-opacity:1"
               id="path1771-6"
               cx="148.97438"
               cy="104.20232"
               rx="0.80444694"
               ry="0.82679278" />
            <ellipse
               style="opacity:1;fill:#000000;fill-opacity:1;stroke:#000000;stroke-width:0.37384522;stroke-miterlimit:4;stroke-dasharray:none;stroke-dashoffset:0;stroke-opacity:1"
               id="path1771-93-6"
               cx="131.39412"
               cy="109.70556"
               rx="0.80444694"
               ry="0.82679278" />
            <ellipse
               style="opacity:1;fill:#000000;fill-opacity:1;stroke:#000000;stroke-width:0.37384522;stroke-miterlimit:4;stroke-dasharray:none;stroke-dashoffset:0;stroke-opacity:1"
               id="path1771-93-4"
               cx="121.53218"
               cy="116.25877"
               rx="0.80444694"
               ry="0.82679278" />
            <ellipse
               style="opacity:1;fill:#000000;fill-opacity:1;stroke:#000000;stroke-width:0.37384522;stroke-miterlimit:4;stroke-dasharray:none;stroke-dashoffset:0;stroke-opacity:1"
               id="path1771-93"
               cx="142.72328"
               cy="116.71918"
               rx="0.80444694"
               ry="0.82679278" />
            <text
               xml:space="preserve"
               style="font-style:normal;font-weight:normal;font-size:10.58333302px;line-height:1.25;font-family:sans-serif;letter-spacing:0px;word-spacing:0px;fill:#000000;fill-opacity:1;stroke:none;stroke-width:0.26458332"
               x="112.13205"
               y="100.70786"
               id="text5931-7"><tspan
                 sodipodi:role="line"
                 id="tspan5929-4"
                 x="112.13205"
                 y="100.70786"
                 style="font-style:oblique;font-variant:normal;font-weight:bold;font-stretch:normal;font-size:6.3499999px;font-family:Sawasdee;-inkscape-font-specification:'Sawasdee, Bold Oblique';font-variant-ligatures:normal;font-variant-caps:normal;font-variant-numeric:normal;font-feature-settings:normal;text-align:start;writing-mode:lr-tb;text-anchor:start;stroke-width:0.26458332">BDWatchdog</tspan></text>
            <g
               transform="matrix(0.39320766,0,0,0.35681186,121.22422,40.673261)"
               id="g2397-6-0">
              <path
                 sodipodi:nodetypes="csccccccccc"
                 inkscape:connector-curvature="0"
                 id="path2368-0-4"
                 d="m 33.828864,81.931548 c 0.13788,8.080797 -5.105389,15.008537 -9.108879,20.057852 -4.790146,6.04147 -6.506135,8.17979 -9.239178,16.55047 -0.731953,8.59565 2.198327,13.71783 5.118892,17.15879 6.881743,5.15874 10.294408,5.78475 14.079613,5.95312 11.345548,-0.62976 13.459448,-3.3385 17.476645,-6.57545 3.218807,-3.39642 5.366267,-9.49271 4.918437,-16.3866 -1.47841,-8.01888 -3.461947,-12.45547 -6.803567,-17.00893 -0.56125,3.92233 -2.833527,6.35507 -5.176207,7.07084 1.19437,-6.06141 1.0901,-10.453145 -0.20995,-13.307445 C 42.685631,89.219082 39.403145,84.248486 33.828864,81.931548 Z"
                 style="fill:#ff8a8a;fill-opacity:1;stroke:#ff0020;stroke-width:3;stroke-linecap:butt;stroke-linejoin:miter;stroke-miterlimit:4;stroke-dasharray:none;stroke-opacity:1" />
              <path
                 sodipodi:nodetypes="cccccccc"
                 inkscape:connector-curvature="0"
                 id="path2370-2-2"
                 d="m 35.456199,107.80233 c 1.051035,3.69239 0.991078,8.55622 -4.048997,11.51969 -3.789303,2.92593 -3.668158,2.90289 -6.85034,6.58447 -1.498583,4.23543 -1.050517,6.77341 -0.251057,8.84282 3.810417,5.89151 7.083023,5.77746 10.373507,5.86304 7.024816,0.13569 8.616298,-1.64734 11.008558,-4.39398 5.219767,-6.48682 1.83128,-12.36097 -0.18899,-16.6782 -3.591934,-6.22551 -5.572021,-8.28019 -10.042681,-11.73784 z"
                 style="fill:#fff8ab;fill-opacity:1;stroke:#ffd26c;stroke-width:3;stroke-linecap:butt;stroke-linejoin:miter;stroke-miterlimit:4;stroke-dasharray:none;stroke-opacity:1" />
            </g>
          </g>
        </g>
        <g
           transform="translate(161.81709,104.48138)"
           id="g3517-48-9-2" />
      </g>
      <g
         id="g2093" />
      <g
         id="g2095" />
      <g
         id="g2097" />
      <g
         id="g2099" />
      <g
         id="g2101" />
      <g
         id="g2103" />
      <g
         id="g2105" />
      <g
         id="g2107" />
      <g
         id="g2109" />
      <g
         id="g2111" />
      <g
         id="g2113" />
      <g
         id="g2115" />
      <g
         id="g2117" />
      <g
         id="g2119" />
      <g
         id="g2121" />
    </g>
  </g>
</svg>
